<?xml version="1.0" encoding="UTF-8" standalone="no"?>
<!-- Created with Inkscape (http://www.inkscape.org/) -->

<svg
   xmlns:dc="http://purl.org/dc/elements/1.1/"
   xmlns:cc="http://creativecommons.org/ns#"
   xmlns:rdf="http://www.w3.org/1999/02/22-rdf-syntax-ns#"
   xmlns:svg="http://www.w3.org/2000/svg"
   xmlns="http://www.w3.org/2000/svg"
   version="1.1"
   width="892.91339"
   height="379.48819"
   id="svg60176">
  <defs
     id="defs60178">
    <clipPath
       id="clipPath60066">
      <path
         d="m 421.214,732.406 144.379,0 0,-65.36 -144.379,0 0,65.36 z"
         id="path60068" />
    </clipPath>
    <clipPath
       id="clipPath60038">
      <path
         d="m 421.214,732.406 144.379,0 0,-65.36 -144.379,0 0,65.36 z"
         id="path60040" />
    </clipPath>
  </defs>
  <metadata
     id="metadata60181">
    <rdf:RDF>
      <cc:Work
         rdf:about="">
        <dc:format>image/svg+xml</dc:format>
        <dc:type
           rdf:resource="http://purl.org/dc/dcmitype/StillImage" />
        <dc:title></dc:title>
      </cc:Work>
    </rdf:RDF>
  </metadata>
  <g
     transform="translate(13.990194,-378.26656)"
     id="layer1">
    <g
       transform="matrix(5.9861091,0,0,5.9861091,-833.16801,-908.45049)"
       id="g60301">
      <g
         transform="matrix(1.25,0,0,-1.25,222.47127,240.34727)"
         id="g59970">
        <path
           d="m 0,0 0.882,2.128 3.794,0 L 5.559,0 6.792,0 3.486,8.174 2.276,8.174 -1.167,0 0,0 z m 2.83,7.053 1.483,-3.951 -3.046,0 1.563,3.951"
           id="path59972"
           style="fill:#01604b;fill-opacity:1;fill-rule:evenodd;stroke:none" />
      </g>
      <g
         transform="matrix(1.25,0,0,-1.25,237.07377,236.89477)"
         id="g59974">
        <path
           d="m 0,0 c 0,-0.135 -0.012,-0.803 -0.216,-1.336 -0.226,-0.589 -0.826,-0.814 -1.268,-0.814 -1.03,0 -1.257,0.723 -1.257,1.709 l 0,3.363 -1.075,0 0,-3.805 c 0,-1.144 0.679,-2.049 1.869,-2.049 0.791,0 1.517,0.294 1.947,1.007 l 0.023,0 0,-0.837 1.053,0 0,5.684 L 0,2.922 0,0"
           id="path59976"
           style="fill:#01604b;fill-opacity:1;fill-rule:nonzero;stroke:none" />
      </g>
      <g
         transform="matrix(1.25,0,0,-1.25,241.75252,236.62477)"
         id="g59978">
        <path
           d="M 0,0 C 0,0.894 0.34,2.094 1.597,2.094 2.762,2.094 3.193,1.098 3.193,0 3.193,-1.099 2.762,-2.095 1.597,-2.095 0.34,-2.095 0,-0.895 0,0 z m 3.193,1.856 c 0,-0.079 -0.148,0.249 -0.17,0.272 -0.351,0.521 -0.963,0.747 -1.517,0.747 -1.721,0 -2.638,-1.29 -2.638,-2.932 0,-1.596 0.69,-2.82 2.423,-2.82 0.702,0 1.528,0.283 1.867,0.963 l 0.035,0 C 3.158,-3.194 3.158,-4.461 1.63,-4.461 c -0.759,0 -1.279,0.294 -1.324,1.053 l -1.133,0 c 0.011,-1.314 0.883,-1.835 2.107,-1.835 2.083,0 2.988,0.85 2.988,2.933 l 0,3.997 c 0,0.34 0.034,0.679 0.069,1.019 l -1.11,0 -0.034,-0.85"
           id="path59980"
           style="fill:#01604b;fill-opacity:1;fill-rule:evenodd;stroke:none" />
      </g>
      <g
         transform="matrix(1.25,0,0,-1.25,248.95002,235.18227)"
         id="g59982">
        <path
           d="m 0,0 c 0,-2.219 3.454,-1.268 3.454,-2.536 0,-0.736 -0.646,-0.985 -1.28,-0.985 -0.656,0 -1.132,0.374 -1.155,1.076 l -1.131,0 c -0.012,-1.314 0.984,-1.858 2.172,-1.858 1.168,0 2.526,0.431 2.526,1.824 0,1.279 -1.11,1.392 -2.072,1.71 -0.408,0.124 -1.382,0.169 -1.382,0.803 0,0.634 0.465,0.906 1.042,0.906 0.623,0 1.177,-0.238 1.132,-0.963 l 1.132,0 C 4.518,1.268 3.306,1.721 2.231,1.721 1.201,1.721 0,1.189 0,0"
           id="path59984"
           style="fill:#01604b;fill-opacity:1;fill-rule:nonzero;stroke:none" />
      </g>
      <g
         transform="matrix(1.25,0,0,-1.25,261.80877,236.79602)"
         id="g59986">
        <path
           d="m 0,0 c 0,-1.064 -0.397,-2.23 -1.609,-2.23 -1.302,0 -1.607,1.166 -1.607,2.23 0,1.03 0.385,2.23 1.607,2.23 C -0.317,2.23 0,1.064 0,0 z m -3.194,-1.993 -0.022,0.057 0.022,0 c 0.386,-0.793 1.133,-1.076 1.959,-1.076 1.687,0 2.366,1.551 2.366,3.012 0,1.541 -0.792,3.012 -2.558,3.012 -0.725,0 -1.438,-0.26 -1.767,-0.94 l -0.022,0 0,3.261 -1.077,0 0,-7.269 c 0,-0.226 -0.032,-0.566 -0.055,-0.906 l 1.109,0 0.045,0.849"
           id="path59988"
           style="fill:#01604b;fill-opacity:1;fill-rule:evenodd;stroke:none" />
      </g>
      <g
         transform="matrix(1.25,0,0,-1.25,269.85502,236.89477)"
         id="g59990">
        <path
           d="m 0,0 c 0,-0.135 -0.011,-0.803 -0.214,-1.336 -0.227,-0.589 -0.828,-0.814 -1.269,-0.814 -1.03,0 -1.256,0.723 -1.256,1.709 l 0,3.363 -1.076,0 0,-3.805 c 0,-1.144 0.679,-2.049 1.868,-2.049 0.793,0 1.518,0.294 1.947,1.007 l 0.023,0 0,-0.837 1.053,0 0,5.684 L 0,2.922 0,0"
           id="path59992"
           style="fill:#01604b;fill-opacity:1;fill-rule:nonzero;stroke:none" />
      </g>
      <g
         transform="matrix(1.25,0,0,-1.25,275.05752,236.82352)"
         id="g59994">
        <path
           d="m 0,0 c 0,1.199 0.238,1.924 1.597,1.97 0.147,0 0.316,0 0.464,-0.057 l 0,1.019 c -0.125,0 -0.238,0.011 -0.373,0.011 -0.782,0 -1.507,-0.396 -1.665,-1.177 l -0.023,0 0,1.099 -1.076,0 0,-5.684 1.076,0 L 0,0"
           id="path59996"
           style="fill:#01604b;fill-opacity:1;fill-rule:nonzero;stroke:none" />
      </g>
      <g
         transform="matrix(1.25,0,0,-1.25,279.99877,236.62477)"
         id="g59998">
        <path
           d="M 0,0 C 0,0.894 0.339,2.094 1.596,2.094 2.763,2.094 3.193,1.098 3.193,0 3.193,-1.099 2.763,-2.095 1.596,-2.095 0.339,-2.095 0,-0.895 0,0 z m 3.193,1.856 c 0,-0.079 -0.147,0.249 -0.17,0.272 -0.351,0.521 -0.963,0.747 -1.517,0.747 -1.721,0 -2.639,-1.29 -2.639,-2.932 0,-1.596 0.691,-2.82 2.423,-2.82 0.703,0 1.529,0.283 1.869,0.963 l 0.034,0 C 3.159,-3.194 3.159,-4.461 1.63,-4.461 c -0.759,0 -1.279,0.294 -1.325,1.053 l -1.131,0 c 0.011,-1.314 0.883,-1.835 2.105,-1.835 2.084,0 2.989,0.85 2.989,2.933 l 0,3.997 c 0,0.34 0.034,0.679 0.068,1.019 l -1.11,0 -0.033,-0.85"
           id="path60000"
           style="fill:#01604b;fill-opacity:1;fill-rule:evenodd;stroke:none" />
      </g>
      <g
         transform="matrix(1.25,0,0,-1.25,221.67752,223.30727)"
         id="g60002">
        <path
           d="m 0,0 c -0.045,-1.835 1.2,-2.56 2.91,-2.56 1.653,0 3.317,0.657 3.317,2.514 0,2.061 -2.049,2.061 -3.555,2.548 -0.713,0.227 -1.37,0.282 -1.37,1.212 0,0.973 1.098,1.268 1.902,1.268 0.816,0 1.585,-0.317 1.63,-1.234 l 1.19,0 c 0,1.585 -1.37,2.208 -2.763,2.208 -1.529,0 -3.148,-0.657 -3.148,-2.435 0,-1.834 2.243,-2.139 3.59,-2.434 0.68,-0.136 1.336,-0.465 1.336,-1.257 0,-1.143 -1.133,-1.415 -2.061,-1.415 -1.099,0 -1.767,0.43 -1.789,1.585 L 0,0"
           id="path60004"
           style="fill:#01604b;fill-opacity:1;fill-rule:nonzero;stroke:none" />
      </g>
      <g
         transform="matrix(1.25,0,0,-1.25,230.38752,219.14727)"
         id="g60006">
        <path
           d="m 0,0 0,-0.804 0.974,0.011 0,-3.611 c 0,-0.759 0.057,-0.782 0.249,-1.054 0.181,-0.248 0.465,-0.339 0.634,-0.374 0.26,-0.045 0.464,-0.056 0.725,-0.056 0.249,0 0.487,0.056 0.736,0.068 l 0,0.827 c -0.17,-0.045 -0.396,-0.068 -0.566,-0.068 -0.385,0 -0.702,0.192 -0.702,0.6 l 0,3.668 1.314,-0.011 0,0.804 -1.314,-0.034 0,1.551 -1.076,-0.34 0,-1.211 L 0,0"
           id="path60008"
           style="fill:#01604b;fill-opacity:1;fill-rule:nonzero;stroke:none" />
      </g>
      <g
         transform="matrix(1.25,0,0,-1.25,240.35627,222.84102)"
         id="g60010">
        <path
           d="m 0,0 c 0.023,-1.053 -0.214,-2.151 -1.484,-2.151 -0.633,0 -1.12,0.35 -1.12,1.053 0,0.826 0.872,1.064 1.528,1.098 L 0,0 z m -0.973,0.747 c -1.348,0 -2.763,-0.464 -2.763,-2.06 0,-1.11 0.996,-1.62 1.981,-1.62 0.782,0 1.416,0.305 1.767,1.019 l 0.022,0 c 0.012,-0.26 0.034,-0.509 0.057,-0.769 0.012,-0.137 0.203,-0.08 0.306,-0.08 l 0.724,0 c -0.034,0.475 -0.045,0.951 -0.045,1.2 l 0,2.718 c 0,1.584 -1.155,1.935 -2.321,1.935 -1.121,0 -2.095,-0.441 -2.152,-1.687 l 1.133,0 C -2.253,1.993 -1.744,2.31 -1.2,2.31 -0.057,2.31 0,1.732 0,0.747 l -0.973,0"
           id="path60012"
           style="fill:#01604b;fill-opacity:1;fill-rule:evenodd;stroke:none" />
      </g>
      <g
         transform="matrix(1.25,0,0,-1.25,244.92752,222.72852)"
         id="g60014">
        <path
           d="M 0,0 C 0,1.065 0.317,2.254 1.608,2.254 2.831,2.254 3.215,1.031 3.215,0 3.215,-1.063 2.909,-2.275 1.608,-2.275 0.396,-2.275 0,-1.063 0,0 z m 3.204,2.061 -0.023,0 C 2.853,2.74 2.14,3.001 1.416,3.001 c -1.767,0 -2.548,-1.472 -2.548,-3.012 0,-1.46 0.667,-3.012 2.354,-3.012 0.828,0 1.575,0.284 1.959,1.076 l 0.023,0 0,-0.057 0.034,-0.848 1.098,0 C 4.313,-2.524 4.28,-2.185 4.28,-1.845 l 0,7.167 -1.076,0 0,-3.261"
           id="path60016"
           style="fill:#01604b;fill-opacity:1;fill-rule:evenodd;stroke:none" />
      </g>
      <g
         transform="matrix(1.25,0,0,-1.25,251.46127,219.14727)"
         id="g60018">
        <path
           d="m 0,0 0,-0.804 0.973,0.011 0,-3.611 c 0,-0.759 0.057,-0.782 0.25,-1.054 0.181,-0.248 0.464,-0.339 0.634,-0.374 0.26,-0.045 0.464,-0.056 0.725,-0.056 0.249,0 0.486,0.056 0.735,0.068 l 0,0.827 C 3.148,-5.038 2.921,-5.061 2.751,-5.061 c -0.385,0 -0.701,0.192 -0.701,0.6 l 0,3.668 1.312,-0.011 0,0.804 -1.312,-0.034 0,1.551 -1.077,-0.34 0,-1.211 L 0,0"
           id="path60020"
           style="fill:#01604b;fill-opacity:1;fill-rule:nonzero;stroke:none" />
      </g>
      <g
         transform="matrix(1.25,0,0,-1.25,174.57002,222.48102)"
         id="g60022">
        <path
           d="m 0,0 c 0,0 -0.027,-0.201 -0.048,-0.275 -0.021,-0.078 -0.036,-0.143 -0.059,-0.213 -0.026,-0.076 -0.074,-0.261 -0.074,-0.261 l -0.658,-1.98 -15.521,-41.488 4.677,0 c 0,0 5.213,14.696 5.796,16.372 l 18.746,0 -1.061,2.898 -16.695,-0.024 8.452,22.585 -0.568,1.547 C 2.914,-0.64 2.841,-0.463 2.765,-0.298 2.675,-0.102 2.58,0.075 2.473,0.246 2.295,0.532 2.087,0.796 1.803,1.117 1.562,1.39 1.36,1.596 1.145,1.779 0.94,1.955 0.718,2.112 0.427,2.3 0.064,2.546 -0.368,2.787 -0.544,2.866 -0.94,3.044 -1.356,3.239 -1.905,3.393 -2.188,3.471 -2.42,3.531 -2.644,3.576 -2.828,3.612 -3.032,3.583 -3.224,3.6 c -0.248,0.022 0.094,0.007 0.71,-0.135 0.293,-0.067 0.588,-0.173 0.806,-0.278 0.142,-0.069 0.273,-0.131 0.393,-0.193 0.11,-0.058 0.213,-0.115 0.309,-0.18 0.127,-0.082 0.245,-0.175 0.359,-0.292 0.073,-0.074 0.146,-0.157 0.219,-0.252 0.1,-0.134 0.17,-0.24 0.231,-0.357 0.046,-0.088 0.086,-0.18 0.131,-0.296 C -0.012,1.476 0.026,1.363 0.054,1.247 0.083,1.125 0.1,1.002 0.112,0.843 0.104,0.682 0.078,0.466 0.078,0.466 L 0.046,0.248 0,0"
           id="path60024"
           style="fill:#e01a2b;fill-opacity:1;fill-rule:nonzero;stroke:none" />
      </g>
      <g
         transform="matrix(1.25,0,0,-1.25,166.59877,215.93227)"
         id="g60026">
        <path
           d="m 0,0 13.417,0 18.91,-49.458 -7.149,10e-4 -15.165,41.488 -0.676,1.835 C 9.263,-5.935 9.191,-5.758 9.115,-5.593 9.025,-5.397 8.93,-5.22 8.822,-5.049 8.644,-4.763 8.432,-4.492 8.153,-4.177 7.908,-3.901 7.709,-3.698 7.495,-3.515 7.289,-3.34 7.068,-3.181 6.776,-2.994 6.414,-2.749 5.982,-2.507 5.806,-2.429 5.295,-2.2 4.993,-2.056 4.444,-1.902 4.162,-1.823 3.929,-1.763 3.705,-1.719 3.522,-1.682 3.345,-1.656 3.153,-1.64 2.905,-1.617 2.633,-1.61 2.288,-1.614 L 0,-1.611 0,0"
           id="path60028"
           style="fill:#01604b;fill-opacity:1;fill-rule:nonzero;stroke:none" />
      </g>
      <g
         transform="matrix(1.25,0,0,-1.25,154.23752,221.26602)"
         id="g60030">
        <path
           d="m 0,0 c 1.317,-1.365 2.367,-2.85 3.176,-4.427 0.084,-0.154 0.165,-0.311 0.24,-0.47 L -0.136,-8.45 -4.311,-4.311 0,0"
           id="path60032"
           style="fill:#01604b;fill-opacity:1;fill-rule:nonzero;stroke:none" />
      </g>
      <g
         transform="matrix(1.25,0,0,-1.25,-389.07998,1131.0485)"
         id="g60034">
        <g
           clip-path="url(#clipPath60038)"
           id="g60036">
          <g
             transform="translate(438.301,722.401)"
             id="g60042">
            <path
               d="M 0,0 C 0.858,-2.152 0.837,-4.574 -0.062,-6.714 L -3.402,-3.402 0,0"
               id="path60044"
               style="fill:#01604b;fill-opacity:1;fill-rule:nonzero;stroke:none" />
          </g>
          <g
             transform="translate(429.946,723.909)"
             id="g60046">
            <path
               d="M 0,0 -4.208,4.171 0.123,8.5 4.315,4.315 0,0"
               id="path60048"
               style="fill:#01604b;fill-opacity:1;fill-rule:nonzero;stroke:none" />
          </g>
        </g>
      </g>
      <g
         transform="matrix(1.25,0,0,-1.25,158.42127,237.08727)"
         id="g60050">
        <path
           d="m 0,0 c -0.416,-0.835 -0.971,-1.616 -1.667,-2.312 -0.761,-0.761 -1.625,-1.354 -2.547,-1.78 L -7.635,-0.702 -3.481,3.45 0,0"
           id="path60052"
           style="fill:#01604b;fill-opacity:1;fill-rule:nonzero;stroke:none" />
      </g>
      <g
         transform="matrix(1.25,0,0,-1.25,152.48752,242.48227)"
         id="g60054">
        <path
           d="M 0,0 C -2.077,-0.799 -4.395,-0.786 -6.464,0.038 L -3.265,3.237 0,0"
           id="path60056"
           style="fill:#01604b;fill-opacity:1;fill-rule:nonzero;stroke:none" />
      </g>
      <g
         transform="matrix(1.25,0,0,-1.25,143.74752,242.14727)"
         id="g60058">
        <path
           d="M 0,0 C -0.887,0.423 -1.719,1.002 -2.453,1.736 -3.175,2.459 -3.748,3.274 -4.167,4.145 L -0.828,7.484 3.346,3.346 0,0"
           id="path60060"
           style="fill:#01604b;fill-opacity:1;fill-rule:nonzero;stroke:none" />
      </g>
      <g
         transform="matrix(1.25,0,0,-1.25,-389.07998,1131.0485)"
         id="g60062">
        <g
           clip-path="url(#clipPath60066)"
           id="g60064">
          <g
             transform="translate(425.812,718.983)"
             id="g60070">
            <path
               d="M 0,0 4.152,4.153 8.327,0.015 4.174,-4.138 0,0"
               id="path60072"
               style="fill:#01604b;fill-opacity:1;fill-rule:nonzero;stroke:none" />
          </g>
          <g
             transform="translate(421.851,715.814)"
             id="g60074">
            <path
               d="M 0,0 C -0.823,2.052 -0.848,4.349 -0.073,6.415 L 3.185,3.184 0,0"
               id="path60076"
               style="fill:#01604b;fill-opacity:1;fill-rule:nonzero;stroke:none" />
          </g>
        </g>
      </g>
      <g
         transform="matrix(1.25,0,0,-1.25,138.41752,227.59602)"
         id="g60078">
        <path
           d="M 0,0 C 0.068,0.152 0.141,0.301 0.218,0.45 L 0.28,0.568 c 0.813,1.59 1.834,3.049 3.085,4.366 L 7.568,0.767 3.416,-3.386 0,0"
           id="path60080"
           style="fill:#01604b;fill-opacity:1;fill-rule:nonzero;stroke:none" />
      </g>
    </g>
  </g>
</svg>
