<?xml version="1.0" encoding="UTF-8" standalone="no"?>
<svg
   xmlns:dc="http://purl.org/dc/elements/1.1/"
   xmlns:cc="http://creativecommons.org/ns#"
   xmlns:rdf="http://www.w3.org/1999/02/22-rdf-syntax-ns#"
   xmlns:svg="http://www.w3.org/2000/svg"
   xmlns="http://www.w3.org/2000/svg"
   viewBox="0 0 314.6875 318.89999"
   height="318.89999"
   width="314.6875"
   xml:space="preserve"
   version="1.1"
   id="svg2"><metadata
     id="metadata8"><rdf:RDF><cc:Work
         rdf:about=""><dc:format>image/svg+xml</dc:format><dc:type
           rdf:resource="http://purl.org/dc/dcmitype/StillImage" /></cc:Work></rdf:RDF></metadata><defs
     id="defs6" /><g
     transform="matrix(1.25,0,0,-1.25,0,318.9)"
     id="g10"><g
       transform="scale(0.1,0.1)"
       id="g12"><path
         id="path14"
         style="fill:#231f20;fill-opacity:1;fill-rule:nonzero;stroke:none"
         d="m 1039.13,580.738 c -0.87,0 -1.29,-0.648 -1.29,-1.707 l 0,-31.769 c 0,-0.871 0.42,-1.5 1.52,-1.5 3.48,0 6.51,2.597 6.51,6.269 l 0,22.84 c 0,3.707 -3.25,5.867 -6.74,5.867" /><path
         id="path16"
         style="fill:#231f20;fill-opacity:1;fill-rule:nonzero;stroke:none"
         d="m 1229.64,630.559 c -1.1,0 -1.74,-0.637 -1.74,-1.969 l 0,-20.031 c 0,-1.481 0.45,-1.938 1.51,-1.938 5.23,0 5.23,6.109 5.23,16.098 0,5 -3.07,7.84 -5,7.84" /><path
         id="path18"
         style="fill:#231f20;fill-opacity:1;fill-rule:nonzero;stroke:none"
         d="m 1039.36,613.359 c 3.03,0 6.32,1.981 6.32,6.332 l 0,18.7 c 0,3.898 -3.71,5.648 -6.32,5.648 -0.87,0 -1.52,-0.461 -1.52,-1.289 l 0,-27.871 c 0,-0.867 0.65,-1.52 1.52,-1.52" /><path
         id="path20"
         style="fill:#231f20;fill-opacity:1;fill-rule:nonzero;stroke:none"
         d="m 2490.44,1745.55 c -68.12,0 -191.98,-121.14 -191.98,-121.14 0,0 -5.65,-70.38 104.18,-197.1 -92.94,47.85 -267.51,61.94 -267.51,61.94 l 1.89,23.55 c 4.09,-0.61 8.18,-1.25 12.27,-1.86 l -0.83,-10.45 c 34.67,-3.48 134.32,-15.26 213.41,-42.66 -79.66,105.17 -76.02,164.8 -75.8,167.6 0.23,2.95 1.56,5.75 3.72,7.84 4.27,4.19 87.83,85.37 157.68,114.44 -54.75,15.91 -112.18,23.21 -165.71,28.93 l -27.15,-255.4 28.48,267.74 c 66.67,-7.16 142.01,-17.07 209.65,-43.46 -0.79,0 -1.55,0.03 -2.3,0.03 z M 1985.81,1532.48 C 1969.34,1370.75 1933.87,1147.72 1857.58,945.551 1834.07,883 1804.5,819.129 1769.63,755.641 l -1021.825,0 C 712.934,819.172 683.363,883 659.855,945.512 583.645,1147.42 548.207,1370.03 531.66,1531.69 c -13.851,-1.63 -27.637,-3.34 -41.418,-5.04 245.332,30.63 503.875,46.34 771.618,46.34 263.84,0 518.72,-15.22 760.83,-44.97 -12.27,1.51 -24.54,3.02 -36.88,4.46 z m -549.38,-1016.332 0,157.223 c 0,1.559 1.1,2.84 2.39,2.84 l 36.76,0 c 1.51,0 2.6,-0.859 3.02,-2.602 l 13.07,-48.918 c 0.45,-1.75 1.09,-2.621 1.51,-2.621 0.65,0 1.32,0.871 1.32,2.852 l 0,48.449 c 0,1.559 1.07,2.84 2.62,2.84 l 32.6,0 c 1.74,0 2.84,-1.512 2.84,-3.02 l 0,-157.281 c 0,-1.469 -0.88,-2.789 -2.39,-2.789 l -40.66,0 c -0.88,0 -2.2,0.867 -2.42,2.16 l -9.54,39.141 c -0.46,2.187 -1.33,3.058 -1.97,3.058 -0.65,0 -1.1,-0.871 -1.1,-3.058 l 0,-38.512 c 0,-1.469 -1.29,-2.789 -2.8,-2.789 l -33.1,0 c -1.28,0 -2.15,1.32 -2.15,3.027 z m -50.46,0.223 0,157.688 c 0,1.05 0.87,2.152 1.96,2.152 l 37.18,0 c 1.55,0 2.61,-0.859 2.61,-2.152 l 0,-158.149 c 0,-1.281 -1.06,-2.789 -2.61,-2.789 l -36.31,0 c -1.51,0 -2.83,1.508 -2.83,3.25 z m -47.37,41.758 37.18,0 c 1.51,0 2.38,-1.098 2.38,-2.16 l 0,-40.469 c 0,-1.289 -1.09,-2.379 -2.38,-2.379 l -77.88,0 c -1.29,0 -2.38,1.32 -2.38,2.789 l 0,157.281 c 0,1.289 1.29,3.02 2.84,3.02 l 36.72,0 c 1.33,0 2.2,-1.102 2.2,-2.383 l 0,-114.187 c 0,-0.871 0.64,-1.512 1.32,-1.512 z m -56.56,-3.899 c 0,-2.621 1.09,-5.218 5.87,-7.199 1.09,-0.64 1.96,-2.152 1.96,-3.062 0,-29.528 -21.76,-31.309 -28.92,-31.309 -15.67,0 -26.09,10.91 -26.09,31.309 l 0,33.5 c 0,6.98 -3.06,10.453 -5.45,10.453 -1.28,0 -1.51,-1.094 -1.51,-2.602 l 0,-69.59 c 0,-1.289 -1.1,-2.609 -2.61,-2.609 l -37.18,0 c -1.52,0 -2.61,1.09 -2.61,2.789 l 0,157.699 c 0,1.5 1.09,2.602 2.38,2.602 l 48.5,0 c 19.12,0 41.95,-14.801 41.95,-41.301 0,-11.769 -2.16,-33.281 -22.83,-36.301 l 0,-0.461 c 26.54,-7.609 26.54,-21.769 26.54,-43.918 z m -144.4,63.079 17.19,0 c 0.87,0 1.52,-0.688 1.52,-1.547 l 0,-39.582 c 0,-1.09 -0.88,-1.961 -1.75,-1.961 l -17.6,0 c -0.87,0 -1.52,-0.641 -1.52,-1.75 l 0,-12.828 c 0,-0.871 0.65,-1.512 1.29,-1.512 l 37.63,0 c 1.52,0 2.39,-1.098 2.39,-2.16 l 0,-40.469 c 0,-1.289 -1.1,-2.379 -2.39,-2.379 l -77.87,0 c -1.29,0 -2.39,1.32 -2.39,2.789 l 0,157.461 c 0,1.328 1.33,2.84 2.84,2.84 l 77.2,0 c 1.32,0 2.19,-1.102 2.19,-2.383 l 0,-39.148 c 0,-1.328 -1.1,-2.2 -2.38,-2.2 l -36.35,0 c -0.87,0 -1.51,-0.64 -1.51,-1.511 l 0,-12.149 c 0,-0.91 0.87,-1.511 1.51,-1.511 z m -50.88,-56.981 c 0,-11.137 -0.23,-47.207 -45.21,-47.207 l -40.47,0 c -1.51,0 -2.154,1.09 -2.154,2.379 l 0,158.109 c 0,1.5 0.871,2.602 2.384,2.602 l 40.43,0 c 28.28,0 44.37,-21.082 44.37,-39.152 0,-13.047 -0.22,-33.039 -22.18,-39.778 l 0,-0.422 c 13.71,-5.031 22.83,-19.609 22.83,-36.531 z M 1258.72,147.09 c -42.56,35.051 -155.53,132.582 -277.892,275.73 l 555.732,0 C 1414.25,279.629 1301.27,182.141 1258.72,147.09 Z m -964.892,1376.76 -34.68,326.08 c 299.922,50.89 640.965,79.7 1002.712,79.7 361.78,0 702.83,-28.81 1002.75,-79.7 l -34.69,-326.08 c -291.39,47.29 -620.13,73.94 -968.06,73.94 -347.891,0 -676.626,-26.65 -968.032,-73.94 z m 1386.152,417.33 c -0.83,0.03 -1.7,0.11 -2.54,0.14 0.84,-0.03 1.71,-0.11 2.54,-0.14 z m 314.27,-27.95 c -7.95,33.89 -21.01,61.75 -42.55,64.29 -70.3,8.29 -162.31,24.84 -330.78,29.98 0,12.43 -1.06,27.95 0,51.68 199.48,-7.23 345.24,-29.19 369.77,-41.87 18.97,-9.77 50.17,-17.61 62.02,-111.15 4.73,-0.61 9.42,-1.21 14.16,-1.82 -24.05,3.11 -48.28,6.05 -72.62,8.89 z m -489.6,36.73 -2.87,193.95 -0.2,12.2 12.16,0.41 41.34,1.32 12.61,0.43 0.19,-12.65 2.91,-198.42 c -21.99,1.01 -44.06,1.93 -66.14,2.76 z m -293.82,191.83 -0.12,12.34 12.31,0.19 93.74,1.6 12.3,0.22 0.31,-12.34 4.23,-189.79 c 14.16,-0.15 28.36,-0.38 42.52,-0.61 l -2.76,189.8 -0.2,12.91 12.95,-0.34 49.26,-1.33 12.04,-0.31 0,-202.31 c 0.07,0 0.15,0 0.19,0 -61.71,1.7 -123.69,2.61 -185.74,2.61 -16.69,0 -33.35,-0.12 -50.05,-0.23 0.15,0 0.27,0 0.38,0 l -1.36,187.59 z m -48.47,1.03 -2.83,-189.26 c -23.86,-0.35 -47.71,-0.84 -71.52,-1.48 l 4.09,188.54 0.26,11.47 11.4,0.68 45.47,2.57 13.32,0.8 -0.19,-13.32 z m -128.45,-0.69 -4.17,-191.83 c -18.7,-0.64 -37.4,-1.36 -56.029,-2.16 0.078,0 0.191,0 0.266,0 l 0,201.94 11.168,1.14 35.095,3.52 13.97,1.4 -0.3,-14.01 z M 902.875,2007.5 c -168.512,-5.14 -260.512,-21.69 -330.812,-29.98 -21.504,-2.54 -34.606,-30.4 -42.555,-64.29 -20.106,-2.34 -40.059,-4.77 -59.934,-7.27 0.492,0.08 0.985,0.16 1.477,0.2 11.847,93.54 43.047,101.38 62.015,111.15 24.532,12.68 170.289,34.64 369.809,41.87 1.02,-23.73 0,-39.25 0,-51.68 z m -504.629,112.48 156.473,50.17 186.57,-58.15 154.469,-2.01 10.035,56.15 -6.023,14.04 4.015,38.13 -24.078,30.1 22.07,12 4.016,10.03 8.023,0 -2.003,30.1 -12.043,16.05 252.79,2.01 0,12.04 9.99,0 0,8.02 18.78,0 c -2.08,1.66 -5.15,4.09 -7.72,5.64 -4.17,2.5 -0.84,18.33 2.5,20 3.33,1.66 5.3,18.05 4.43,21.39 -0.83,3.36 -5.83,12.52 -8.33,20.02 -2.5,7.5 1.93,12.23 1.93,12.23 1.09,1.06 2.23,1.78 3.63,1.78 1.86,0 4.21,-1.25 7.5,-4.58 5.3,-5.26 7.49,-8.33 12.49,-15.82 5.04,-7.5 5.04,-8.34 8.33,-9.17 3.37,-0.83 7.54,-6.66 7.54,-9.99 0,-2.24 2.23,-3.75 4.2,-3.75 0.98,0 1.93,0.38 2.46,1.21 1.66,2.54 1.66,9.2 4.16,12.53 2.5,3.33 5,4.17 4.17,17.53 -0.84,13.29 9.5,15.22 13.78,18.32 4.58,3.34 3.75,7.5 3.75,12.5 0,4.99 1.66,8.36 4.99,10.86 3.34,2.46 5,0.8 9.17,9.17 4.16,8.33 -5,9.16 -5,12.49 0,3.33 -5,6.66 -6.66,9.2 -1.67,2.46 2.49,9.96 5.83,14.99 3.33,5 -3.34,7.5 -8.33,12.5 -5,4.99 -6.67,13.33 -6.67,13.33 0,0 18.33,-9.17 22.49,-10 0.15,-0.04 0.31,-0.04 0.46,-0.04 4.12,0 9.65,10.98 12.87,13.36 0.65,0.5 1.21,0.68 1.74,0.68 2.2,0 3.25,-3.63 3.25,-5.64 0,-2.53 -11.66,-17.52 -11.66,-20.9 0,-3.29 4.17,-8.32 7.5,-14.98 3.37,-6.67 -10,-11.66 -10,-11.66 0,0 6.67,-6.67 6.67,-10 0,-3.33 3.33,-4.16 5.83,-5.83 2.54,-1.71 8.37,-1.71 10.86,-4.21 2.5,-2.46 6.67,-14.16 6.67,-21.65 0,-7.49 5.83,-8.33 6.66,-12.49 0.83,-4.21 0,-15.04 2.5,-21.7 2.5,-6.66 6.66,-3.33 8.33,-8.32 1.37,-3.98 0.57,-9.55 1.86,-9.55 0.38,0 0.83,0.34 1.51,1.21 3.33,4.17 6.66,6.67 11.66,8.34 5,1.66 8.33,0.82 9.16,4.16 0.83,3.33 2.5,11.66 5,15.86 2.5,4.13 14.2,16.66 17.53,19.16 0.3,0.22 0.61,0.34 0.87,0.34 2.58,0 3.03,-9.58 0.79,-10.34 -2.49,-0.83 1.67,-20.86 1.67,-23.36 0,-0.6 -0.22,-0.83 -0.64,-0.83 -0.57,0 -1.48,0.46 -2.5,0.91 -1.06,0.42 -2.27,0.87 -3.41,0.87 -0.33,0 -0.65,-0.04 -0.98,-0.11 -3.34,-0.84 2.49,-16.7 0.87,-23.37 -1.67,-6.65 1.62,-4.99 4.99,-11.65 5.12,-10.26 -9.57,-13.07 -11.92,-20.86 1.71,0.11 21.09,0.37 21.09,0.22 l 0,-8.02 7.04,-7.01 255.74,0 -10,-23.09 2.02,-32.11 32.1,-12.04 -26.13,-38.08 0,-30.1 8.03,-2.01 -10.03,-10.03 12.04,-62.2 126.41,0 190.54,62.2 162.53,-52.17 -24.07,-18.06 -2.01,-32.1 5.57,-173.97 c -4.2,0.57 -8.29,1.17 -12.45,1.7 l -5.53,170.72 -0.08,1.17 0.08,1.17 1.66,26.35 0.72,11.43 9.16,6.89 0.3,0.24 -135.88,43.57 -184.82,-60.31 -3.71,-1.21 -138.68,0 -3.87,20.1 -8.82,45.62 -2.5,12.91 3.03,3.03 0,38.88 4.32,6.33 15,21.88 -9.78,3.67 -15.03,5.64 -1.01,16.02 -1.33,21.12 -0.38,5.98 2.38,5.49 1.29,2.95 -256.23,0 0,15.03 -16.13,0 7.38,28.85 -6.44,7.92 1.29,10.52 c 0,0.11 0.12,1.02 -0.26,3.71 l -0.23,1.51 -11.55,-2.8 -0.57,-0.18 c -0.14,-0.04 -0.42,-0.12 -0.64,-0.23 l -15.98,-7.12 -11.09,11.58 -9.77,4.77 -2.54,11.82 c -0.94,4.5 -1.21,9.23 -1.35,14.16 -0.08,0.98 -0.08,1.93 -0.16,2.76 l -6.78,6.85 -0.26,9.85 c -0.07,3.25 -1.59,8.86 -2.99,12.08 -0.15,0.03 -0.3,0.07 -0.46,0.1 l -0.18,0.04 -0.46,0.12 -1.52,0.42 -8.47,2.31 -11.1,-5.91 c 0,-0.15 -0.03,-0.46 -0.03,-0.87 l 0.03,-2.01 c 0,-0.04 0.04,-0.6 0.04,-1.17 l 0,-15.11 -13.74,-7.08 c -4.01,-2.08 -4.01,-2.23 -3.86,-4.73 0.46,-7.12 1.29,-20.44 -10.37,-29.04 l -14.81,-10.98 -14.57,10.34 -6.78,2.8 -1.33,2.08 c 0.08,-5.94 -1.25,-13.59 -2.34,-17.53 l -1.82,-6.36 -3.86,-3.86 c -0.46,-1.1 -0.99,-3.4 -1.06,-5.56 l -1.14,-23.63 -7.95,-0.15 0,-8.3 -9.99,0 0,-11.92 -24.61,-0.19 -216.366,-1.74 0.414,-6.66 0.91,-13.22 1.742,-26.46 -12.875,0 -2.574,-6.36 -7.797,-4.24 -5.191,-2.84 11.66,-14.58 6.363,-7.95 -1.058,-10.14 -3.149,-29.8 3.297,-7.65 2.953,-6.81 -1.328,-7.35 -7.566,-42.17 -3.672,-20.71 -21.051,0.27 -142.16,1.85 -3.602,0.04 -3.48,1.1 -181.082,56.45 -131.567,-42.18 6.899,-5.9 8.633,-7.42 0.031,-11.36 0,-10.38 -0.031,-0.8 -11.063,-178.54 c 0.039,0 0.117,0 0.153,0 -7.418,-0.98 -14.766,-2.04 -22.149,-3.07 3.184,0.46 6.289,0.91 9.469,1.33 l 11.207,181.08 0,16.02 -28.094,24.07 z M 2501.76,1768.61 c -70.42,27.49 -148.91,37.86 -216.03,45.02 l 3.56,33.69 c 1.4,13.02 -7.61,24.88 -20.52,27.07 -53.5,9.09 -108.28,17.38 -163.93,24.95 6.59,-0.91 13.18,-1.86 19.76,-2.77 -0.67,7.13 0.68,15.41 0.57,22.61 -0.35,20.37 -1.28,40.73 -1.97,61.11 -0.98,31.04 -1.97,62.12 -2.96,93.17 l 1.22,19.49 14.92,11.21 38.39,28.81 -45.7,14.66 -162.5,52.16 -7.64,2.42 -7.65,-2.45 -186.84,-60.96 -101.95,0 -5.64,29.15 0.72,0.73 30.97,31 -31.73,7.91 0,3.04 21.73,31.76 17.91,26.12 -29.64,11.13 -17.08,6.4 -0.65,10.1 7.66,17.57 15.1,34.72 -275.84,0 0,15.03 -9.2,0 c -0.57,2.35 -1.44,4.66 -2.58,6.97 -0.71,1.32 -1.4,2.57 -2.08,3.67 0,0.76 -0.04,1.47 -0.08,2.19 4.05,4.51 6.44,10.53 6.44,17.19 0,2.66 -0.34,4.96 -1.02,9.24 -0.27,1.63 -0.72,4.55 -1.06,7.08 1.85,5.26 2.42,11.36 1.36,17.8 -2.69,16.84 -15.26,24.38 -26.54,24.38 -5.67,0 -11.09,-1.82 -15.71,-5.27 -4.47,-3.33 -13.56,-12.72 -19.49,-20.14 -1.45,4.13 -3.61,7.27 -5.46,9.51 -1.32,10.9 -5.98,25.74 -13.55,33.31 -2.05,2.05 -4.25,3.64 -6.4,4.89 1.7,6.81 0.94,13.89 -2.31,20.36 -0.53,1.1 -1.1,2.16 -1.67,3.18 4.96,7.65 8.49,13.44 8.49,21.58 0,17.08 -12.35,30.44 -28.1,30.44 -5.95,0 -11.7,-1.93 -16.66,-5.64 -1.55,-1.17 -2.88,-2.42 -4.13,-3.75 -1.88,0.91 -3.82,1.86 -5.71,2.8 0,0 -24.38,14.43 -33.69,4.36 -9.32,-10.07 -1.71,-31.43 -1.71,-31.43 0.65,-3.25 3.22,-13.7 10.49,-22.71 -2.84,-8.1 -3.79,-17.83 2.38,-27.03 0.68,-1.06 1.4,-2.05 2.16,-2.92 -4.2,-4.88 -7.88,-11.73 -8.67,-21.09 -6.13,-4.23 -10.67,-9.27 -13.63,-15.1 -1.51,1.7 -3.14,3.44 -5.07,5.38 -2.88,2.91 -11.77,11.81 -25.03,11.81 -5.52,0 -13.66,-1.55 -21.61,-9.54 -6.78,-7.16 -12.8,-21.17 -7.46,-37.1 1.74,-5.31 4.16,-10.57 6.09,-14.81 0.34,-0.76 0.68,-1.48 0.99,-2.12 -0.12,-0.79 -0.19,-1.66 -0.35,-2.46 -3.59,-4.69 -5.71,-10.15 -6.92,-15.03 l -10.76,0 0,-7.99 -10.03,0 0,-12.26 -228.142,-1.82 -49.14,-0.38 29.496,-39.3 7.609,-10.14 -4.77,-11.89 -0.722,-1.75 -14.196,-7.75 -26.007,-14.16 18.511,-23.14 17.676,-22.11 -2.945,-28.01 -0.649,-6.4 2.539,-5.95 3.102,-7.23 -5.031,-28.13 -129.821,1.71 -183.128,57.09 -7.497,2.31 -7.457,-2.39 -156.472,-50.16 -42.293,-13.55 33.734,-28.89 19.387,-16.66 0,-3.86 -11.438,-185.33 c -45.73,-6.47 -90.863,-13.39 -135.082,-20.93 -12.91,-2.19 -21.918,-14.05 -20.519,-27.07 l 7.461,-70.03 c -55.278,-5.8 -114.985,-13.07 -171.8479,-29.58 69.8559,-29.07 153.4449,-110.25 157.7269,-114.44 2.117,-2.09 3.445,-4.89 3.672,-7.88 0.222,-2.76 3.859,-62.39 -75.797,-167.56 79.09,27.4 178.734,39.18 213.414,42.66 l -0.754,9.5 c -23.59,-3.48 -47.25,-6.85 -70.535,-10.64 32.445,5.27 65.308,10.15 98.316,14.85 -5.144,-0.8 -10.293,-1.59 -15.48,-2.35 l 1.82,-22.6 c 0,0 -174.609,-14.09 -267.52,-61.94 109.793,126.72 104.192,197.1 104.192,197.1 0,0 -123.9142,121.14 -192.0236,121.14 -0.7578,0 -1.5156,-0.03 -2.2696,-0.03 69.6954,27.18 147.6092,36.91 215.7622,44.1 l -2.614,24.65 c -68.484,-7.19 -149.5857,-17.34 -222.1989,-45.66 -11.28129,-4.39 -17.75785,-16.32 -15.25785,-28.21 2.42188,-11.5 12.60935,-19.72 24.26955,-19.72 0.3398,0 0.7187,0 1.0586,0.04 l 1.25,0.03 c 39.75,-0.03 119.6716,-62.2 166.5036,-106.27 -3.066,-20.89 -18.664,-80.07 -97.4099,-170.93 -7.8008,-8.97 -8.1015,-22.22 -0.7578,-31.57 4.8087,-6.18 12.0777,-9.47 19.4957,-9.47 3.864,0 7.723,0.87 11.36,2.73 87.383,45.01 256.465,59.13 258.129,59.28 13.668,1.1 23.851,13.07 22.754,26.73 l -1.969,24.31 c 25.476,3.59 51.301,6.82 77.043,10.07 C 499.18,1359.81 535.41,1134.95 613.402,928.059 782.781,478.852 1167.82,155.949 1243.27,95.7891 l 7.73,-6.1289 7.68,-6.1016 7.73,6.1016 7.71,6.1015 c 75.5,60.2263 460.57,383.1293 629.87,832.2973 78.11,207.201 114.38,432.471 131.22,598.361 15.19,-1.89 30.33,-3.82 45.4,-5.83 -22.15,-171.65 -62.47,-380.37 -135.95,-575.27 C 1764.37,466.359 1354.2,110.219 1258.72,31.8906 1163.23,110.141 753.219,466.059 572.777,945.352 499.441,1139.8 459.125,1348.18 436.938,1519.72 c -8.098,-1.09 -16.317,-2.08 -24.379,-3.17 C 434.895,1343.9 475.48,1132.99 549.57,936.609 747.008,412.141 1217.37,32.7617 1258.72,0 c 41.34,32.7617 511.71,412.141 709.14,936.609 74.21,196.681 114.87,408.051 137.17,580.841 8.71,-1.21 17.33,-2.53 26.01,-3.78 -6.22,0.94 -12.38,1.93 -18.63,2.8 l -2.04,-25.22 c -1.1,-13.66 9.08,-25.63 22.76,-26.73 1.66,-0.15 170.74,-14.27 258.12,-59.28 3.63,-1.86 7.49,-2.73 11.36,-2.73 7.41,0 14.68,3.29 19.53,9.47 7.34,9.35 7,22.6 -0.75,31.57 -78.79,90.86 -94.36,150.04 -97.43,170.93 46.84,44.07 126.72,106.27 166.48,106.27 l 1.25,-0.03 c 0.38,-0.04 0.71,-0.04 1.05,-0.04 11.7,0 21.85,8.22 24.27,19.72 2.5,11.89 -3.97,23.82 -15.25,28.21" /><path
         id="path22"
         style="fill:#231f20;fill-opacity:1;fill-rule:nonzero;stroke:none"
         d="m 1246.3,1796.55 c -0.04,16.09 -0.04,24.12 -0.11,40.21 0,1.33 0.79,2.23 2.27,2.23 42.66,0.12 63.98,0 106.61,-0.56 1.75,-0.04 3.25,-0.95 3.25,-2.77 -0.22,-15.86 -0.33,-23.81 -0.57,-39.71 -0.04,-1.78 -1.55,-3.11 -3.55,-3.07 -9.88,0.11 -14.81,0.15 -24.69,0.27 -1.74,0 -2.99,-1.14 -3.03,-3.15 -0.44,-47.02 -0.6,-70.53 -1.05,-117.55 0,-1.59 -1.48,-2.91 -3.45,-2.91 -16.51,0.15 -24.76,0.18 -41.31,0.22 -1.66,0 -3.37,1.37 -3.37,3.18 0.08,47.1 0.12,70.65 0.2,117.78 0,1.59 -1.48,2.73 -3.22,2.73 -9.89,0 -14.85,0 -24.72,-0.04 -1.48,0 -3.26,1.82 -3.26,3.14 z m -10.87,-3.18 c -9.92,-0.04 -14.87,-0.08 -24.8,-0.15 -1.7,-0.04 -2.95,-1.18 -2.91,-3.22 0.38,-47.02 0.61,-70.53 1.02,-117.55 0.04,-1.55 -1.44,-2.91 -3.37,-2.95 -16.5,-0.16 -24.75,-0.27 -41.26,-0.53 -1.71,-0.04 -3.45,1.28 -3.48,3.1 -0.77,47.1 -1.14,70.65 -1.9,117.78 -0.04,1.56 -1.51,2.69 -3.26,2.69 -9.91,-0.19 -14.87,-0.27 -24.76,-0.46 -1.47,-0.04 -3.21,1.71 -3.25,3.07 -0.34,16.05 -0.53,24.12 -0.87,40.17 -0.04,1.36 0.71,2.27 2.19,2.31 42.67,0.87 64.02,1.13 106.69,1.32 1.71,0 3.22,-0.86 3.22,-2.68 0.07,-15.91 0.11,-23.86 0.19,-39.72 0,-1.82 -1.52,-3.18 -3.45,-3.18 z m -95.18,-124.82 c -15.71,-0.3 -23.58,-0.49 -39.29,-0.87 -1.48,-0.04 -2.96,0.83 -3.26,2.16 -2.27,13.51 -3.44,20.21 -5.76,33.69 -0.26,1.14 -1.24,1.78 -2.46,1.78 -5.3,-0.15 -7.95,-0.23 -13.21,-0.38 -0.94,-0.04 -1.93,-0.94 -2.12,-2.31 -1.47,-13.32 -2.2,-19.99 -3.63,-33.32 -0.19,-1.58 -1.86,-2.53 -3.07,-2.57 -16.05,-0.49 -24.08,-0.75 -40.09,-1.36 -2.16,-0.07 -3.45,1.47 -3.03,3.71 10.56,65.53 16.05,98.28 27.3,163.78 0.23,1.14 1.4,2.76 2.87,2.8 19.46,0.61 29.15,0.91 48.62,1.36 1.73,0.04 3.02,-1.29 3.29,-2.88 15.22,-64.17 22.6,-96.27 37.14,-160.55 0.53,-2.46 -0.61,-5 -3.3,-5.04 z m -136.48,-4.09 c -16.504,-0.68 -24.723,-1.06 -41.231,-1.82 -1.699,-0.07 -3.441,1.22 -3.516,3.03 -2.238,47.06 -3.371,70.57 -5.605,117.67 -0.078,1.55 -1.594,2.65 -3.328,2.57 -9.922,-0.49 -14.848,-0.75 -24.762,-1.25 -1.48,-0.07 -3.297,1.63 -3.371,3 -0.797,16.05 -1.25,24.07 -2.086,40.13 -0.07,1.36 0.649,2.27 2.121,2.35 42.633,2.23 63.985,3.13 106.618,4.65 1.74,0.08 3.26,-0.79 3.33,-2.58 0.53,-15.89 0.83,-23.85 1.36,-39.71 0.08,-1.81 -1.36,-3.18 -3.33,-3.25 -9.92,-0.38 -14.84,-0.54 -24.72,-0.95 -1.74,-0.04 -2.92,-1.25 -2.84,-3.3 1.85,-46.98 2.8,-70.45 4.69,-117.47 0.08,-1.55 -1.36,-2.99 -3.33,-3.07 z M 870.09,1657 c -36.836,-2.23 -55.578,21.28 -58.078,57.28 -0.074,1.1 0.836,2.31 2.801,2.43 13.48,1.58 20.214,2.34 33.699,3.86 1.703,0.07 2.761,-0.76 3.097,-2.77 1.633,-8.89 6.325,-18.36 12.196,-18.01 3.406,0.22 5.492,2.38 5.187,7.57 -0.34,5.41 -14.652,14.46 -31.879,25.55 -17.226,11.09 -26.539,27.41 -27.601,42.71 -1.586,22.98 15.601,49.33 48.957,51.37 33.351,2.05 55.269,-20.56 56.711,-47.4 0.074,-1.55 -0.832,-2.99 -2.801,-3.06 -15.109,-1.48 -22.645,-2.2 -37.711,-3.75 -1.477,-0.08 -2.496,0.56 -3.102,2.35 -1.82,5.29 -4.464,7.87 -7.914,7.64 -2.461,-0.15 -3.593,-2 -3.449,-4.28 0.461,-7.23 12.535,-14.65 27.832,-22.98 16.543,-9.01 29.492,-24.61 30.363,-41.26 1.625,-30.21 -16.507,-55.32 -48.308,-57.25 z m -64.856,-3.59 c -18.132,-1.29 -27.183,-1.97 -45.316,-3.41 -0.98,-0.07 -2.496,0.75 -2.84,2.08 -5.562,15.86 -8.328,23.78 -13.933,39.6 -0.68,2.23 -1.7,3.07 -2.461,2.99 -0.719,-0.07 -1.133,-0.98 -0.95,-3.25 1.289,-15.9 1.938,-23.85 3.227,-39.79 0.109,-1.59 -1.215,-3.07 -2.922,-3.22 -14.726,-1.18 -22.109,-1.82 -36.836,-3.11 -1.473,-0.11 -2.535,1.14 -2.683,2.95 -5.68,65.01 -8.524,97.54 -14.204,162.54 -0.148,1.59 0.989,3.03 2.461,3.18 16.813,1.43 25.215,2.16 42.028,3.52 1.738,0.11 3.066,-0.68 3.707,-2.42 7.574,-19.8 11.355,-29.69 18.855,-49.45 0.649,-1.78 1.438,-2.61 1.93,-2.57 0.719,0.04 1.402,1.02 1.25,3.03 -1.551,20.06 -2.348,30.1 -3.902,50.16 -0.11,1.59 1.066,3.06 2.804,3.18 14.918,1.13 22.379,1.7 37.293,2.76 1.969,0.16 3.332,-1.32 3.446,-2.91 4.617,-65.12 6.925,-97.64 11.507,-162.76 0.118,-1.59 -0.793,-2.99 -2.461,-3.1 z m -116.836,-9.39 c -18.093,-1.59 -27.175,-2.47 -45.277,-4.21 -0.98,-0.11 -2.496,0.69 -2.879,2.01 -5.828,15.75 -8.742,23.62 -14.652,39.38 -0.719,2.19 -1.777,2.98 -2.492,2.91 -0.727,-0.07 -1.141,-1.02 -0.91,-3.26 1.585,-15.9 2.382,-23.85 3.933,-39.75 0.152,-1.59 -1.172,-3.06 -2.84,-3.22 -14.726,-1.47 -22.07,-2.23 -36.797,-3.79 -1.441,-0.14 -2.539,1.11 -2.722,2.93 -6.899,64.88 -10.305,97.33 -17.157,162.22 -0.187,1.55 0.911,3.03 2.426,3.18 16.77,1.78 25.18,2.65 41.946,4.32 1.742,0.15 3.105,-0.61 3.75,-2.39 7.949,-19.61 11.89,-29.42 19.726,-49.06 0.68,-1.79 1.516,-2.58 2,-2.54 0.766,0.07 1.406,1.02 1.219,3.06 -1.934,20.03 -2.875,30.07 -4.774,50.09 -0.148,1.55 0.95,3.07 2.688,3.23 14.918,1.43 22.34,2.07 37.258,3.44 1.965,0.15 3.367,-1.33 3.519,-2.88 5.789,-65 8.633,-97.49 14.422,-162.49 0.153,-1.59 -0.68,-3.03 -2.387,-3.18 z m -112.855,-11.1 c -15.676,-1.66 -23.473,-2.5 -39.148,-4.28 -1.438,-0.19 -2.993,0.57 -3.407,1.9 -3.445,13.21 -5.183,19.84 -8.672,33.05 -0.375,1.1 -1.433,1.67 -2.644,1.52 -5.227,-0.61 -7.879,-0.92 -13.141,-1.52 -0.949,-0.11 -1.816,-1.1 -1.89,-2.5 -0.301,-13.4 -0.493,-20.07 -0.762,-33.47 -0.074,-1.58 -1.625,-2.69 -2.836,-2.83 -15.941,-1.9 -23.934,-2.88 -39.867,-4.86 -2.16,-0.3 -3.598,1.14 -3.371,3.41 4.847,66.22 7.461,99.31 12.988,165.53 0.113,1.13 1.172,2.87 2.645,3.06 19.347,2.31 29.042,3.45 48.39,5.61 1.738,0.19 3.141,-1.02 3.555,-2.58 20.754,-62.62 30.933,-93.97 51.035,-156.73 0.762,-2.39 -0.188,-5 -2.875,-5.31 z m -171.695,-21.35 c -33.543,-4.51 -56.332,20.71 -60.879,52.66 -2.535,17.76 -3.785,26.66 -6.321,44.41 -5.793,40.66 11.848,67.43 45.774,71.97 36.191,4.85 58.723,-20.66 62.769,-52.89 0.754,-6.02 0.872,-6.7 -1.324,-6.97 -18.097,-2.91 -27.148,-4.38 -45.207,-7.45 -2.195,-0.26 -4.617,1.25 -5,3.9 -0.715,5.64 -1.094,8.48 -1.847,14.12 -0.418,3.11 -2.575,3.98 -4.508,3.71 -2.008,-0.26 -3.75,-2.08 -3.41,-4.54 3.75,-27.83 5.609,-41.72 9.351,-69.55 0.305,-2.28 2.199,-3.56 4.395,-3.3 2.422,0.35 3.672,2.31 3.371,4.55 -1.211,9.05 -1.782,13.56 -2.992,22.6 -0.188,1.37 0.492,3.44 2.5,3.48 18.546,1.86 27.785,2.77 46.335,4.43 1.25,0.16 2.086,-0.64 2.2,-1.55 6.773,-53.95 -14.809,-75.49 -45.207,-79.58 z m 963.222,223.75 c 0.04,1.36 1.51,2.91 3.26,2.88 35.39,-0.53 53.08,-0.95 88.44,-1.97 1.47,-0.04 2.42,-1.21 2.42,-2.53 -0.5,-16.25 -0.72,-24.39 -1.21,-40.63 -0.04,-1.36 -1.25,-2.2 -2.72,-2.16 -16.56,0.46 -24.81,0.68 -41.35,1.06 -0.99,0 -1.74,-0.65 -1.78,-1.55 -0.12,-5.04 -0.15,-7.58 -0.3,-12.64 0,-0.92 0.98,-1.6 1.7,-1.64 7.8,-0.15 11.7,-0.26 19.5,-0.45 0.99,-0.04 1.74,-0.72 1.7,-1.62 -0.41,-16.44 -0.64,-24.65 -1.06,-41.04 0,-1.14 -1.02,-2.01 -2.01,-1.97 -7.95,0.18 -11.92,0.26 -19.87,0.45 -0.95,0 -1.74,-0.64 -1.74,-1.78 -0.16,-5.3 -0.19,-7.99 -0.3,-13.29 0,-0.91 0.67,-1.59 1.39,-1.63 16.97,-0.37 25.41,-0.56 42.33,-1.06 1.71,-0.07 2.66,-1.21 2.62,-2.34 -0.53,-16.78 -0.73,-25.18 -1.21,-41.95 -0.04,-1.37 -1.29,-2.46 -2.73,-2.42 -34.79,1.02 -52.18,1.4 -86.96,1.96 -1.49,0 -2.66,1.36 -2.62,2.96 0.99,65.34 1.51,98.01 2.5,163.36 z m 104.61,-2.2 c 0.04,1.59 1.32,2.69 2.83,2.65 22.23,-0.71 33.32,-1.09 55.55,-1.96 21.91,-0.88 47.32,-17.42 46.03,-44.9 -0.56,-12.2 -4.09,-34.38 -27.59,-36.5 -0.04,-0.19 0,-0.27 0,-0.45 29.67,-9.21 28.92,-23.93 27.82,-46.91 -0.11,-2.73 1.51,-5.31 6.25,-7.76 1.13,-0.61 2.08,-2.36 2.04,-3.26 -1.48,-30.67 -25.9,-31.31 -33.89,-30.97 -17.49,0.76 -28.65,12.49 -27.82,33.7 0.53,13.89 0.83,20.81 1.4,34.71 0.31,7.19 -3.03,10.98 -5.72,11.06 -1.51,0.07 -1.77,-1.06 -1.85,-2.62 -1.1,-28.88 -1.67,-43.3 -2.77,-72.15 -0.03,-1.37 -1.32,-2.69 -3.02,-2.62 -16.58,0.65 -24.88,0.91 -41.5,1.44 -1.71,0.04 -2.88,1.21 -2.8,3.03 2.01,65.38 2.99,98.09 5.04,163.51 z m 175.82,-7.3 c 0.07,1.14 1.17,2.23 2.38,2.16 16.97,-0.99 25.4,-1.52 42.33,-2.62 1.97,-0.11 3.18,-1.09 3.06,-2.42 -0.98,-15.67 -1.47,-23.55 -2.5,-39.22 -0.07,-0.91 0.16,-1.59 0.65,-1.63 0.46,0 0.98,0.38 1.55,1.48 4.88,15.52 7.38,23.28 12.31,38.77 0.56,1.09 1.59,1.96 2.84,1.85 17.53,-1.17 26.31,-1.78 43.8,-3.07 0.98,-0.07 1.71,-0.8 1.63,-1.93 -0.04,-0.45 -0.08,-0.9 -0.38,-1.33 -14.84,-28.88 -22.15,-43.34 -36.68,-72.27 -0.54,-0.87 -0.91,-2.42 -0.95,-2.87 -0.04,-0.46 0.11,-1.82 0.34,-2.5 10.56,-34.3 15.74,-51.45 25.97,-85.79 0.38,-1.4 -0.15,-2.27 -1.59,-2.16 -17.88,1.33 -26.77,1.93 -44.6,3.14 -0.98,0.04 -1.66,0.79 -1.86,1.93 -2.49,18.18 -3.78,27.26 -6.32,45.44 -0.14,1.09 -0.6,1.58 -1.09,1.62 -0.46,0.04 -0.8,-0.64 -0.88,-1.74 -1.13,-17.38 -1.66,-26.09 -2.8,-43.46 -0.07,-1.36 -1.66,-2.84 -3.33,-2.73 -16.2,1.02 -24.31,1.52 -40.51,2.46 -1.48,0.08 -2.84,1.75 -2.73,3.56 3.75,65.35 5.61,98.02 9.36,163.33 z m 117.17,-5.5 c 16.92,-1.28 25.37,-1.92 42.25,-3.28 1.48,-0.16 2.69,-1.14 2.54,-2.73 -3.75,-45.7 -5.64,-68.52 -9.39,-114.22 -0.23,-2.96 0.87,-5.08 3.79,-5.34 2.95,-0.23 4.27,1.7 4.5,4.39 3.83,45.88 5.76,68.83 9.58,114.72 0.12,1.13 1.4,2.15 2.88,2.04 16.85,-1.44 25.25,-2.16 42.06,-3.67 1.25,-0.12 2.65,-0.95 2.5,-2.5 -4.35,-48.2 -6.51,-72.28 -10.87,-120.43 -2.2,-23.86 -22.56,-44.18 -54.55,-41.53 -32.23,2.64 -48.77,26.23 -46.99,49.86 3.6,48.16 5.42,72.23 9.01,120.42 0.12,1.56 1.17,2.39 2.69,2.27 z m 113.58,-9.53 c 22.19,-2.05 33.27,-3.11 55.42,-5.34 21.85,-2.2 46.35,-20.25 43.35,-47.63 -1.28,-12.11 -6.2,-34 -29.83,-34.71 0,-0.2 0,-0.27 -0.03,-0.46 29.11,-10.98 27.44,-25.63 24.94,-48.5 -0.26,-2.72 1.22,-5.37 5.76,-8.13 1.13,-0.65 2,-2.5 1.89,-3.38 -3.36,-30.51 -27.75,-29.68 -35.74,-28.85 -17.41,1.86 -27.9,14.24 -25.78,35.32 1.36,13.86 2.12,20.76 3.52,34.57 0.72,7.2 -2.38,11.13 -5.11,11.4 -1.43,0.15 -1.78,-0.95 -1.93,-2.5 -2.84,-28.73 -4.32,-43.12 -7.19,-71.86 -0.12,-1.36 -1.45,-2.61 -3.14,-2.42 -16.55,1.63 -24.84,2.42 -41.42,3.97 -1.71,0.16 -2.76,1.37 -2.62,3.18 6.03,65.16 8.98,97.76 14.99,162.91 0.12,1.55 1.45,2.58 2.92,2.43 z m 106.39,-10.64 c 17.75,-1.94 26.61,-2.95 44.36,-5 1.49,-0.15 2.7,-0.98 2.73,-2.58 1.82,-28.65 2.69,-42.96 4.35,-71.62 0.12,-1.14 0.8,-1.9 1.03,-1.93 0.53,-0.08 1.33,0.52 1.43,1.62 7.43,27.3 11.18,40.97 18.67,68.23 0.68,1.51 1.82,2.76 3.26,2.57 17.07,-2.04 25.62,-3.1 42.66,-5.26 1.52,-0.19 2.36,-1.66 1.9,-3.22 -22.03,-63.15 -32.86,-94.73 -54.22,-158.07 -0.45,-1.55 -1.78,-2.53 -3.48,-2.34 -18.81,2.31 -28.25,3.41 -47.1,5.56 -1.47,0.16 -2.5,1.86 -2.61,3.03 -5.68,66.68 -8.7,100.03 -14.99,166.7 -0.11,1.17 0.5,2.46 2.01,2.31 z m 128.94,-15.3 c 35.18,-4.5 52.82,-6.89 87.95,-11.88 1.48,-0.19 2.31,-1.44 2.08,-2.81 -2.26,-16.05 -3.4,-24.11 -5.71,-40.21 -0.19,-1.32 -1.55,-2.04 -3.03,-1.84 -16.39,2.34 -24.61,3.48 -41.08,5.71 -0.95,0.11 -1.78,-0.46 -1.9,-1.37 -0.67,-4.99 -1.01,-7.49 -1.66,-12.52 -0.15,-0.88 0.73,-1.71 1.48,-1.78 7.72,-1.07 11.62,-1.6 19.38,-2.65 0.99,-0.16 1.63,-0.91 1.48,-1.82 -2.24,-16.29 -3.33,-24.38 -5.61,-40.66 -0.14,-1.14 -1.24,-1.89 -2.22,-1.75 -7.92,1.1 -11.86,1.63 -19.77,2.69 -0.95,0.15 -1.78,-0.41 -1.93,-1.55 -0.72,-5.26 -1.06,-7.91 -1.78,-13.17 -0.12,-0.91 0.53,-1.67 1.25,-1.79 16.85,-2.27 25.21,-3.4 42.02,-5.79 1.71,-0.26 2.5,-1.51 2.35,-2.65 -2.35,-16.62 -3.56,-24.9 -5.94,-41.53 -0.2,-1.32 -1.52,-2.27 -2.95,-2.08 -34.53,4.89 -51.8,7.23 -86.4,11.66 -1.44,0.19 -2.5,1.7 -2.31,3.26 8.29,64.81 12.46,97.18 20.75,162.04 0.15,1.32 1.82,2.72 3.55,2.49 z m 105.4,-246.69 32.07,301.48 c -303.78,50.76 -645.5,77.57 -989.19,77.57 -343.653,0 -685.333,-26.81 -989.157,-77.57 l 32.067,-301.48 c 299.285,47.82 621.199,72.05 957.09,72.05 335.92,0 657.85,-24.23 957.12,-72.05" /><path
         id="path24"
         style="fill:#231f20;fill-opacity:1;fill-rule:nonzero;stroke:none"
         d="m 1519.31,1761.95 c 5.9,-0.23 6.17,6.06 6.58,16.43 0.19,5.19 -3.14,8.25 -5.37,8.37 -1.25,0.04 -2.01,-0.65 -2.08,-1.97 -0.31,-8.33 -0.46,-12.46 -0.76,-20.75 -0.08,-1.55 0.38,-2.05 1.63,-2.08" /><path
         id="path26"
         style="fill:#231f20;fill-opacity:1;fill-rule:nonzero;stroke:none"
         d="m 1918.57,1734.43 c 5.9,-0.61 6.55,5.67 7.57,16.01 0.53,5.15 -2.64,8.41 -4.84,8.63 -1.25,0.11 -2.01,-0.49 -2.16,-1.82 -0.84,-8.29 -1.25,-12.41 -2.09,-20.66 -0.15,-1.56 0.27,-2.05 1.52,-2.16" /><path
         id="path28"
         style="fill:#231f20;fill-opacity:1;fill-rule:nonzero;stroke:none"
         d="m 511.746,1710.54 c -0.828,3.1 -1.59,5.03 -2.308,4.96 -0.715,-0.12 -1.059,-1.71 -1.137,-5.38 -0.266,-8.63 -0.414,-12.99 -0.68,-21.66 -0.109,-1.17 0.492,-2.19 1.703,-2.04 7.801,0.87 8.559,0.99 8.071,2.95 -2.239,8.49 -3.372,12.68 -5.649,21.17" /><path
         id="path30"
         style="fill:#231f20;fill-opacity:1;fill-rule:nonzero;stroke:none"
         d="m 1081.68,1756.57 c -0.75,-0.03 -1.17,-1.62 -1.58,-5.26 -1.03,-8.59 -1.56,-12.91 -2.58,-21.5 -0.23,-1.18 0.3,-2.28 1.51,-2.24 7.88,0.23 8.6,0.27 8.29,2.27 -1.51,8.64 -2.27,12.95 -3.78,21.59 -0.57,3.13 -1.14,5.14 -1.86,5.14" /><path
         id="path32"
         style="fill:#231f20;fill-opacity:1;fill-rule:nonzero;stroke:none"
         d="m 1210.41,337.379 c 0,2.383 1.21,3.742 3.18,3.742 1.97,0 3.18,-1.359 3.18,-3.941 l 0,-58.039 c 0,-2.571 -1.4,-3.93 -3.18,-3.93 -1.97,0 -3.18,1.359 -3.18,3.93 l 0,58.238 z m 2.99,-102.758 c 24.53,0 41.38,18.399 41.38,43.731 l 0,59.589 c 0,24.758 -16.62,43.161 -41.38,43.161 -24.76,0 -41,-18.403 -41,-43.161 l 0,-59.589 c 0,-25.332 16.24,-43.731 41,-43.731" /><path
         id="path34"
         style="fill:#231f20;fill-opacity:1;fill-rule:nonzero;stroke:none"
         d="m 1298.69,292.809 c 0,2.39 1.59,3.793 3.15,3.793 1.63,0 3.37,-1.602 3.37,-3.793 l 0,-13.25 c 0,-2.387 -1.56,-3.981 -3.14,-3.981 -1.79,0 -3.38,1.594 -3.38,3.981 l 0,13.25 z m 0,46.953 c 0,2.34 1.59,3.75 3.15,3.75 1.63,0 3.37,-1.59 3.37,-3.75 l 0,-12.313 c 0,-1.59 -1.56,-2.379 -3.37,-2.379 -1.97,0 -3.15,0.789 -3.15,2.379 l 0,12.313 z m -22.18,-31.313 c -8.48,-4.738 -16.01,-13.668 -16.01,-30.859 0,-27.75 18.02,-42.969 41.34,-42.969 23.39,0 41.79,15.219 41.79,42.969 0,17 -10.1,27.48 -18.01,30.859 -1.6,0.61 -2.58,1.172 -2.58,1.582 0,0.418 0.8,0.989 2.19,1.59 7.69,3.57 16.63,14.66 16.63,30.859 0,23.782 -16.43,38.622 -40.02,38.622 -23.51,0 -39.76,-14.43 -39.76,-37.411 0,-16.8 5.54,-26.543 14.66,-31.461 1.97,-1.019 2.58,-1.402 2.58,-1.781 0,-0.219 -0.61,-0.828 -2.81,-2" /><path
         id="path36"
         style="fill:#231f20;fill-opacity:1;fill-rule:nonzero;stroke:none"
         d="m 1174.9,1211.85 c -6.4,13.21 -15.87,38.5 -7.35,69.7 7.57,28.28 45.58,46.49 45.58,46.49 l -0.68,9.2 c 0,0 -27.14,-3.03 -53.91,9.92 -23.36,11.62 -37.29,34.23 -49.56,45.77 -15.14,14.05 -21.99,13.29 -21.99,13.29 0,0 -12.46,-1.63 -34.91,-19.57 -18.48,-15.11 -28.85,-24.16 -41.34,-34.04 -12.306,-9.88 -29.041,-22.87 -29.041,-22.87 0,0 3.219,-3.14 4.961,-3.36 1.586,-0.27 9.199,2.87 17.45,0.75 8.29,-2.08 18.4,-7.3 25.26,-11.58 6.62,-4.24 32.36,-23.17 47.73,-32.83 25.45,-15.82 51.45,-15.6 51.45,-15.6 0,0 -36.38,-33.28 -43.42,-44.14 -6.13,-10 -10.86,-23.85 -9.69,-37.63 0.22,-1.36 0.53,-3.07 0.72,-4.43 5.41,-28.85 21.73,-49.64 29.76,-67.81 0.26,-0.23 0.26,-0.45 0.45,-0.68 7.58,-17.76 5.87,-39.03 -2.8,-49.37 -11.13,-13.25 -23.13,-20.33 -38.5,-23.66 l -0.23,0 c -10.19,-2.08 -22.19,-2.31 -36.42,-1.44 -4.77,0.27 -9.2,0.75 -13.63,1.44 l -0.31,0 c -50.765,7.08 -77.683,30.06 -77.683,30.06 0,0 7.574,3.79 14.16,5.9 6.398,2.08 38.953,13.9 52.203,29.5 2.12,2.38 4.02,4.69 5.99,7.57 11.73,16.55 23.05,42.74 16.66,72.92 0,0 0,0 0,0.27 -7.54,35.47 -21.7,53.38 -54.787,84.38 -42.023,39.15 -70.57,45.36 -76.25,75.98 -8.062,42.75 31.387,67.59 31.387,67.59 l -1.89,5.18 c 0,0 -45.813,3.03 -78.633,-32.82 -33.059,-35.89 -37.145,-79.81 -29.078,-114.98 8.019,-35.74 32.859,-66.63 58.601,-92.19 17.684,-17.68 67.582,-45.81 62.168,-75.56 -5.98,-33.51 -48.5,-27.07 -61.937,-26.7 -46.797,0.94 -78.598,-32.1 -78.219,-76.738 l 4.277,0.187 c 0,0 10.149,17.491 36.156,17.041 35.399,-0.95 60.461,-19.349 93.286,-39.72 36.875,-22.899 48.156,-30.7 81.019,-35.399 16.05,-2.57 28.09,0.957 28.09,0.957 0,0 2.16,27.402 23.13,52.922 12.05,14.92 34.5,30.47 54.37,43.65 14.65,9.7 27.83,18.21 35.14,24.16 22.26,18.46 31.42,29.75 38.04,48.87 1.9,5.19 3.33,10.86 4.93,17.46 5,19.87 0,37.9 -7.77,55.46 -3.97,9.05 -8.47,17.79 -12.94,26.5" /><path
         id="path38"
         style="fill:#231f20;fill-opacity:1;fill-rule:nonzero;stroke:none"
         d="m 1245.01,1304.91 c -15.1,-22.64 -41.3,-36.34 -41.3,-36.34 0,0 10.6,-19.32 15.33,-33.77 8.03,-24.35 8.52,-47.71 8.52,-47.71 0,0 -5.94,-0.8 -10.41,-0.8 -4.47,0 -13.03,1.45 -13.03,1.45 0,0 0.23,-0.91 0.23,-2.39 0.26,-1.86 0.49,-4.97 0.72,-8.03 0.49,-4.92 1.7,-11.73 1.7,-11.73 0,0 7.8,-0.3 11.06,-0.3 3.6,0 12.57,-0.24 12.57,-0.24 0,0 0.19,-26.95 0.45,-52.62 l 1.93,-218.52 6.59,-0.461 c 0,0 4.96,17.449 24.54,39.41 21.5,23.93 37.58,22.262 46.03,45.403 5.95,16.539 8.07,44.408 8.29,53.868 0,0.91 0,3.52 0,7.27 0,14.12 -0.22,45.09 -0.72,73.03 -0.19,29.72 -0.67,56.45 -0.67,56.45 l 30.2,4.46 c 12.31,1.9 31.43,5.65 31.43,5.65 0,0 0,3.29 -0.23,5.45 0,0.3 -0.26,0.68 -0.26,0.91 -0.2,2.19 -0.88,4.27 -0.88,4.27 0,0 -37.14,-1.7 -60.72,5.46 -18.48,5.64 -49.64,20.36 -57.21,55.8 -2.08,8.9 3.11,32.26 21.5,27.57 22.23,-5.68 42.06,-39.65 42.06,-39.65 0,0 6.6,27.57 10.65,38.28 4.01,10.87 13.92,32.07 13.92,32.07 0,0 -8.02,11.32 -31.41,23.13 -25.98,13.03 -54.83,18.48 -54.83,18.48 0,0 -0.71,-23.48 -16.05,-45.85" /><path
         id="path40"
         style="fill:#231f20;fill-opacity:1;fill-rule:nonzero;stroke:none"
         d="m 1491.59,1086.42 c 16.32,4.7 38.27,11.13 50.77,24.99 0.27,0.57 0.49,0.75 0.72,1.02 11.81,13.89 17.72,33.7 18.21,47.48 0.46,10.86 0,21.27 -0.23,25.44 -0.26,1.21 -0.26,1.97 -0.26,1.97 0,0 7.08,9.42 26.5,8.97 7.53,-0.3 15.79,-2.65 23.81,-10.94 8.03,-7.76 15.82,-21.43 23.18,-43.88 2.99,-9.88 4.88,-19.61 5.63,-29.04 2.36,-35.21 -9.69,-66.1 -17.22,-73.03 -10.86,-9.69 -28.35,-16.51 -51.26,-12.49 -17.05,3.29 -32.14,7.6 -45.36,12.49 -43.73,16.32 -65.65,38.31 -65.65,38.31 l 31.16,8.71 z m 1.94,211.86 c 0,0 20.74,20.6 53.83,22.91 15.56,1.17 35.43,-10.6 48.38,-33.24 18.93,-32.87 19.39,-63.38 -12.95,-74.21 -14.91,-4.96 -26.46,-4.96 -26.46,-4.96 0,0 -14.2,25.06 -32.64,46.3 -15.78,18.14 -29.94,34.91 -29.94,34.91 0,0 -2.16,1.93 -2.16,4.09 0,2.09 1.94,4.2 1.94,4.2 z m -81.52,-112.37 c 0.23,-0.29 0.23,-0.29 0.45,-0.56 10.65,-9.89 56.46,-42.93 57.17,-72.92 0,-2.12 -0.26,-4.05 -0.71,-6.17 -6.4,-31.65 -65.16,-20.07 -96.59,-36.12 -14.2,-7.08 -22.94,-18.86 -28.39,-30.74 -8.48,-18.14 -8.74,-35.89 -8.74,-35.89 l 4.76,-2.12 c 0,0 10.87,24.61 46.27,15.11 38.01,-10.15 52.7,-44.109 101.57,-66.602 34.27,-15.789 82.69,-14.648 82.69,-14.648 0,0 0,36.148 32.86,63.52 19.35,16.14 76.25,24.12 101.54,37.56 1.9,0.99 3.49,1.9 5.15,3.07 22.3,13.97 39.26,39.68 42.1,73.03 0,0.68 0,1.63 0,2.35 1.63,27.64 -3.86,52.66 -15.86,70.57 -17,25.55 -50.09,33.8 -79.09,35.47 0,0 6.62,3.33 16.01,7.99 22.49,10.94 56.22,37.56 21.55,110.13 -39.22,81.93 -101.13,46.8 -140.8,24.8 -39.87,-21.95 -73.23,-58.07 -73.23,-58.07 0,0 -48.84,40.77 -35.47,75.3 9.99,25.02 40.47,35.43 40.47,35.43 l -1.67,5.38 c 0,0 -106.95,12.76 -121.41,-104.79 -10.41,-84.09 38.7,-121 49.37,-131.08" /></g></g></svg>