<?xml version="1.0" encoding="UTF-8" standalone="no"?>
<svg
   xmlns:dc="http://purl.org/dc/elements/1.1/"
   xmlns:cc="http://creativecommons.org/ns#"
   xmlns:rdf="http://www.w3.org/1999/02/22-rdf-syntax-ns#"
   xmlns:svg="http://www.w3.org/2000/svg"
   xmlns="http://www.w3.org/2000/svg"
   viewBox="0 0 960.29333 297.41333"
   height="297.41333"
   width="960.29333"
   xml:space="preserve"
   id="svg2"
   version="1.1"><metadata
     id="metadata8"><rdf:RDF><cc:Work
         rdf:about=""><dc:format>image/svg+xml</dc:format><dc:type
           rdf:resource="http://purl.org/dc/dcmitype/StillImage" /></cc:Work></rdf:RDF></metadata><defs
     id="defs6"><clipPath
       id="clipPath20"
       clipPathUnits="userSpaceOnUse"><path
         id="path18"
         d="M 0,0 H 7202 V 2230.58 H 0 Z" /></clipPath></defs><g
     transform="matrix(1.3333333,0,0,-1.3333333,0,297.41333)"
     id="g10"><g
       transform="scale(0.1)"
       id="g12"><g
         id="g14"><g
           clip-path="url(#clipPath20)"
           id="g16"><path
             id="path22"
             style="fill:#231f20;fill-opacity:1;fill-rule:nonzero;stroke:none"
             d="m 897.926,309.551 0.25,0.129 c 83.152,44.949 166.334,98.808 249.384,160.992 -0.7,33.457 -1.43,63.598 -1.89,90.297 C 1050.97,486.809 956.895,424.398 863.523,373.75 715.676,295.672 591.816,256.621 491.559,256.621 c -105.961,0 -190.907,30.75 -254.848,92.09 -64.199,61.219 -108.699,143.32 -133.723,246.551 -33.4607,133.609 -39.0427,295.199 -16.7341,484.678 19.5701,175.47 48.7661,327.35 87.6871,455.49 30.723,97.46 69.637,167.11 116.977,208.92 64.066,58.5 149.027,112.84 254.977,162.97 61.23,30.61 109.996,43.13 146.308,37.62 72.363,-8.38 152.438,-56.42 240.238,-144.17 55.645,-55.64 99.089,-113.18 130.629,-172.68 -7.59,49.47 -15.65,98.52 -24.43,147 -1.31,6.05 -1.89,12.1 -1.89,17.67 0,0.71 0.12,1.32 0.12,2.02 -16.51,19.53 -34.06,38.68 -52.921,57.54 -47.101,46.93 -93.144,84.72 -139.886,112.79 -46.391,27.75 -93.743,46.21 -142.485,52.08 -9.156,1.3 -18.18,1.89 -26.953,1.89 -52.32,-0.47 -103.223,-17.97 -160.41,-46.15 -110.461,-52.38 -201.223,-109.92 -272.406,-174.76 v 0 C 179.746,1742.39 137.516,1661.3 104.527,1557.3 l -0.242,-0.7 C 63.5938,1422.89 33.6914,1266.98 13.7656,1088.25 4.625,1010.04 0,936.02 0,866 0,761.012 10.4336,665.02 32.1484,577.93 v 0 C 59.5586,464.5 110.582,368.191 186.285,296.02 c 39.149,-37.598 85.899,-66.321 137.387,-84.95 51.609,-18.511 107.969,-27.281 167.887,-27.281 119.238,0.481 252.129,44.602 405.902,125.531 l 0.465,0.231" /><path
             id="path24"
             style="fill:#231f20;fill-opacity:1;fill-rule:nonzero;stroke:none"
             d="m 959.613,1405.85 c -83.527,-47.35 -137.871,-71.01 -163.008,-71.01 -5.57,0 -9.73,1.37 -12.574,4.16 -30.609,103.04 -91.828,199.16 -183.789,288.38 -41.883,38.97 -76.648,68.21 -104.535,87.68 C 423.336,1489.45 388.445,1259.63 391.293,1025.58 396.758,833.371 434.488,688.512 504.02,591 582.09,485.141 683.883,436.379 809.172,444.801 c 33.48,2.629 59.805,8.32 79.387,16.609 l 12.437,4.301 16.863,12.559 20.875,12.449 c 19.469,16.742 36.079,31.91 50.079,45.922 l 25.147,25.148 29.19,20.891 c 25.75,25.73 58.85,60.511 99.55,104.402 -0.36,15.078 -0.71,25.168 -0.84,27.277 0,0.25 0,0.371 0,0.371 l 27.54,1.301 c 0,0.25 0.1,0.25 0.23,0.25 h -27.99 c 0,15.66 0,25.141 0,28.457 -0.48,15.442 -0.96,30.871 -1.67,46.16 -4.03,-3.91 -8.19,-7.949 -11.98,-12.089 l -0.6,-0.598 -0.23,-0.231 C 1071.62,717.238 1027.71,670.488 995.93,638.441 L 966.754,617.559 937.305,588.148 C 926.156,576.98 912.266,564.172 895.801,549.93 l -18.754,-11.16 -10.215,-7.711 -1.312,-0.477 -2.946,-1.051 -2.73,-1.07 c -8.418,-3.672 -27.879,-8.77 -55.899,-11.031 -7.59,-0.481 -14.824,-0.719 -21.937,-0.719 -46.039,0.129 -84.586,9.609 -120.188,28.238 -35.25,18.75 -68.109,47.352 -98.84,88.992 -28.351,39.75 -51.843,91.59 -68.808,157.2 -16.977,65.488 -27.414,144.269 -30.024,235.879 -0.117,8.26 -0.238,16.49 -0.238,24.68 0,181.71 23.496,360.56 70.602,537.11 5.097,-4.56 10.09,-9.26 15.301,-14.18 84.718,-82.29 137.875,-167.24 164.445,-256.4 l 5.097,-17.26 12.708,-12.88 c 10.082,-10.49 22.773,-17.66 34.164,-21.41 11.503,-3.66 21.605,-4.68 30.378,-4.75 17.559,0.19 31.071,3.46 45.09,7.49 40.922,12.56 88.621,36.35 153.875,73.08 37.37,21.06 69.87,41.58 98.11,62.17 -3.53,28.41 -7.11,56.54 -10.79,84.6 -4.26,-3.86 -9.13,-7.95 -14.7,-12.33 -27.89,-22.39 -64.07,-45.98 -108.577,-71.09" /><path
             id="path26"
             style="fill:#231f20;fill-opacity:1;fill-rule:nonzero;stroke:none"
             d="m 2472.26,338.27 c -27.87,-21 -62.64,-43.899 -104.52,-69.071 -114.15,-66.777 -172.76,-88.98 -175.37,-66.777 -28,194.93 -107.26,412.297 -238.24,651.859 -91.96,169.879 -199.22,335.649 -321.78,497.239 -66.92,-105.85 -98.94,-243.75 -96.11,-413.61 0,-53.019 1.31,-134.539 4.16,-244.519 2.74,-109.993 4.16,-191.629 4.16,-244.422 0,-2.848 -1.42,-5.578 -4.16,-8.43 V 352.75 c 0,-11.16 -11.15,-26.352 -33.33,-45.91 -69.78,-55.641 -146.43,-98.852 -229.94,-129.461 -16.61,-8.41 -34.89,-11.168 -54.35,-8.41 0,94.769 0,157.429 0,188.051 -2.37,114.601 -4.27,201.929 -5.7,262.21 -23.73,-20.171 -47.68,-39.64 -71.41,-58.261 0.46,-26.699 1.19,-56.84 1.89,-90.297 0.71,-34.41 1.54,-72.363 2.37,-113.891 0,-30.859 0,-93.39 0,-187.812 v -63.5 l 63.01,-8.6487 c 7.82,-1.0703 15.88,-1.789 24.2,-1.789 0.11,0 0.36,0 0.59,0 23.14,0 46.74,5.2307 68.1,15.1797 89.46,33.23 172.05,79.969 246.67,139.789 l 1.08,0.922 1.41,1.09 c 13.64,12.109 25.39,23.738 36.06,38.078 5.24,7.23 10.21,15.211 14.5,25.39 4.03,9.981 7.71,22.309 7.71,37.27 v 70.48 c 2.6,7.829 4.14,16.602 4.14,25.739 0,54.101 -1.42,135.851 -4.14,246.191 -2.74,109.75 -4.16,191.012 -4.16,242.75 v 1.18 c -0.12,6.41 -0.25,12.82 -0.25,19.172 0,98.248 12.83,181.878 36.79,252.188 91.12,-127.85 172.51,-258.052 244.42,-390.938 128.01,-234.211 203.83,-443.742 230.05,-626.711 1.19,-9.492 4.39,-20.289 10.32,-30.621 9.27,-16.371 25.51,-28.93 39.4,-34.27 14,-5.699 25.52,-6.66 35,-6.781 18.76,0.25 31.67,4.031 45.56,8.332 20.28,6.629 41.66,16.121 67.03,28.937 25.16,12.684 54.1,28.59 87.08,47.922 l 0.48,0.239 0.24,0.25 c 43.43,25.972 80.21,50.07 110.7,73.07 15.56,11.652 28.49,22.781 40.47,36.781 5.92,7.129 11.85,15.078 16.96,25.52 1.29,2.84 2.73,5.929 3.92,9.261 -27.53,3.071 -53.16,7 -76.88,11.758 -6.43,-7.379 -15.66,-15.668 -28.13,-24.929" /><path
             id="path28"
             style="fill:#231f20;fill-opacity:1;fill-rule:nonzero;stroke:none"
             d="m 2045.96,1694.18 c -47.33,-33.41 -94.68,-65.44 -141.9,-96.11 144.75,-183.86 267.31,-369.11 367.56,-555.74 90.17,-168.842 155.92,-325.092 197.2,-468.779 13.29,9.25 27.89,18.859 44.25,29.058 h -0.22 l 0.58,0.231 c 6.3,3.941 12.7,7.851 19.21,11.75 -43.17,143.93 -109.03,297.691 -196.7,462.08 -91.13,169.54 -199.92,337.48 -326.29,503.91 26.1,17.61 52.2,35.64 78.31,54.08 l 1.19,0.83 124.46,95.41 c 1.79,1.12 4.16,2.73 7.36,4.74 -7.36,11.86 -14.83,23.6 -22.42,35.23 -5.95,8.54 -9.98,18.92 -12.1,29.13 -7.49,-4.74 -12.59,-8 -15.08,-9.67 l -125.41,-96.15" /><path
             id="path30"
             style="fill:#231f20;fill-opacity:1;fill-rule:nonzero;stroke:none"
             d="m 1141.86,714.359 c 0.13,-2.109 0.48,-12.199 0.84,-27.277 8.55,9.25 17.44,18.988 26.7,28.949 l -27.54,-1.301 c 0,0 0,-0.121 0,-0.371" /><path
             id="path32"
             style="fill:#231f20;fill-opacity:1;fill-rule:nonzero;stroke:none"
             d="m 1038.64,1775.09 c 8.78,-48.48 16.84,-97.53 24.43,-147 18.28,-34.41 32.53,-69.54 42.72,-105.24 2.26,-6.65 -5.45,-17.93 -22.9,-33.58 3.68,-28.06 7.26,-56.19 10.79,-84.6 23.27,-196.94 38.68,-401.57 46.29,-613.772 0.71,-15.289 1.19,-30.718 1.67,-46.16 0,-3.316 0,-12.797 0,-28.457 h 27.99 c 3.8,4.258 7.59,8.41 11.39,12.59 9.48,10.18 20.52,20.168 32.98,30.34 -11.52,365.329 -46.27,709.179 -103.93,1031.119 -2.85,8.31 9.73,23.62 37.49,45.98 28.01,22.25 64.07,45.92 108.68,71.01 80.8,47.33 135.14,71.08 163.02,71.08 5.45,0 8.3,-1.5 8.3,-4.22 33.46,-181.13 58.5,-371.89 75.24,-572.48 130.98,116.99 353.8,271.64 668.57,463.81 20.05,12.2 38.81,23.24 56.58,33.2 6.65,6.24 13.77,12.23 21.62,18.47 29.17,22.71 67.85,47.93 118.87,78 l 0.49,0.35 0.7,0.36 c 18.28,10.27 35.83,19.57 52.57,28.06 -7.83,4.45 -15.08,6.77 -21.13,8.25 -8.42,1.95 -15.07,2.32 -20.77,2.32 -20.4,-0.18 -36.76,-4.28 -54.34,-9.67 -17.32,-5.53 -35.57,-12.88 -55.52,-22.15 -40.11,-18.43 -85.2,-43.34 -137.04,-75.04 -244.3,-149.18 -433.88,-275.78 -570.92,-382.15 -16.03,151.94 -36.78,298.28 -62.78,439.11 -1.41,10.69 -5.57,22.43 -12.1,32.04 -6.51,9.67 -14.71,16.85 -22.06,21.59 -11.4,7.18 -20.66,9.67 -28,11.27 -7.35,1.43 -13.31,1.66 -18.28,1.73 -17.32,-0.12 -31.55,-3.21 -46.04,-7.3 -42.59,-12.64 -89.93,-36.73 -153.04,-73.27 -46.75,-26.46 -85.9,-51.79 -118.06,-77.47 -14.84,-11.92 -26.94,-22.6 -37.84,-35.13 -5.58,-6.4 -10.92,-13.29 -16.26,-22.89 -4.87,-9.19 -10.56,-21.65 -11.15,-40.41 0,-0.7 -0.12,-1.31 -0.12,-2.02 0,-5.57 0.58,-11.62 1.89,-17.67" /><path
             id="path34"
             style="fill:#231f20;fill-opacity:1;fill-rule:nonzero;stroke:none"
             d="m 3430.58,732.648 c 2.37,-7.957 3.68,-15.058 4.03,-21.589 -39.63,-8.188 -88.52,-15.778 -146.41,-22.547 v 0 c -60.27,-5.942 -121.26,-9.012 -183.08,-9.012 -0.35,0 -0.83,0 -1.29,0 -14.25,90.641 -35.6,189 -63.61,295.551 42.23,-7.219 79.15,-15.231 110.71,-23.852 83.41,-23.019 146.75,-54.34 191.6,-90.89 44.85,-36.637 72.52,-77.36 88.05,-127.528 l 69.64,21.231 c -39.03,128.129 -149.01,217.289 -330.07,267.358 -61.35,16.79 -138,30.68 -229.83,41.9 50.08,-172.809 83.53,-324.688 100.25,-455.559 86.26,-2.731 171.35,0 254.99,8.43 72.36,8.308 132.17,18.039 179.63,29.191 l 20.87,4.25 c 13.89,33.348 15.21,68.117 4.16,104.43 l -69.64,-21.364" /><path
             id="path36"
             style="fill:#231f20;fill-opacity:1;fill-rule:nonzero;stroke:none"
             d="m 2972.36,1423.05 c -0.95,-6.57 -3.09,-12.74 -10.81,-22.48 l -18.5,-18.38 -0.58,-0.6 -14,-10.5 -1.43,-1.25 c -1.2,-1 -2.5,-2.02 -3.56,-2.95 -13.64,45.6 -25.87,86.61 -36.91,123.08 24.58,-7.4 44.75,-15.76 59.92,-24.43 13.17,-7.42 18.99,-13.77 21.84,-18.28 2.85,-4.62 4.26,-8.17 4.5,-17.38 0,-2.13 -0.24,-4.45 -0.47,-6.83 z m 9.73,106.08 c -47.47,26.47 -114.26,45.27 -200.64,56.42 22.31,-72.44 55.77,-183.85 100.25,-334.28 l 54.36,33.46 c 8.42,5.5 20.88,15.24 37.72,29.23 l 16.62,12.52 4.26,4.16 20.88,20.88 c 16.61,19.5 26.35,40.34 29.19,62.69 5.57,50.15 -15.43,88.41 -62.64,114.92" /><path
             id="path38"
             style="fill:#231f20;fill-opacity:1;fill-rule:nonzero;stroke:none"
             d="m 2368.93,1995.53 -0.49,-0.35 c -51.02,-30.07 -89.7,-55.29 -118.87,-78 -7.85,-6.24 -14.97,-12.23 -21.62,-18.47 26.83,15.14 51.16,27.76 72.99,37.85 36.19,16.74 62.77,25.04 79.36,25.04 14.02,0 10.46,-10.44 -10.44,-31.32 -20.88,-20.82 -52.19,-45.33 -93.95,-73.09 -42.72,-27.16 -72.49,-46.21 -89.46,-57.19 2.12,-10.21 6.15,-20.59 12.1,-29.13 7.59,-11.63 15.06,-23.37 22.42,-35.23 61.7,-99.06 112.83,-204.66 153.53,-316.98 l 1.43,-3.91 0.83,-1.78 c 0.58,-1.48 1.77,-4.68 3.2,-8.71 13.87,-39.68 53.99,-164.87 118.99,-371.32 47,-147.952 81.64,-274.202 104.18,-378.131 -25.16,-13.758 -48.66,-27.149 -70.49,-40.219 -6.51,-3.899 -12.91,-7.809 -19.21,-11.75 l -0.58,-0.231 h 0.22 c -16.36,-10.199 -30.96,-19.808 -44.25,-29.058 7.36,-25.75 14,-50.922 19.82,-75.949 16.01,12.589 36.89,26.949 63.01,43.296 36.18,22.332 78.06,45.934 125.39,70.973 l 8.32,4.27 c -22.32,116.988 -61.35,263.148 -117,438.699 -77.94,247.91 -119.71,377.47 -125.41,388.64 -47.35,130.92 -108.67,253.42 -183.78,367.73 -11.15,16.74 37.62,57.09 146.29,121.15 44.5,25.1 83.53,43.89 116.99,56.48 33.46,12.52 52.92,15.95 58.37,10.38 41.88,-55.72 103.22,-104.42 183.91,-146.23 52.93,-25.04 118.4,-44.57 196.49,-58.5 66.79,-11.15 133.59,-22.31 200.5,-33.4 39.04,-8.36 66.92,-15.36 83.64,-20.94 30.51,-11.16 54.23,-23.68 71.08,-37.61 30.61,-27.83 45.91,-58.5 45.91,-91.89 0,-52.93 -40.47,-114.27 -121.13,-183.92 -50.3,-44.54 -116.99,-93.37 -200.65,-146.22 108.7,-13.94 217.27,-29.24 325.94,-45.98 125.3,-22.31 227.08,-58.5 305.05,-108.67 94.67,-58.5 146.28,-130.919 154.6,-217.251 11.15,-94.808 -59.93,-188.07 -213.09,-279.898 -172.76,-106.082 -359.39,-171.449 -560.02,-196.481 0,-61.218 -1.43,-119.82 -4.03,-175.609 -2.85,-11 -15.44,-25.031 -37.74,-41.742 -69.64,-55.649 -144.89,-100.289 -225.67,-133.7071 -19.47,-5.6016 -39.03,-8.3203 -58.37,-8.3203 11.02,108.6684 8.29,222.8204 -8.42,342.6484 -89.71,2.148 -162.2,9.609 -217.5,21.961 3.33,-17.223 6.18,-34.41 8.55,-51.262 1.54,-6.168 -1.66,-13.75 -9.48,-23 23.72,-4.758 49.35,-8.687 76.88,-11.758 23.96,-2.609 49.47,-4.75 76.64,-6.293 4.74,-47.476 7.12,-93.867 7.12,-139.179 0,-42.828 -2.12,-84.84 -6.41,-125.6292 L 2646.55,0 h 80.69 c 0,0 0,0 0.12,0 26.45,0 52.68,3.91016 78.19,11.1602 l 4.14,1.039 3.81,1.6719 c 86.72,35.8477 167.65,83.8984 242.28,143.3399 13.4,10.211 25.03,20.168 35.83,32.027 10.56,12.094 21.58,26.121 27.88,49.594 l 1.89,7.02 0.25,7.23 c 1.9,37.488 3.08,76.168 3.79,116.148 186.76,31.192 362.34,97.168 525.14,196.95 v 0 c 76.17,45.82 135.97,93.011 179.51,145.82 43.29,52.219 70.25,113.211 70.13,177.5 0,8.781 -0.48,17.539 -1.42,26.109 0,0.121 0,0.243 0,0.352 -5.47,55.469 -25.51,108.319 -58.15,153.959 -32.51,45.66 -76.64,84.34 -129.92,117.38 -88.87,57.02 -199.57,95.45 -331.38,119.01 l -1.07,0.13 -0.6,0.1 c -47.33,7.3 -94.68,14.3 -141.91,21 19.11,15.08 36.91,29.78 53.28,44.32 43.67,37.74 78.31,74.47 103.81,113.01 25.29,38.39 42.25,80.34 42.25,125.78 0.23,27.88 -6.65,55.87 -19.11,80.62 -12.46,24.84 -30,46.39 -50.65,65.18 l -1.19,1.13 -1.19,0.96 c -26.34,21.77 -56.95,36.95 -92.68,50.07 l -0.81,0.35 -1.18,0.42 c -21.97,7.18 -50.91,14.24 -91.25,22.96 l -1.66,0.35 -1.67,0.22 c -66.79,11.11 -133.71,22.26 -200.5,33.42 v 0 c -72.39,12.92 -131.24,30.84 -175.97,51.97 -73.31,37.97 -124.81,80.27 -158.04,124.64 l -3.2,4.33 -3.91,3.8 c -11.87,11.73 -24.91,17.43 -35.12,20.22 -10.21,2.85 -18.28,3.39 -25.14,3.39 -15.43,-0.18 -26.47,-2.67 -38.22,-5.63 -11.63,-3.09 -23.6,-7.07 -36.77,-12.06 -23.5,-8.77 -48.18,-19.8 -74.63,-33.04 -16.74,-8.49 -34.29,-17.79 -52.57,-28.06 l -0.7,-0.36" /><path
             id="path40"
             style="fill:#231f20;fill-opacity:1;fill-rule:nonzero;stroke:none"
             d="m 4329.45,1928.2 c 2.86,11.1 15.42,26.45 37.74,45.98 66.8,55.71 141.9,98.84 225.68,129.5 19.44,5.64 38.91,8.37 58.35,8.37 -16.6,-144.88 -47.34,-360.75 -91.84,-647.69 -2.82,-11.15 -23.72,-30.68 -62.76,-58.51 -39.02,-27.88 -80.8,-52.96 -125.41,-75.21 -58.36,-30.67 -97.52,-45.91 -116.97,-45.91 -8.31,0 -12.46,4.13 -12.46,12.51 25.04,128.08 54.34,338.44 87.67,630.96 z m -120.31,-704.23 c 17.1,-10.09 33.24,-12.11 45.1,-12.15 14.35,0.11 25.62,2.37 36.77,5.2 32.53,8.85 67.28,24.8 113.44,48.82 47.68,23.79 92.52,50.75 134.53,80.69 21.14,15.14 37.98,28.3 52.33,41.59 7.14,6.76 13.65,13.47 20.17,21.77 6.3,8.55 13.53,18.22 18.51,36.72 l 0.83,3.27 0.48,3.33 c 44.6,287.42 75.47,503.84 92.3,650.47 l 9.51,81.28 h -81.89 c -26.45,0 -52.9,-3.86 -78.43,-11.15 l -2.58,-0.77 -2.51,-0.95 c -91.12,-33.34 -173.94,-80.86 -247.26,-141.91 l -0.59,-0.53 -0.6,-0.59 c -13.28,-11.63 -24.55,-22.61 -34.64,-34.9 -9.96,-12.56 -19.7,-25.55 -25.88,-48.45 l -1.04,-4.58 -0.61,-4.61 c -33.21,-291.52 -62.52,-501.18 -86.85,-625.28 l -1.4,-6.94 v -7.06 c 0.1,-8.18 0.93,-17.76 4.62,-28.55 4.85,-16.13 18.63,-34.94 35.69,-44.72" /><path
             id="path42"
             style="fill:#231f20;fill-opacity:1;fill-rule:nonzero;stroke:none"
             d="M 5669.23,604.98 C 5561.26,498.441 5428.13,410.148 5269.74,340.289 5169.49,295.672 5083.11,273.48 5010.62,273.48 c -72.49,0 -142.75,22.192 -211.07,66.809 -68.23,44.481 -121.73,101.672 -160.89,171.332 -47.22,86.25 -70.96,183.891 -70.96,292.461 0,181.117 57.9,357.298 173.48,528.678 115.56,171.27 287.59,316.86 516.11,436.69 8.29,11.1 18.02,19.41 29.17,25.04 66.82,55.71 142.03,98.84 225.69,129.51 25.01,11.14 43.19,15.3 54.33,12.56 149.72,-57.6 259.84,-141.72 330.21,-252.3 15.29,18.28 32.27,36.78 50.65,55.41 -19.34,28.41 -41.05,55.17 -65.12,80.21 -75.6,78.73 -173.12,139.89 -289.63,184.68 l -4.27,1.6 -4.3,1.06 c -9.24,2.32 -17.66,3.03 -25.13,3.03 -15.2,-0.05 -27.76,-2.67 -39.99,-6.17 -11.52,-3.2 -22.53,-7.42 -34.07,-12.39 -87.92,-32.58 -168.23,-78.19 -239.53,-136.63 -12.92,-7.58 -24.56,-17.09 -34.53,-27.76 -230.42,-122.81 -408.63,-273.68 -530.12,-453.78 -122.2,-181 -186.03,-372.61 -185.81,-569.438 -0.1,-119.121 26.35,-229.832 79.98,-327.48 l 0.25,-0.461 0.11,-0.129 c 44.49,-79.731 107.03,-146.282 184.61,-196.723 77.61,-50.898 162.68,-78.66 249.99,-78.66 0.23,0 0.49,0 0.84,0 87.44,0.121 182.35,25.992 288.66,73.09 143.8,63.371 269.23,142.133 375.17,236.34 -3.69,27.3 -5.46,55.773 -5.46,85.203 0,3.07 0.24,6.379 0.24,9.718" /><path
             id="path44"
             style="fill:#231f20;fill-opacity:1;fill-rule:nonzero;stroke:none"
             d="m 5399.9,605.949 -1.42,-1.801 -1.31,-1.898 c -5.35,-7.949 -9.48,-14.102 -12.22,-18.02 -0.95,-1.308 -1.78,-2.39 -2.38,-2.968 l -0.58,-0.711 c -12.7,-14.5 -25.04,-27.403 -37.25,-38.813 -6.9,-0.84 -14.61,-1.039 -22.91,-1.039 -9.74,0 -20.52,0.442 -32.28,1.633 l -1.42,0.117 -1.67,0.133 c -35.81,2.148 -70.35,12.328 -106.29,32.5 l -0.72,0.359 -0.48,0.25 c -73.9,40.348 -125.76,91.829 -161.6,158.399 -35.59,66.422 -55.04,150.058 -55.04,253.898 0,108.662 24.44,218.592 75.09,331.672 49.94,111.36 114.4,202.17 193.77,275.2 l 11.02,7.43 c 8.44,1.12 15.91,2.3 23.01,3.71 4.87,1.02 9.62,2.09 14.59,3.52 0.13,0.06 0.24,0.11 0.49,0.11 13.29,0.82 27.16,1.25 41.63,1.25 14.72,0 30.03,-0.43 45.94,-1.3 54.69,-37.74 100.61,-83.11 139.06,-137.22 55.04,-76.82 85.87,-170.02 91.13,-287.01 v 0.89 l 0.09,-1.31 c 0.61,-13.52 0.96,-26.99 0.96,-40.34 -0.13,-183.961 -64.2,-361.27 -199.21,-538.641 z m 270.99,582.601 c -5.69,128.14 -40.47,236.77 -104.41,325.92 -47.46,66.92 -106.07,122.62 -175.58,167.18 h -8.33 c -41.76,2.73 -80.91,2.73 -116.99,0 -5.71,-2.78 -19.56,-5.57 -41.76,-8.31 l -20.99,-4.2 -4.17,-8.37 -12.56,-8.37 c -89.23,-80.79 -160.88,-181.77 -215.12,-302.96 -54.33,-121.15 -81.5,-241.67 -81.5,-361.452 0,-225.668 84.94,-384.418 254.85,-476.367 44.61,-25.039 90.53,-39.062 137.87,-41.781 27.88,-2.731 52.93,-2.731 75.21,0 h 8.31 l 12.59,4.172 c 19.44,16.707 39.02,36.179 58.59,58.476 2.74,2.742 9.75,12.594 20.9,29.301 153.19,200.531 224.23,409.512 213.09,626.761" /><path
             id="path46"
             style="fill:#231f20;fill-opacity:1;fill-rule:nonzero;stroke:none"
             d="m 7202.16,839.68 -0.13,0.832 v 0.57 c -3.43,75.949 -34.51,148.379 -85.55,212.868 -36.54,46.21 -83.05,89.34 -139.28,130.63 2.15,4.62 3.9,9.73 5.45,15.49 v 0.46 l 0.25,0.89 c 34.51,149.5 52.09,292.96 52.09,430.11 0,119.84 -13.89,234.04 -42.13,342.18 -14.95,56.95 -35.58,106.54 -64.54,148.25 -28.94,41.52 -67.28,74.92 -112.71,94.49 l -1.44,0.66 -1.42,0.6 c -23.73,9.07 -48.63,12.87 -73.56,12.87 -39.98,-0.06 -80.44,-9.32 -123.63,-24.91 -88.73,-30.73 -180.1,-79.86 -275.74,-146.42 -8.18,-5.57 -18.03,-12.76 -31.08,-22.48 -40.59,-30.25 -110.34,-84.65 -210.96,-164.21 -58.13,-45.92 -108.2,-89.94 -150.44,-132.89 -18.38,-18.63 -35.36,-37.13 -50.65,-55.41 13.98,-22.12 26.44,-45.31 37.36,-69.58 0,0.06 0,0.12 0,0.18 47.44,61.22 117.12,128.02 209.05,200.57 133.74,105.78 213.11,167.11 238.24,183.79 91.83,64.12 178.21,110.1 259.03,137.93 61.22,22.3 109.98,26.39 146.16,12.52 64.19,-27.83 109.27,-92.62 135.85,-194.29 26.46,-101.69 39.63,-209.65 39.63,-323.92 0,-130.93 -16.6,-268.8 -50.07,-413.61 -2.84,-11.14 -18.14,-26.58 -45.9,-45.96 169.77,-105.97 257.58,-217.359 263.28,-334.359 2.59,-94.672 -43.31,-185.312 -137.88,-271.582 -55.77,-50.187 -144.99,-108.687 -267.56,-175.48 -189.5,-103.098 -374.68,-156.02 -555.74,-158.879 -192.33,-2.719 -317.61,46.039 -376.11,146.281 -33.35,58.508 -50.17,131 -50.17,217.391 0,29.289 2.35,61.699 6.86,96.808 -24.8,-30.25 -51.26,-59.32 -79.49,-87.09 0,-3.339 -0.24,-6.648 -0.24,-9.718 0,-29.43 1.77,-57.903 5.46,-85.203 8.06,-61.797 25.76,-118.411 54.33,-168.227 l 0.26,-0.613 v -0.098 c 37.01,-63.84 96.57,-111.641 168.58,-140.492 72.25,-29.18 157.11,-41.879 255.22,-42 5.47,0 10.68,0 16.35,0.25 194.73,2.851 391.8,59.902 589.58,167.519 125.29,68.582 217.95,128.614 281.32,185.321 l 0.35,0.48 c 50.91,46.27 91,95.633 119,148.789 27.77,53.024 42.85,110.332 42.72,168.481 0,3.422 0,6.883 0,10.211" /><path
             id="path48"
             style="fill:#231f20;fill-opacity:1;fill-rule:nonzero;stroke:none"
             d="m 6707.4,553.25 -1.42,-2.371 -1.19,-2.5 c -2.38,-4.617 -5.22,-9.25 -8.54,-13.758 C 6611.42,506.379 6527.64,492.5 6444,492.5 c -51.96,0 -96.12,5.711 -132.91,16.141 -36.75,10.449 -65.95,25.14 -89.68,43.668 l -0.7,0.48 -0.96,0.711 c -26.34,19.691 -45.79,44.602 -60.26,80.441 -14.47,35.598 -23.02,82.34 -23.02,140.93 0,89.719 17.43,192.238 53.85,306.769 35.72,-16.24 84.97,-38.9 147.37,-67.69 v 0 c 86.62,-40.501 156.13,-78.18 207.64,-111.52 68.34,-47.692 116.74,-94.899 146.64,-138.571 30.24,-44.25 42.47,-83.41 42.72,-122.679 -0.25,-27.059 -7.82,-55.168 -27.29,-87.93 z m -121.39,409.711 c -55.88,36.109 -128.24,75.199 -217.22,116.979 -145.01,66.86 -218.8,100.31 -221.65,100.31 -55.63,-150.44 -83.54,-285.66 -83.54,-405.379 0,-130.98 37.75,-224.211 112.86,-279.992 64.18,-50.078 153.15,-75.231 267.54,-75.231 91.83,0 183.78,15.313 275.74,46.063 h 8.29 l 8.33,4.129 c 13.99,13.89 25.13,29.301 33.43,45.922 25.16,41.769 37.75,83.527 37.75,125.418 0,111.402 -73.81,218.679 -221.53,321.781" /><path
             id="path50"
             style="fill:#231f20;fill-opacity:1;fill-rule:nonzero;stroke:none"
             d="m 6274.79,1679.04 c 11.17,26.28 38.23,64.83 82.47,109.63 4.39,3.16 8.67,6.72 13.9,11.74 1.89,2.02 4.04,4.23 6.27,6.95 36.18,28.02 66.68,51.91 91.83,71.89 1.32,-1.22 2.51,-2.54 3.91,-3.97 12.84,-13.4 27.79,-36.12 42.02,-68.56 27.28,-60.16 47.22,-166.24 52.32,-311.63 l 0.13,-1.61 v -1.66 c 2.14,-24.75 3.19,-49.72 3.19,-74.93 0,-4.99 -0.13,-10.01 -0.13,-15.07 -45.43,21.01 -85.3,40.82 -119.24,59.27 -55.64,29.96 -95.85,56.89 -118.15,76.71 -24.2,21.3 -40.12,41.46 -49.72,59.49 -9.5,18.15 -13.29,33.88 -13.29,50.97 0,7.95 1.18,18.22 4.49,30.78 z m 10.34,-195.83 c 58.49,-51.61 175.49,-114.98 351.07,-190.18 8.32,69.63 9.75,137.93 4.17,204.78 -5.58,150.45 -25.04,263.22 -58.5,338.5 -33.45,75.17 -73.92,118.34 -121.25,129.51 -30.61,-25.1 -76.66,-61.28 -137.88,-108.63 0,-2.85 -4.15,-6.99 -12.57,-12.58 -52.92,-52.91 -87.8,-100.26 -104.42,-142.07 -5.69,-19.53 -8.41,-37.56 -8.41,-54.28 0,-58.49 29.29,-113.55 87.79,-165.05" /><path
             id="path52"
             style="fill:#231f20;fill-opacity:1;fill-rule:nonzero;stroke:none"
             d="m 5990.66,1277.85 c -0.12,-1.09 -0.12,-2.08 -0.26,-3.21 0.84,0.59 1.44,1.13 2.25,1.7 -0.71,0.48 -1.41,0.96 -1.99,1.51" /><path
             id="path54"
             style="fill:#ffffff;fill-opacity:1;fill-rule:nonzero;stroke:none"
             d="m 3496,649.602 -20.87,-4.243 c -47.46,-11.16 -107.27,-20.89 -179.63,-29.187 -83.63,-8.422 -168.73,-11.172 -254.99,-8.422 -16.72,130.859 -50.18,282.73 -100.26,455.54 91.84,-11.22 168.49,-25.11 229.84,-41.88 181.05,-50.09 291.04,-139.25 330.07,-267.379 11.04,-36.312 9.73,-71.082 -4.16,-104.429 z m -614.36,601.688 c -44.48,150.43 -77.94,261.85 -100.25,334.28 86.38,-11.15 153.18,-29.94 200.64,-56.42 47.21,-26.51 68.21,-64.77 62.64,-114.91 -2.85,-22.36 -12.58,-43.2 -29.2,-62.7 l -20.87,-20.87 -4.27,-4.17 -16.61,-12.51 c -16.84,-13.99 -29.3,-23.73 -37.72,-29.24 z m 944.45,-342.661 c -8.32,86.332 -59.93,158.751 -154.6,217.251 -77.96,50.17 -179.75,86.36 -305.04,108.67 -108.67,16.74 -217.25,32.05 -325.94,45.98 83.66,52.85 150.34,101.68 200.65,146.23 80.66,69.64 121.13,130.98 121.13,183.91 0,33.4 -15.31,64.06 -45.91,91.89 -16.85,13.94 -40.57,26.45 -71.08,37.62 -16.72,5.57 -44.6,12.57 -83.63,20.94 -66.92,11.09 -133.72,22.24 -200.51,33.4 -78.09,13.92 -143.56,33.45 -196.49,58.49 -80.68,41.82 -142.02,90.52 -183.91,146.23 -5.45,5.57 -24.91,2.14 -58.37,-10.37 -33.46,-12.59 -72.49,-31.39 -116.99,-56.48 -108.68,-64.08 -157.44,-104.42 -146.29,-121.16 75.11,-114.31 136.43,-236.81 183.78,-367.73 5.69,-11.17 47.47,-140.72 125.41,-388.63 55.65,-175.55 94.68,-321.722 116.99,-438.698 l -8.32,-4.274 c -47.32,-25.039 -89.21,-48.648 -125.39,-70.957 -26.12,-16.371 -46.99,-30.73 -63,-43.32 -5.83,25.039 -12.46,50.199 -19.83,75.949 -41.27,143.692 -107.02,299.942 -197.19,468.78 -100.26,186.63 -222.81,371.89 -367.56,555.74 47.22,30.67 94.57,62.71 141.9,96.1 l 125.4,96.16 c 2.5,1.67 7.6,4.94 15.08,9.67 16.98,10.98 46.75,30.03 89.47,57.19 41.76,27.77 73.07,52.28 93.94,73.09 20.9,20.88 24.46,31.32 10.44,31.32 -16.59,0 -43.16,-8.3 -79.35,-25.03 -21.83,-10.09 -46.16,-22.71 -72.98,-37.85 -17.78,-9.96 -36.55,-21.01 -56.6,-33.21 -314.76,-192.17 -537.57,-346.82 -668.56,-463.81 -16.74,200.59 -41.78,391.35 -75.24,572.48 0,2.73 -2.85,4.22 -8.3,4.22 -27.89,0 -82.22,-23.74 -163.03,-71.07 -44.6,-25.1 -80.65,-48.77 -108.67,-71.02 -27.76,-22.36 -40.34,-37.66 -37.49,-45.98 57.66,-321.94 92.41,-665.78 103.93,-1031.112 -12.46,-10.179 -23.5,-20.156 -32.98,-30.347 -3.81,-4.161 -7.59,-8.332 -11.39,-12.59 l -0.23,-0.25 c -9.25,-9.961 -18.15,-19.699 -26.71,-28.942 -40.69,-43.89 -73.79,-78.679 -99.54,-104.41 l -29.2,-20.879 -25.14,-25.14 c -14,-14.02 -30.609,-29.2 -50.078,-45.93 l -20.867,-12.461 -16.871,-12.551 -12.438,-4.297 C 868.918,453.148 842.594,447.449 809.102,444.832 683.816,436.398 582.031,485.18 503.953,591.02 434.43,688.539 396.699,833.391 391.23,1025.6 c -2.839,234.05 32.051,463.88 104.415,689.48 27.89,-19.46 62.652,-48.71 104.535,-87.67 91.961,-89.23 153.179,-185.35 183.781,-288.39 2.852,-2.79 7.008,-4.15 12.578,-4.15 25.141,0 79.484,23.65 163.016,71.01 44.505,25.1 80.685,48.71 108.575,71.08 5.57,4.38 10.43,8.48 14.7,12.33 17.44,15.66 25.16,26.92 22.89,33.59 -10.18,35.7 -24.44,70.82 -42.71,105.24 -31.54,59.49 -74.983,117.02 -130.627,172.68 -87.809,87.74 -167.879,135.79 -240.242,144.16 -36.317,5.52 -85.075,-7.01 -146.305,-37.61 C 439.883,1857.21 354.926,1802.88 290.863,1744.38 243.52,1702.56 204.605,1632.93 173.883,1535.45 134.961,1407.32 105.762,1255.43 86.1914,1079.95 63.8828,890.48 69.4648,728.891 102.922,595.281 c 25.023,-103.242 69.523,-185.32 133.723,-246.543 63.945,-61.34 148.89,-92.09 254.843,-92.09 100.266,0 224.121,39.043 371.969,117.122 93.379,50.671 187.453,113.062 282.153,187.23 23.73,18.609 47.68,38.082 71.4,58.25 1.44,-60.281 3.33,-147.602 5.7,-262.211 V 168.992 c 19.47,-2.754 37.74,0 54.36,8.406 83.52,30.614 160.17,73.813 229.94,129.461 22.18,19.571 33.33,34.75 33.33,45.911 v 87.789 c 2.75,2.863 4.15,5.582 4.15,8.429 0,52.793 -1.4,134.434 -4.15,244.422 -2.85,109.981 -4.17,191.5 -4.17,244.531 -2.83,169.849 29.21,307.759 96.12,413.599 122.56,-161.59 229.82,-327.34 321.78,-497.239 130.98,-239.563 210.23,-456.93 238.24,-651.86 2.6,-22.179 61.23,0 175.37,66.789 41.89,25.161 76.65,48.059 104.51,69.059 12.48,9.262 21.71,17.551 28.13,24.93 7.83,9.242 11.03,16.832 9.49,23 -2.37,16.851 -5.22,34.043 -8.55,51.261 55.3,-12.339 127.78,-19.808 217.49,-21.949 16.72,-119.84 19.44,-233.992 8.42,-342.6599 19.34,0 38.91,2.7187 58.37,8.3203 80.79,33.4296 156.03,78.0586 225.68,133.7066 22.31,16.723 34.88,30.743 37.74,41.75 2.6,55.793 4.03,114.383 4.03,175.602 200.63,25.039 387.26,90.41 560,196.48 153.17,91.829 224.25,185.102 213.1,279.899" /><path
             id="path56"
             style="fill:#ffffff;fill-opacity:1;fill-rule:nonzero;stroke:none"
             d="m 4254.18,1284.75 c 19.45,0 58.59,15.25 116.97,45.92 44.6,22.24 86.38,47.32 125.41,75.21 39.04,27.82 59.92,47.35 62.75,58.5 44.51,286.94 75.25,502.82 91.84,647.69 -19.45,0 -38.91,-2.73 -58.36,-8.36 -83.77,-30.67 -158.87,-73.8 -225.67,-129.51 -22.32,-19.52 -34.88,-34.87 -37.73,-45.98 -33.33,-292.51 -62.65,-502.88 -87.69,-630.95 0,-8.38 4.15,-12.52 12.48,-12.52" /><path
             id="path58"
             style="fill:#ffffff;fill-opacity:1;fill-rule:nonzero;stroke:none"
             d="m 6769.73,515.789 c -8.31,-16.617 -19.46,-32.039 -33.45,-45.918 l -8.31,-4.133 h -8.31 c -91.95,-30.75 -183.89,-46.047 -275.72,-46.047 -114.4,0 -203.35,25.141 -267.56,75.219 -75.11,55.77 -112.85,149.012 -112.85,280 0,119.699 27.92,254.92 83.54,405.37 2.85,0 76.64,-33.46 221.66,-100.33 88.97,-41.77 161.34,-80.86 217.22,-116.97 147.71,-103.101 221.52,-210.371 221.52,-321.781 0,-41.89 -12.59,-83.64 -37.74,-125.41 z M 6205.68,1702.56 c 16.62,41.82 51.49,89.17 104.42,142.07 8.42,5.59 12.58,9.73 12.58,12.58 61.21,47.35 107.26,83.53 137.87,108.63 47.33,-11.16 87.79,-54.33 121.26,-129.51 33.45,-75.28 52.92,-188.04 58.49,-338.49 5.57,-66.86 4.15,-135.15 -4.17,-204.79 -175.58,75.21 -292.58,138.58 -351.07,190.18 -58.5,51.5 -87.79,106.56 -87.79,165.06 0,16.72 2.72,34.75 8.41,54.27 z m -215.35,-427.9 0.26,3.2 c 0.58,-0.53 1.29,-1.01 1.98,-1.49 -0.79,-0.58 -1.4,-1.12 -2.24,-1.71 z M 5457.74,561.82 c -11.17,-16.718 -18.17,-26.57 -20.9,-29.3 -19.57,-22.309 -39.15,-41.77 -58.59,-58.489 l -12.6,-4.16 h -8.32 c -22.28,-2.742 -47.32,-2.742 -75.21,0 -47.33,2.711 -93.25,16.731 -137.86,41.77 -169.89,91.949 -254.85,250.711 -254.85,476.371 0,119.778 27.16,240.298 81.5,361.448 54.24,121.2 125.9,222.18 215.13,302.97 l 12.55,8.37 4.16,8.36 21.01,4.2 c 22.18,2.75 36.05,5.53 41.76,8.32 36.07,2.72 75.23,2.72 116.99,0 h 8.31 c 69.51,-44.55 128.14,-100.27 175.6,-167.19 63.94,-89.15 98.71,-197.78 104.4,-325.92 11.15,-217.25 -59.9,-426.218 -213.08,-626.75 z m 1408.23,610.09 c 27.75,19.39 43.05,34.82 45.91,45.96 33.45,144.82 50.07,282.69 50.07,413.61 0,114.27 -13.19,222.23 -39.65,323.92 -26.56,101.68 -71.64,166.46 -135.84,194.29 -36.19,13.87 -84.95,9.78 -146.16,-12.52 -80.81,-27.83 -167.19,-73.8 -259.02,-137.93 -25.15,-16.68 -104.51,-78 -238.24,-183.78 -91.95,-72.56 -161.6,-139.35 -209.07,-200.57 0,-0.06 0,-0.12 0,-0.19 -10.91,24.27 -23.36,47.46 -37.36,69.58 -70.37,110.59 -180.47,194.7 -330.19,252.31 -11.15,2.74 -29.33,-1.42 -54.35,-12.57 -83.66,-30.67 -158.87,-73.8 -225.68,-129.5 -11.14,-5.64 -20.87,-13.93 -29.17,-25.04 -228.53,-119.84 -400.56,-265.43 -516.11,-436.69 -115.59,-171.39 -173.47,-347.571 -173.47,-528.681 0,-108.578 23.73,-206.211 70.95,-292.468 39.15,-69.661 92.67,-126.852 160.88,-171.321 68.34,-44.629 138.59,-66.82 211.08,-66.82 72.5,0 158.87,22.191 259.13,66.82 158.39,69.86 291.51,158.141 399.48,264.68 28.24,27.781 54.69,56.84 79.49,87.09 -4.51,-35.11 -6.87,-67.52 -6.87,-96.809 0,-86.39 16.82,-158.883 50.17,-217.383 58.5,-100.25 183.79,-149.007 376.12,-146.277 181.06,2.848 366.26,55.777 555.75,158.867 122.55,66.801 211.79,125.301 267.56,175.481 94.55,86.269 140.47,176.91 137.87,271.582 -5.71,117 -93.52,228.399 -263.28,334.359" /></g></g></g></g></svg>