<svg width="66" height="68" viewBox="0 0 66 68" fill="none" xmlns="http://www.w3.org/2000/svg">
<path d="M30.7679 35.2577C30.6022 34.9083 30.3519 34.2422 30.5762 33.4225C30.7744 32.678 31.7687 32.198 31.7687 32.198L31.7525 31.9564C31.7525 31.9564 31.0408 32.0347 30.3389 31.6951C29.728 31.3882 29.3608 30.7939 29.0391 30.4902C28.6427 30.1212 28.4639 30.1408 28.4639 30.1408C28.4639 30.1408 28.139 30.1833 27.5508 30.6567C27.0666 31.0551 26.7937 31.2935 26.4687 31.5547C26.147 31.816 25.7083 32.1556 25.7083 32.1556C25.7083 32.1556 25.7928 32.2372 25.8383 32.2437C25.8805 32.2503 26.0787 32.1686 26.2965 32.2241C26.5142 32.2797 26.7774 32.4168 26.9594 32.5311C27.1316 32.6421 27.8075 33.1417 28.2105 33.3964C28.8766 33.8144 29.559 33.8079 29.559 33.8079C29.559 33.8079 28.6069 34.683 28.4217 34.9704C28.2625 35.2349 28.1357 35.6006 28.1682 35.9598C28.1747 35.9957 28.1812 36.0414 28.1877 36.0773C28.3307 36.8349 28.7564 37.3835 28.9676 37.8635C28.9741 37.87 28.9741 37.8766 28.9806 37.8798C29.1788 38.3468 29.1333 38.9084 28.9059 39.1795C28.6134 39.5289 28.2982 39.715 27.8985 39.8032H27.892C27.6255 39.8587 27.3103 39.8652 26.9366 39.8423C26.8132 39.8358 26.6962 39.8228 26.5792 39.8032H26.5727C25.2436 39.617 24.5385 39.0129 24.5385 39.0129C24.5385 39.0129 24.7367 38.9117 24.9089 38.8562C25.0746 38.8007 25.9293 38.4905 26.277 38.079C26.3322 38.017 26.381 37.9549 26.433 37.8798C26.7417 37.4455 27.0374 36.7533 26.8716 35.9598V35.9532C26.6734 35.0193 26.303 34.5491 25.4353 33.7328C24.3337 32.7009 23.5863 32.5376 23.4368 31.7311C23.2256 30.6045 24.259 29.9514 24.259 29.9514L24.2102 29.8143C24.2102 29.8143 23.0079 29.7326 22.15 30.6796C21.2856 31.6233 21.1784 32.7793 21.3864 33.7066C21.5976 34.6471 22.2475 35.4602 22.9202 36.1328C23.3849 36.5998 24.6912 37.3378 24.5482 38.1215C24.3922 39.0031 23.2776 38.8333 22.9267 38.8235C21.7016 38.7974 20.8664 39.6693 20.8762 40.8448L20.9899 40.8383C20.9899 40.8383 21.2564 40.3779 21.9355 40.3909C22.8649 40.4171 23.5213 40.9003 24.3792 41.4359C25.3443 42.04 25.6401 42.2457 26.5012 42.3665C26.9204 42.4351 27.2356 42.3437 27.2356 42.3437C27.2356 42.3437 27.2941 41.622 27.8433 40.9493C28.1585 40.5575 28.7466 40.146 29.2666 39.7999C29.65 39.5452 29.9977 39.3199 30.1862 39.1631C30.7679 38.6766 31.0083 38.3794 31.1838 37.8766C31.2326 37.7394 31.2716 37.5892 31.3138 37.4161C31.4438 36.8937 31.3138 36.4202 31.1091 35.9565C31.0051 35.7181 30.8881 35.4896 30.7711 35.261L30.7679 35.2577Z" fill="black"/>
<path d="M34.4853 36.3875L35.2782 36.27C35.5999 36.221 36.1004 36.1198 36.1004 36.1198C36.1004 36.1198 36.1004 36.0349 36.0939 35.9761C36.0939 35.9663 36.0874 35.9565 36.0874 35.95C36.0841 35.8912 36.0646 35.8389 36.0646 35.8389C36.0646 35.8389 35.093 35.8847 34.4723 35.6953C33.9882 35.5451 33.1725 35.1597 32.9743 34.2258C32.919 33.9907 33.0555 33.3768 33.5365 33.5009C34.1181 33.6511 34.6381 34.5458 34.6381 34.5458C34.6381 34.5458 34.8103 33.8209 34.9175 33.5368C35.0215 33.2495 35.2815 32.6943 35.2815 32.6943C35.2815 32.6943 35.0703 32.3972 34.4593 32.0837C33.7802 31.7408 33.023 31.5972 33.023 31.5972C33.023 31.5972 33.0035 32.2143 32.6038 32.8021C32.2074 33.3997 31.5217 33.7589 31.5217 33.7589C31.5217 33.7589 31.7979 34.2683 31.9247 34.6471C32.1359 35.2871 32.1489 35.9042 32.1489 35.9042C32.1489 35.9042 31.9929 35.9238 31.8759 35.9238C31.7589 35.9238 31.5347 35.8847 31.5347 35.8847C31.5347 35.8847 31.5412 35.9108 31.5412 35.9467C31.5477 35.9957 31.5542 36.0773 31.5607 36.1589C31.5737 36.2896 31.603 36.4692 31.603 36.4692C31.603 36.4692 31.8077 36.4757 31.8922 36.4757C31.9864 36.4757 32.2204 36.4822 32.2204 36.4822C32.2204 36.4822 32.2269 37.1908 32.2334 37.8668L32.2854 43.6204L32.4576 43.6335C32.4576 43.6335 32.5876 43.1731 33.101 42.5951C33.6632 41.9649 34.0856 42.0106 34.3066 41.3999C34.4626 40.9656 34.5178 40.2309 34.5243 39.9828V39.7901C34.5243 39.4178 34.5178 38.6015 34.5048 37.8668C34.4983 37.0831 34.4853 36.381 34.4853 36.381V36.3875Z" fill="black"/>
<path d="M43.4022 35.0224C43.4022 35.0224 43.5744 34.9342 43.8214 34.8134C44.4096 34.526 45.2935 33.824 44.3836 31.9137C43.3567 29.7553 41.7352 30.6826 40.6953 31.2606C39.6489 31.8386 38.7781 32.7888 38.7781 32.7888C38.7781 32.7888 37.4977 31.7145 37.8487 30.8067C38.1086 30.1471 38.908 29.8728 38.908 29.8728L38.8658 29.7324C38.8658 29.7324 36.0647 29.3961 35.6845 32.4917C35.4115 34.7056 36.6983 35.6754 36.9778 35.9432C36.9778 35.9432 36.9821 35.9476 36.9908 35.9563C37.2703 36.2175 38.4693 37.0861 38.4888 37.8763C38.4888 37.9318 38.4823 37.9841 38.4693 38.0396C38.3036 38.8723 36.7633 38.5686 35.9379 38.9898C35.5675 39.176 35.3368 39.4862 35.1938 39.7997C34.9696 40.2764 34.9663 40.7434 34.9663 40.7434L35.0898 40.7989C35.0898 40.7989 35.3725 40.1523 36.3019 40.4005C37.2963 40.6683 37.6829 41.563 38.9633 42.154C39.8602 42.5687 41.1275 42.5393 41.1275 42.5393C41.1275 42.5393 41.1275 41.5891 41.9886 40.8675C42.4956 40.443 43.9871 40.234 44.65 39.878C44.6988 39.8519 44.741 39.8291 44.7865 39.7964C45.3714 39.4274 45.8134 38.7515 45.8881 37.8731V37.811C45.9304 37.0828 45.7874 36.4232 45.4722 35.953C45.027 35.2803 44.1594 35.0648 43.399 35.0191L43.4022 35.0224ZM39.116 32.9815C39.116 32.9815 39.6587 32.4394 40.5263 32.3774C40.9358 32.348 41.4557 32.6582 41.7937 33.2525C42.2908 34.1178 42.3006 34.9211 41.4557 35.2052C41.0658 35.3358 40.7635 35.3358 40.7635 35.3358C40.7635 35.3358 40.3931 34.6762 39.9089 34.1178C39.4962 33.6411 39.1258 33.2003 39.1258 33.2003C39.1258 33.2003 39.0705 33.148 39.0705 33.0925C39.0705 33.037 39.1225 32.9815 39.1225 32.9815H39.116ZM42.4988 39.7964C42.2129 40.0511 41.7547 40.2307 41.1567 40.1262C40.7116 40.038 40.3151 39.9237 39.9674 39.7964C38.8236 39.3686 38.2484 38.7874 38.2484 38.7874L39.064 38.5588C39.4897 38.4347 40.0681 38.2682 40.3931 37.9025C40.3996 37.8894 40.4061 37.8829 40.4126 37.8763C40.7213 37.5106 40.8773 36.9881 40.8903 36.6257C40.9033 36.3383 40.8903 36.0673 40.8838 35.9563C40.8773 35.9236 40.8773 35.904 40.8773 35.904C40.8773 35.904 41.0625 35.6559 41.5727 35.6689C41.7709 35.6754 41.9854 35.7375 42.1966 35.9563C42.4046 36.162 42.6126 36.5212 42.8043 37.1122C42.8823 37.3702 42.9343 37.6282 42.9538 37.8763C43.0155 38.8037 42.7003 39.6168 42.5021 39.7997L42.4988 39.7964Z" fill="black"/>
<path d="M28.3275 20.8338C28.308 20.8338 28.295 20.8763 28.2852 20.971C28.2592 21.1963 28.243 21.3106 28.217 21.5359C28.2105 21.5653 28.2267 21.5947 28.256 21.5947C28.4607 21.5881 28.4802 21.5881 28.4737 21.5359C28.4347 21.3073 28.4152 21.1963 28.373 20.9677C28.3567 20.8861 28.3437 20.8306 28.3242 20.8306L28.3275 20.8338Z" fill="black"/>
<path d="M50.3237 20.7686C50.2912 20.7686 50.2717 20.7816 50.2685 20.8175C50.2457 21.0363 50.236 21.1441 50.2132 21.3629C50.21 21.4053 50.2197 21.4184 50.2522 21.4216C50.4082 21.438 50.4245 21.2714 50.4505 21.0004C50.4635 20.8633 50.3822 20.7784 50.3237 20.7718V20.7686Z" fill="black"/>
<path d="M39.8245 20.0405C39.792 20.0405 39.7725 20.0569 39.7693 20.0928C39.7595 20.3116 39.7563 20.4193 39.7498 20.6381C39.7498 20.6805 39.7595 20.6903 39.792 20.6936C39.948 20.7001 39.9545 20.5336 39.9642 20.2593C39.9707 20.1222 39.883 20.0405 39.8245 20.0405Z" fill="black"/>
<path d="M13.3956 22.0453C13.3729 21.9637 13.3534 21.9114 13.3339 21.9147C13.3144 21.9147 13.3079 21.9604 13.3047 22.0551C13.2982 22.2837 13.2949 22.398 13.2852 22.6266C13.2852 22.6559 13.2982 22.6853 13.3307 22.6821C13.5354 22.6592 13.5549 22.6559 13.5419 22.6037C13.4834 22.3816 13.4541 22.2706 13.3924 22.0453H13.3956Z" fill="black"/>
<path d="M33.0458 16.687C24.0444 16.687 15.0919 17.3923 7.13367 18.7279L7.97206 26.6628C15.8133 25.4057 24.2459 24.7656 33.0458 24.7656C41.8456 24.7656 50.2782 25.4024 58.1195 26.6628L58.9611 18.7279C51.0029 17.3923 42.0503 16.687 33.0458 16.687ZM10.5685 24.6514C9.69108 24.7689 9.09316 24.106 8.97292 23.2668C8.90793 22.7999 8.87219 22.5648 8.8072 22.0978C8.65447 21.0267 9.11916 20.3247 10.0063 20.2039C10.9552 20.0765 11.5433 20.7459 11.6506 21.5949C11.6701 21.7549 11.6733 21.7713 11.6148 21.7778C11.1404 21.8529 10.9032 21.8921 10.432 21.9737C10.3735 21.9802 10.3117 21.9411 10.302 21.8725C10.2825 21.7255 10.2728 21.6504 10.2533 21.5002C10.2435 21.4186 10.1883 21.3957 10.1363 21.4023C10.0843 21.4088 10.0388 21.4578 10.0485 21.5231C10.146 22.2545 10.1948 22.6203 10.2923 23.355C10.2988 23.4138 10.3507 23.4497 10.406 23.4399C10.471 23.4301 10.5002 23.3811 10.4937 23.3191C10.4612 23.0807 10.445 22.9631 10.4157 22.7248C10.4125 22.6888 10.4287 22.6333 10.4807 22.6333C10.9649 22.5843 11.2086 22.5615 11.6961 22.5158C11.7286 22.5125 11.7513 22.5321 11.7546 22.555C11.9333 23.9754 11.3679 24.5436 10.5717 24.6514H10.5685ZM15.0691 24.0864C14.6597 24.1322 14.4517 24.1517 14.0423 24.2007C14.0033 24.204 13.9643 24.1844 13.9545 24.1517C13.8635 23.8023 13.818 23.6293 13.727 23.2799C13.7173 23.2505 13.6913 23.2374 13.6588 23.2407C13.5223 23.257 13.4508 23.2636 13.3144 23.2799C13.2884 23.2799 13.2656 23.3093 13.2656 23.3452C13.2591 23.6979 13.2526 23.8742 13.2461 24.2268C13.2461 24.2693 13.2039 24.2987 13.1714 24.302C12.7522 24.3509 12.5442 24.3771 12.1283 24.4293C12.073 24.4358 12.034 24.3999 12.0405 24.3379C12.1673 22.5941 12.2355 21.7255 12.3817 19.9818C12.3817 19.9524 12.411 19.9067 12.45 19.9002C12.9569 19.8381 13.2104 19.8087 13.7173 19.7532C13.7628 19.7467 13.7985 19.7794 13.8115 19.8218C14.3542 21.4708 14.6239 22.297 15.1504 23.9493C15.1699 24.0113 15.1439 24.0799 15.0756 24.0897L15.0691 24.0864ZM18.023 23.7958C17.5485 23.8383 17.3113 23.8611 16.8369 23.9068C16.8109 23.9068 16.7719 23.8905 16.7622 23.8546C16.6094 23.4399 16.5314 23.2309 16.3787 22.8195C16.3592 22.7607 16.3332 22.7411 16.3137 22.7411C16.2942 22.7411 16.2845 22.7672 16.291 22.826C16.3332 23.244 16.3527 23.4529 16.3949 23.8709C16.3982 23.9134 16.3657 23.9526 16.3202 23.9558C15.9335 23.995 15.7418 24.0146 15.3551 24.0538C15.3161 24.057 15.2868 24.0244 15.2836 23.9787C15.1049 22.2709 15.0139 21.4153 14.8352 19.7075C14.8319 19.6651 14.8579 19.6259 14.9001 19.6226C15.3388 19.5769 15.5598 19.554 15.9985 19.5083C16.044 19.5051 16.0797 19.5247 16.096 19.5704C16.304 20.0863 16.4079 20.3443 16.6127 20.8635C16.6289 20.9092 16.6517 20.932 16.6647 20.9288C16.6842 20.9288 16.7004 20.9027 16.6972 20.8471C16.6484 20.3182 16.6224 20.0569 16.5704 19.5279C16.5672 19.4855 16.5964 19.4463 16.6419 19.443C17.0319 19.4071 17.2268 19.3875 17.62 19.3516C17.672 19.3483 17.7078 19.3842 17.711 19.4267C17.8638 21.1378 17.9385 21.9933 18.088 23.7044C18.0912 23.7468 18.0685 23.7828 18.0262 23.7893L18.023 23.7958ZM21.0841 23.5509C20.6096 23.5836 20.3724 23.6032 19.898 23.6391C19.872 23.6391 19.833 23.6195 19.8232 23.5868C19.677 23.1689 19.6055 22.9599 19.4593 22.5419C19.443 22.4831 19.4138 22.4635 19.3943 22.4635C19.3748 22.4635 19.3651 22.4896 19.3683 22.5484C19.4008 22.9664 19.4203 23.1787 19.4528 23.5966C19.456 23.6391 19.4203 23.6783 19.3781 23.6815C18.9914 23.7142 18.7996 23.7305 18.4129 23.7632C18.3739 23.7664 18.3479 23.7338 18.3414 23.6848C18.192 21.9737 18.1172 21.1182 17.971 19.4071C17.9677 19.3647 17.997 19.3287 18.036 19.3222C18.4747 19.283 18.6956 19.2667 19.1376 19.2308C19.1831 19.2275 19.2188 19.2471 19.2351 19.2961C19.4333 19.8153 19.534 20.0765 19.729 20.599C19.7453 20.6447 19.768 20.6676 19.781 20.6676C19.8005 20.6676 19.8167 20.6414 19.8135 20.5859C19.7745 20.0569 19.7518 19.7924 19.7128 19.2667C19.7128 19.2242 19.7388 19.1883 19.7843 19.1851C20.1742 19.1557 20.3692 19.1393 20.7624 19.1132C20.8144 19.1099 20.8501 19.1491 20.8534 19.1916C20.9736 20.9059 21.0353 21.7615 21.1556 23.4758C21.1556 23.5183 21.1361 23.5542 21.0906 23.5574L21.0841 23.5509ZM22.7836 23.4562C21.8185 23.515 21.3278 22.8978 21.2628 21.9476C21.2628 21.9182 21.2856 21.8855 21.3343 21.8823C21.6885 21.8398 21.864 21.8202 22.2182 21.7811C22.2637 21.7811 22.2897 21.8006 22.2994 21.8529C22.3417 22.088 22.4652 22.3362 22.6179 22.3264C22.7089 22.3198 22.7609 22.2643 22.7544 22.1272C22.7446 21.9835 22.3709 21.7451 21.9192 21.4545C21.4675 21.1639 21.2238 20.7329 21.1946 20.3312C21.1523 19.7271 21.604 19.0316 22.4781 18.9793C23.3523 18.9271 23.9275 19.5214 23.9632 20.2267C23.9632 20.2692 23.9405 20.3051 23.8885 20.3084C23.492 20.3475 23.297 20.3671 22.9006 20.4063C22.8616 20.4063 22.8356 20.3933 22.8194 20.3443C22.7706 20.2039 22.7024 20.1386 22.6114 20.1418C22.5464 20.1451 22.5171 20.1941 22.5204 20.2561C22.5334 20.4455 22.8486 20.6414 23.2515 20.8602C23.6837 21.0986 24.0249 21.5068 24.0477 21.9476C24.0899 22.7411 23.6155 23.404 22.7836 23.4529V23.4562ZM26.2866 23.257C25.8545 23.2734 25.6367 23.2831 25.2045 23.306C25.159 23.306 25.1136 23.2733 25.1103 23.2276C25.0518 21.99 25.0226 21.3696 24.9641 20.1288C24.9641 20.0863 24.9218 20.0602 24.8763 20.0602C24.6164 20.0732 24.4864 20.0798 24.2297 20.0928C24.1907 20.0928 24.1419 20.0504 24.1419 20.0145C24.1192 19.5932 24.1094 19.381 24.0867 18.9597C24.0867 18.9238 24.1029 18.8977 24.1419 18.8977C25.2598 18.8389 25.8187 18.8161 26.9333 18.7736C26.9788 18.7736 27.0178 18.7932 27.021 18.8422C27.0373 19.2602 27.0438 19.4691 27.0568 19.8871C27.0568 19.9328 27.0211 19.972 26.9691 19.972C26.7091 19.9818 26.5791 19.9851 26.3224 19.9949C26.2769 19.9949 26.2444 20.0275 26.2477 20.0798C26.2964 21.3174 26.3224 21.9345 26.3711 23.1721C26.3711 23.2146 26.3354 23.2505 26.2866 23.2538V23.257ZM29.8612 23.1493C29.4485 23.1558 29.2438 23.1623 28.8311 23.1721C28.7921 23.1721 28.7531 23.1493 28.7466 23.1133C28.6848 22.7574 28.6556 22.5811 28.5971 22.2252C28.5906 22.1958 28.5646 22.1794 28.5321 22.1794C28.3924 22.1827 28.3241 22.186 28.1876 22.1892C28.1617 22.1892 28.1389 22.2154 28.1324 22.2513C28.0934 22.6007 28.0739 22.777 28.0382 23.1264C28.0317 23.1689 27.9894 23.195 27.9569 23.195C27.5377 23.208 27.3265 23.2146 26.9073 23.2309C26.8488 23.2309 26.8163 23.1917 26.8261 23.1329C27.1023 21.4088 27.2453 20.5467 27.541 18.8226C27.5475 18.7932 27.5767 18.7508 27.6157 18.7475C28.1259 18.7312 28.3794 18.7246 28.8896 18.7116C28.935 18.7116 28.9675 18.7442 28.9773 18.7867C29.3737 20.4782 29.5687 21.3206 29.9522 23.0154C29.9652 23.0807 29.9359 23.146 29.8644 23.146L29.8612 23.1493ZM32.3536 19.8643C32.0936 19.8643 31.9637 19.8643 31.7037 19.8675C31.6582 19.8675 31.6257 19.8969 31.6257 19.9524C31.6354 21.19 31.6419 21.8104 31.6517 23.048C31.6517 23.0905 31.6127 23.1264 31.564 23.1264C31.1318 23.1297 30.914 23.1329 30.4818 23.1395C30.4364 23.1395 30.3909 23.1035 30.3909 23.0578C30.3714 21.817 30.3616 21.1965 30.3421 19.959C30.3421 19.9165 30.3031 19.8871 30.2576 19.8904C29.9977 19.8936 29.8677 19.8969 29.6077 19.9034C29.5687 19.9034 29.5232 19.8577 29.5232 19.8218C29.5135 19.3973 29.5102 19.1883 29.5005 18.7638C29.5005 18.7279 29.52 18.705 29.559 18.7018C30.6768 18.6789 31.2357 18.6724 32.3536 18.6659C32.3991 18.6659 32.4381 18.6887 32.4381 18.7377C32.4381 19.1557 32.4381 19.3646 32.4413 19.7826C32.4413 19.8283 32.4023 19.8643 32.3503 19.8675L32.3536 19.8643ZM35.5577 19.7957C35.5577 19.8414 35.5187 19.8773 35.4667 19.8773C35.2067 19.8741 35.0767 19.8708 34.82 19.8708C34.7745 19.8708 34.742 19.9002 34.742 19.9524C34.7323 21.19 34.7258 21.8104 34.7128 23.048C34.7128 23.0905 34.6738 23.1264 34.6218 23.1231C34.1896 23.1199 33.9719 23.1166 33.5397 23.1166C33.4942 23.1166 33.452 23.0807 33.452 23.0317C33.452 21.7909 33.452 21.1704 33.4585 19.9296C33.4585 19.8871 33.4195 19.8577 33.374 19.8577C33.114 19.8577 32.984 19.8577 32.7273 19.8577C32.6883 19.8577 32.6428 19.8087 32.6428 19.7761C32.6428 19.3516 32.6428 19.1426 32.6428 18.7181C32.6428 18.6822 32.6623 18.6593 32.7013 18.6593C33.8192 18.6593 34.3781 18.6593 35.4959 18.6756C35.5414 18.6756 35.5804 18.7018 35.5804 18.7475C35.5739 19.1655 35.5707 19.3744 35.5674 19.7924L35.5577 19.7957ZM38.2386 19.8708C38.2386 19.9067 38.2028 19.9296 38.1671 19.9296C37.7349 19.9165 37.5172 19.91 37.085 19.9002C37.059 19.9002 37.0395 19.9165 37.0395 19.9394C37.0395 20.0732 37.0362 20.1386 37.033 20.2724C37.033 20.2953 37.059 20.3149 37.0785 20.3149C37.2832 20.3182 37.3839 20.3214 37.5887 20.3279C37.6147 20.3279 37.6342 20.3475 37.6342 20.3704C37.6244 20.8014 37.6179 21.0202 37.6049 21.4512C37.6049 21.4806 37.5789 21.5035 37.5529 21.5035C37.3449 21.497 37.241 21.497 37.033 21.4904C37.007 21.4904 36.9875 21.5068 36.9875 21.5361C36.9875 21.6766 36.9842 21.7451 36.981 21.8855C36.981 21.9084 37.0005 21.928 37.02 21.928C37.4619 21.9378 37.6861 21.9443 38.1281 21.9574C38.1736 21.9574 38.1963 21.99 38.1963 22.0194C38.1833 22.4603 38.1768 22.6823 38.1638 23.1231C38.1638 23.1591 38.1313 23.1884 38.0923 23.1852C37.1825 23.1591 36.7275 23.1493 35.8144 23.1329C35.7754 23.1329 35.7462 23.097 35.7462 23.0546C35.7722 21.3337 35.7851 20.4749 35.8111 18.754C35.8111 18.7181 35.8501 18.6756 35.8989 18.6789C36.825 18.692 37.2897 18.705 38.2158 18.7312C38.2548 18.7312 38.2808 18.7638 38.2776 18.7997C38.2646 19.2275 38.2581 19.4398 38.2451 19.8675L38.2386 19.8708ZM40.6173 23.2962C40.1591 23.2766 39.8666 22.9664 39.8894 22.408C39.9024 22.0423 39.9121 21.8594 39.9251 21.4937C39.9316 21.3043 39.8471 21.2063 39.7756 21.2031C39.7366 21.2031 39.7301 21.2325 39.7269 21.2717C39.6976 22.0325 39.6846 22.4113 39.6554 23.1721C39.6554 23.208 39.6196 23.2407 39.5774 23.2407C39.142 23.2244 38.9242 23.2178 38.4888 23.2015C38.4433 23.2015 38.4141 23.1689 38.4141 23.1231C38.466 21.4023 38.492 20.5402 38.5473 18.8193C38.5473 18.7769 38.583 18.7475 38.622 18.7508C39.2037 18.7703 39.4962 18.7801 40.0778 18.803C40.653 18.8259 41.3192 19.2602 41.2834 19.9851C41.2672 20.3051 41.1762 20.8896 40.5588 20.9451C40.5588 20.9484 40.5588 20.9516 40.5588 20.9582C41.3354 21.1998 41.3159 21.5884 41.2867 22.1925C41.2834 22.2643 41.3127 22.3362 41.4492 22.3982C41.4817 22.4178 41.5044 22.4603 41.5044 22.4831C41.4654 23.2897 40.8252 23.3093 40.6173 23.2995V23.2962ZM45.6314 23.5803C45.1634 23.5444 44.9294 23.5281 44.4615 23.4987C44.4355 23.4987 44.4193 23.4791 44.4128 23.4464C44.3478 22.9697 44.3153 22.728 44.247 22.2513C44.2438 22.2219 44.2308 22.2088 44.2178 22.2088C44.2048 22.2088 44.1983 22.2252 44.195 22.2545C44.1658 22.7117 44.1495 22.9403 44.1203 23.3974C44.1203 23.4334 44.0781 23.4725 44.0326 23.4693C43.6069 23.4431 43.3956 23.4301 42.97 23.404C42.931 23.404 42.8952 23.3582 42.8985 23.3093C42.9959 21.5884 43.0447 20.7296 43.1454 19.0087C43.1454 18.9793 43.1747 18.9499 43.2072 18.9532C43.6524 18.9793 43.8733 18.9924 44.3153 19.0218C44.3673 19.025 44.3998 19.0512 44.3965 19.0871C44.3705 19.4985 44.3575 19.7075 44.3283 20.119C44.3283 20.1418 44.3315 20.1614 44.3445 20.1614C44.3575 20.1614 44.3705 20.1516 44.3868 20.1222C44.5135 19.714 44.5785 19.5083 44.7085 19.1002C44.7247 19.0708 44.7507 19.0479 44.7832 19.0512C45.2414 19.0806 45.4721 19.0969 45.9303 19.1328C45.9563 19.1328 45.9758 19.1524 45.9726 19.1851C45.9726 19.1981 45.9726 19.2079 45.9628 19.221C45.5729 19.9818 45.3811 20.3606 45.0009 21.1247C44.9879 21.1476 44.9782 21.1868 44.9749 21.1998C44.9749 21.2129 44.9749 21.2488 44.9847 21.2651C45.2609 22.1664 45.3974 22.6203 45.6671 23.5248C45.6768 23.5607 45.6638 23.5836 45.6249 23.5803H45.6314ZM47.1457 23.6979C46.3008 23.6293 45.8686 23.0056 45.9141 22.3852C46.0083 21.1182 46.0538 20.4847 46.1513 19.2144C46.1513 19.172 46.1838 19.1524 46.2228 19.1557C46.6647 19.1883 46.8857 19.2079 47.3309 19.2438C47.3699 19.2438 47.4024 19.2732 47.3959 19.3157C47.2984 20.5173 47.2496 21.1214 47.1489 22.3231C47.1424 22.4015 47.1716 22.457 47.2464 22.4635C47.3244 22.4701 47.3601 22.4178 47.3666 22.3492C47.4674 21.141 47.5161 20.5369 47.6168 19.3287C47.6168 19.2993 47.6526 19.2732 47.6916 19.2765C48.1335 19.3124 48.3512 19.332 48.7932 19.3712C48.8257 19.3712 48.8647 19.394 48.8582 19.4365C48.7444 20.7035 48.686 21.3402 48.5722 22.6072C48.517 23.2342 47.9808 23.7697 47.1424 23.7011L47.1457 23.6979ZM50.9184 24.0636C50.4635 24.0146 50.1873 23.6881 50.2425 23.1329C50.2782 22.7705 50.2977 22.5876 50.3335 22.2219C50.353 22.0325 50.2717 21.928 50.2003 21.9215C50.1613 21.9182 50.1515 21.9476 50.1483 21.9868C50.0735 22.7444 50.0345 23.1231 49.9598 23.8774C49.9565 23.9134 49.9208 23.946 49.8753 23.9395C49.4431 23.897 49.2254 23.8742 48.7899 23.835C48.7444 23.8317 48.7184 23.7991 48.7217 23.7501C48.8777 22.0358 48.9557 21.177 49.1149 19.4626C49.1181 19.4202 49.1539 19.394 49.1929 19.3973C49.7746 19.4528 50.0638 19.4789 50.6454 19.5377C51.2174 19.5965 51.8575 20.07 51.7795 20.7916C51.7438 21.1116 51.6171 21.6864 50.9996 21.706C50.9996 21.7092 50.9996 21.7125 50.9996 21.719C51.7633 22.0064 51.7178 22.395 51.6528 22.9958C51.6463 23.0676 51.6691 23.1395 51.8023 23.208C51.8315 23.2309 51.8543 23.2733 51.851 23.2962C51.7633 24.0995 51.1231 24.0766 50.9152 24.057L50.9184 24.0636ZM53.6253 24.3607C53.1314 24.302 52.8844 24.2726 52.3905 24.2138C52.3515 24.2105 52.3255 24.1648 52.3222 24.1354C52.1727 22.3786 52.0948 21.5035 51.929 19.7467C51.9258 19.7173 51.942 19.6814 51.981 19.6879C52.4457 19.7402 52.6797 19.7663 53.1444 19.8185C53.1834 19.8218 53.2126 19.8447 53.2159 19.8871C53.2646 20.6414 53.2873 21.0169 53.3296 21.7713C53.3296 21.8006 53.3491 21.8202 53.3556 21.8235C53.3686 21.8235 53.3913 21.8104 53.3946 21.7811C53.5896 21.0627 53.687 20.7035 53.882 19.9851C53.9015 19.9459 53.9308 19.9132 53.9698 19.9165C54.4149 19.972 54.6392 19.9981 55.0876 20.0537C55.1266 20.0602 55.1493 20.0961 55.1364 20.1386C54.5579 21.8006 54.2752 22.6333 53.7163 24.302C53.7065 24.3411 53.6708 24.3673 53.6253 24.364V24.3607ZM57.5703 21.5329C57.5638 21.5688 57.5313 21.5884 57.4923 21.5819C57.0634 21.5198 56.8456 21.4904 56.4167 21.4317C56.3907 21.4284 56.3712 21.4447 56.3679 21.4676C56.3517 21.5982 56.3419 21.6668 56.3224 21.7974C56.3224 21.8202 56.3419 21.8431 56.3614 21.8464C56.5662 21.8725 56.6669 21.8888 56.8684 21.9149C56.8944 21.9182 56.9106 21.9378 56.9074 21.9639C56.8489 22.3917 56.8196 22.6072 56.7579 23.035C56.7546 23.0644 56.7254 23.084 56.6994 23.0807C56.4914 23.0513 56.3907 23.0382 56.1827 23.0089C56.1567 23.0056 56.1372 23.0219 56.1307 23.0513C56.1112 23.1917 56.1015 23.2603 56.0852 23.3974C56.0852 23.4203 56.0982 23.4399 56.1177 23.4432C56.5597 23.5019 56.7774 23.5346 57.2193 23.5966C57.2648 23.6032 57.2843 23.6358 57.2811 23.6652C57.2193 24.1028 57.1868 24.3215 57.1251 24.7591C57.1186 24.795 57.0828 24.8179 57.0471 24.8146C56.1437 24.6873 55.6888 24.6252 54.7822 24.5077C54.7432 24.5011 54.7172 24.462 54.7237 24.4228C54.9414 22.715 55.0486 21.8627 55.2663 20.1581C55.2696 20.1222 55.3151 20.0863 55.3606 20.0928C56.2835 20.2104 56.7416 20.2757 57.6645 20.4063C57.7035 20.4128 57.7263 20.4455 57.7198 20.4814C57.6613 20.9059 57.6288 21.1149 57.5703 21.5394V21.5329Z" fill="black"/>
<path d="M65.5285 20.5987C63.6827 19.8771 61.629 19.6028 59.8677 19.4134L59.962 18.5252C59.9977 18.1823 59.7637 17.8688 59.4225 17.8133C58.1877 17.6043 56.9268 17.4084 55.6465 17.2288C55.627 17.0427 55.666 16.8239 55.6628 16.6345C55.653 16.099 55.6303 15.5602 55.6108 15.0247C55.5848 14.2083 55.5588 13.3887 55.5328 12.5723L55.5653 12.0597L55.9552 11.7658L56.9626 11.0082L55.7668 10.6229L51.5098 9.25142L51.3083 9.18612L51.1069 9.25142L46.213 10.8547H43.5419L43.3956 10.0874L43.4151 10.0678L44.2275 9.25142L43.3956 9.04244V8.96407L43.9643 8.12812L44.4322 7.43912L43.6556 7.14523L43.2072 6.97543L43.1909 6.71094L43.3924 6.24725L43.7888 5.33293H36.5618V4.93782H36.3213C36.3051 4.87577 36.2823 4.81373 36.2531 4.75495C36.2336 4.71903 36.2173 4.68638 36.1978 4.65699C36.1978 4.6374 36.1978 4.61781 36.1978 4.60148C36.3018 4.48392 36.3668 4.32392 36.3668 4.14759C36.3668 4.07901 36.3571 4.01697 36.3408 3.90595C36.3343 3.8635 36.3213 3.78513 36.3148 3.71982C36.3636 3.58267 36.3766 3.42266 36.3506 3.2496C36.2791 2.8055 35.9509 2.60958 35.6552 2.60958C35.5057 2.60958 35.3627 2.65856 35.2425 2.74999C35.1255 2.83816 34.8883 3.08633 34.7323 3.27899C34.6933 3.17123 34.638 3.08959 34.5893 3.02755C34.5535 2.74019 34.4333 2.35161 34.2351 2.15242C34.1798 2.09691 34.1246 2.05772 34.0661 2.02507C34.1116 1.84547 34.0921 1.65934 34.0076 1.48954C33.9946 1.46015 33.9784 1.43403 33.9621 1.40464C34.0921 1.20218 34.1831 1.05198 34.1831 0.836458C34.1831 0.385831 33.8581 0.0331668 33.4487 0.0331668C33.2927 0.0331668 33.1432 0.0854131 33.0133 0.183375C32.9743 0.212764 32.9385 0.248683 32.906 0.281338C32.8573 0.25848 32.8053 0.232357 32.7565 0.209499C32.7565 0.209499 32.1164 -0.172555 31.8727 0.0952092C31.6289 0.362973 31.8272 0.921358 31.8272 0.921358C31.8434 1.00626 31.9116 1.28382 32.1034 1.51893C32.0286 1.73118 32.0059 1.98915 32.1651 2.23079C32.1846 2.26018 32.2041 2.28304 32.2204 2.30589C32.1099 2.43324 32.0156 2.61611 31.9929 2.86101C31.8304 2.97204 31.7134 3.10592 31.6354 3.25613C31.5964 3.21041 31.5542 3.1647 31.5022 3.11572C31.4275 3.04061 31.1935 2.8055 30.8458 2.8055C30.6996 2.8055 30.4883 2.84795 30.2804 3.05694C30.1016 3.24633 29.9457 3.61532 30.0854 4.0333C30.1309 4.17371 30.1959 4.31086 30.2446 4.42188C30.2544 4.44147 30.2609 4.46107 30.2706 4.47739C30.2706 4.49699 30.2641 4.51984 30.2609 4.5427C30.1666 4.66679 30.1114 4.81046 30.0789 4.93782H29.7962V5.15007H29.533V5.47334L23.557 5.52232L22.2702 5.53212L23.0436 6.56726L23.2418 6.83502L23.1183 7.1485L23.0988 7.19422L22.7251 7.39994L22.0459 7.77219L22.5301 8.37956L22.9948 8.96407L22.9168 9.70205L22.9006 9.87185L22.9688 10.0286L23.0501 10.218L22.9168 10.9592L19.5145 10.9135L14.7182 9.41143L14.5232 9.34939L14.3282 9.41143L10.2305 10.7307L9.12239 11.0866L10.0063 11.8474L10.5165 12.285V12.3862L10.2175 17.2647C9.01841 17.4345 7.83881 17.6174 6.67871 17.8166C6.34076 17.8754 6.10354 18.1856 6.14254 18.5285L6.23352 19.3971C4.43976 19.5865 2.31454 19.8542 0.413539 20.5987C0.117828 20.7163 -0.0511496 21.0298 0.0138419 21.34C0.0755837 21.6437 0.342049 21.8592 0.650758 21.8592C0.660507 21.8592 0.670255 21.8592 0.676755 21.8592H0.70925C1.75236 21.8592 3.84509 23.4952 5.07018 24.6544C4.98894 25.2062 4.58274 26.7638 2.51926 29.1541C2.31454 29.3892 2.30804 29.7386 2.49976 29.9868C2.6265 30.1501 2.81822 30.235 3.00995 30.235C3.11068 30.235 3.21142 30.2121 3.30566 30.1631C5.59336 28.9778 10.0225 28.6055 10.068 28.6023C10.4255 28.5729 10.6919 28.2594 10.6627 27.9002L10.6107 27.2602C10.6757 27.2504 10.7374 27.2406 10.8024 27.2308C11.3873 31.7762 12.45 37.3307 14.3932 42.4999C19.5665 56.306 31.8889 66.2949 32.971 67.157C34.0531 66.2949 46.3755 56.3093 51.5488 42.4999C53.4921 37.3209 54.5579 31.7599 55.1396 27.2079C55.2046 27.2177 55.2696 27.2243 55.3346 27.234L55.2826 27.9002C55.2533 28.2594 55.5198 28.5729 55.8772 28.6023C55.9227 28.6055 60.3519 28.9778 62.6396 30.1631C62.7338 30.2121 62.8346 30.235 62.9386 30.235C63.1335 30.235 63.322 30.1468 63.4487 29.9868C63.6405 29.7419 63.634 29.3925 63.4292 29.1541C61.3658 26.7638 60.9563 25.2062 60.8783 24.6544C62.1067 23.4952 64.1994 21.8559 65.2393 21.8559H65.2718C65.2718 21.8559 65.2913 21.8559 65.2978 21.8559C65.6032 21.8559 65.8697 21.6404 65.9347 21.3367C65.9997 21.0232 65.8307 20.7098 65.535 20.5955L65.5285 20.5987ZM10.4222 11.3511L14.5199 10.0319L19.4073 11.5633L23.453 11.6156L23.7162 10.1364L23.557 9.76736L23.661 8.76488L23.0306 7.97138L23.609 7.65464L23.713 7.39014H23.9242L23.8722 6.59664L23.557 6.17541L30.1796 6.12316V5.80642H30.4428V5.59743H30.9335C30.8783 5.55171 30.797 5.48967 30.7321 5.44722C30.6216 5.38191 30.7093 4.96394 30.797 4.92149C30.8848 4.87904 30.9368 4.44474 30.914 4.35657C30.8913 4.26841 30.7613 4.02676 30.6963 3.83084C30.6313 3.63165 30.7483 3.51083 30.7483 3.51083C30.7775 3.48144 30.8068 3.46511 30.8425 3.46511C30.8913 3.46511 30.953 3.49777 31.0375 3.58593C31.1772 3.72308 31.2357 3.80472 31.3657 4.00391C31.4957 4.19983 31.4957 4.22269 31.5834 4.24555C31.6712 4.26841 31.7817 4.42188 31.7817 4.51005C31.7817 4.56882 31.8402 4.60801 31.8921 4.60801C31.9181 4.60801 31.9409 4.59821 31.9571 4.57536C31.9994 4.51005 31.9994 4.33371 32.0676 4.24555C32.1326 4.15738 32.1976 4.13452 32.1781 3.78512C32.1554 3.43573 32.4251 3.38348 32.5388 3.30184C32.659 3.21368 32.6363 3.10265 32.6363 2.97204C32.6363 2.84142 32.6785 2.75325 32.7663 2.68468C32.854 2.61937 32.8963 2.66182 33.0068 2.44304C33.1172 2.22426 32.8768 2.2014 32.8768 2.11323C32.8768 2.02507 32.7468 1.9369 32.7013 1.87159C32.659 1.80628 32.7663 1.60709 32.854 1.47648C32.9418 1.34586 32.7663 1.28055 32.6363 1.14667C32.5063 1.01606 32.4608 0.794007 32.4608 0.794007C32.4608 0.794007 32.9418 1.03565 33.049 1.05851C33.0522 1.05851 33.0555 1.05851 33.062 1.05851C33.1692 1.05851 33.3155 0.771149 33.4 0.705841C33.4162 0.692779 33.4324 0.689514 33.4454 0.689514C33.5039 0.689514 33.5299 0.784211 33.5299 0.839723C33.5299 0.905031 33.2245 1.30015 33.2245 1.38831C33.2245 1.47648 33.335 1.6071 33.4194 1.78343C33.5072 1.95976 33.1562 2.09038 33.1562 2.09038C33.1562 2.09038 33.3317 2.26671 33.3317 2.35488C33.3317 2.44304 33.4194 2.4659 33.4844 2.50835C33.5494 2.55406 33.7022 2.55406 33.7672 2.61937C33.8321 2.68468 33.9426 2.99163 33.9426 3.19082C33.9426 3.39001 34.0954 3.4096 34.1181 3.52063C34.1409 3.63165 34.1181 3.91574 34.1831 4.09207C34.2481 4.26841 34.3586 4.18024 34.4008 4.31086C34.4366 4.41535 34.4138 4.56229 34.4496 4.56229C34.4593 4.56229 34.4723 4.5525 34.4886 4.52964C34.5763 4.41862 34.664 4.35331 34.794 4.31086C34.924 4.26841 35.0117 4.288 35.0345 4.19983C35.0572 4.11167 35.0995 3.89288 35.1645 3.78186C35.2295 3.6741 35.5349 3.34429 35.6227 3.27899C35.6324 3.27246 35.6389 3.26919 35.6454 3.26919C35.7136 3.26919 35.7234 3.52063 35.6649 3.54022C35.5999 3.56308 35.7071 4.08881 35.7071 4.15412C35.7071 4.17044 35.7006 4.17697 35.6909 4.17697C35.6747 4.17697 35.6519 4.16391 35.6259 4.15412C35.5999 4.14106 35.5674 4.13126 35.5382 4.13126C35.5284 4.13126 35.5219 4.13126 35.5122 4.13126C35.4244 4.15412 35.5772 4.56882 35.5349 4.74516C35.4927 4.92149 35.5772 4.87577 35.6649 5.0521C35.7981 5.32313 35.4147 5.39497 35.3529 5.60069C35.3984 5.60069 35.9054 5.5909 35.9054 5.59416V5.80642L36.0906 5.99254H42.7912L42.528 6.59991L42.58 7.44565L43.4216 7.7624L42.7392 8.76488V9.55837L42.9504 9.61062L42.6872 9.87512L43.0024 11.5111H46.3137L51.3051 9.87512L55.562 11.2466L54.9316 11.7233L54.8796 12.5691L55.0259 17.1505C54.9154 17.1341 54.8081 17.1211 54.7009 17.1047L54.5547 12.6115V12.5821V12.5528L54.5969 11.8605L54.6164 11.5601L54.8569 11.3805L54.8634 11.3739L51.3051 10.2278L46.4632 11.8148L46.3657 11.8474H42.7327L42.632 11.3184L42.4013 10.1168L42.3363 9.77716L42.4143 9.69879V8.67671L42.528 8.51018L42.9212 7.93546L42.6645 7.8375L42.2713 7.69056L42.2453 7.26932L42.2095 6.7142L42.1998 6.55746L42.2615 6.41378L42.294 6.33541H35.5804V5.9403H35.158L35.3497 5.18272L35.1807 4.97373L35.2132 4.69618C35.2132 4.69618 35.2132 4.67005 35.2067 4.59821L35.2002 4.55903L34.898 4.63087H34.8818C34.8818 4.63087 34.872 4.64066 34.8655 4.64066L34.4463 4.83006L34.1539 4.52311L33.8971 4.39902L33.8321 4.08881C33.8061 3.97125 33.7996 3.84717 33.7964 3.71655C33.7964 3.69043 33.7964 3.6643 33.7964 3.64471L33.6177 3.46511L33.6112 3.20715C33.6112 3.12225 33.5689 2.9753 33.5332 2.8904C33.5299 2.8904 33.5267 2.8904 33.5202 2.8904H33.5137L33.5007 2.88714L33.4617 2.87734L33.2407 2.8153L32.9515 2.97204C32.9515 2.97204 32.9515 2.9851 32.9515 2.9949V3.04714C32.9515 3.04714 32.9515 3.06347 32.9515 3.07653V3.47491L32.5908 3.66104C32.4868 3.71655 32.4868 3.71982 32.4901 3.78512C32.5031 3.97125 32.5226 4.32392 32.2204 4.54923L31.8304 4.83985L31.4502 4.56556L31.2715 4.49372L31.2357 4.43821C31.2357 4.59495 31.2032 4.7974 31.174 4.89863L31.1285 5.06517L31.0278 5.16639C31.018 5.19578 31.0018 5.25456 30.9985 5.31334L30.9693 5.93377H30.7613V6.15581H30.4981V6.46929L29.8547 6.47582L24.1874 6.52154L24.2004 6.69787L24.2232 7.04401L24.2687 7.73954H23.9307L23.8625 7.90608L23.6577 8.0171L23.5212 8.0922L23.8267 8.47426L23.9924 8.68324L23.9632 8.95101L23.882 9.73471L23.9697 9.93716L24.0477 10.1168L24.0119 10.3094L23.8137 11.4197L23.7162 11.965L23.1638 11.9585L19.4398 11.9095H19.3455L19.2546 11.8801L14.5102 10.3943L11.0624 11.5046L11.2444 11.6613L11.4718 11.8572V12.1576V12.4091V12.4515L11.1826 17.1505C11.0721 17.1668 10.9649 17.1798 10.8544 17.1962L11.1469 12.4287V12.0074L10.4125 11.3739L10.4222 11.3511ZM53.765 16.9807C53.2581 16.9153 52.7447 16.8533 52.2312 16.7945C52.0232 15.9031 51.6788 15.1684 51.1166 15.103C49.2741 14.8843 46.8662 14.45 42.45 14.3128C42.45 13.9863 42.424 13.5781 42.45 12.9511C47.6753 13.1405 51.4968 13.7218 52.137 14.0548C52.6342 14.3128 53.4531 14.5153 53.7618 16.9807H53.765ZM41.1404 15.8998C40.5653 15.8737 39.9868 15.8476 39.4084 15.828L39.3337 10.7209V10.4009L39.6489 10.3911L40.731 10.3551L41.0624 10.3453V10.6784L41.1437 15.9031L41.1404 15.8998ZM37.9071 10.4531V15.779C37.2864 15.7627 36.6625 15.7463 36.0386 15.7365L35.9671 10.7405V10.4009L36.3018 10.4106L37.5919 10.4466L37.9071 10.4564V10.4531ZM32.0286 10.4466L34.4853 10.4041L34.807 10.3976L34.8135 10.7209L34.924 15.7169C34.2968 15.7104 33.6729 15.7071 33.0457 15.7071C32.6103 15.7071 32.1781 15.7071 31.7427 15.7137L31.7069 10.7731V10.4498L32.0254 10.4433L32.0286 10.4466ZM31.7459 5.59416C31.7589 5.39171 31.7914 4.98027 31.8272 4.89863C31.8467 4.84965 31.8694 4.83006 31.8954 4.83006C31.9246 4.83006 31.9571 4.85945 31.9831 4.89863C32.0254 4.96394 32.0936 5.25129 32.1131 5.49294C32.1164 5.53539 32.1229 5.56804 32.1294 5.59743H31.7492L31.7459 5.59416ZM32.5193 5.59416C32.5518 5.56804 32.5811 5.53539 32.6103 5.506C32.6038 5.54192 32.6103 5.57131 32.6201 5.59416H32.5226H32.5193ZM32.88 5.59416C32.906 5.57131 32.919 5.53539 32.919 5.46681C32.919 5.27089 33.1822 5.27089 33.1822 5.27089L33.166 5.59416H32.88ZM33.4032 5.59416L33.4194 5.22517L33.6177 5.27089L33.6014 5.59416H33.4032ZM33.7347 5.59416L33.7509 5.29375H33.8386L33.8679 5.59416H33.7347ZM34.2936 4.94108C34.2936 4.94108 34.4593 4.85618 34.5471 4.85618C34.5795 4.85618 34.599 4.86598 34.599 4.89537V5.5909H34.3488L34.2903 4.93782L34.2936 4.94108ZM34.8265 5.59416L34.8525 5.31007C34.8558 5.42436 34.8785 5.53539 34.95 5.57784C34.9597 5.58437 34.9662 5.58763 34.976 5.59416H34.8265ZM30.4461 10.3976L30.4396 10.747L30.3648 15.73C29.7377 15.7398 29.1138 15.7529 28.4898 15.7692L28.5971 10.8058L28.6036 10.5053L28.9025 10.489L30.0951 10.4204L30.4428 10.4009L30.4461 10.3976ZM27.0828 10.3976L27.073 10.7666L26.9625 15.8149C26.4751 15.8312 25.9877 15.8508 25.5035 15.8737V10.5576L25.796 10.5282L26.7156 10.4368L27.0795 10.4009L27.0828 10.3976ZM23.6415 14.3095C19.2286 14.4467 16.8174 14.881 14.9749 15.0998C14.4094 15.1651 14.0682 15.8998 13.8603 16.7913C13.3468 16.85 12.8367 16.9121 12.3297 16.9774C12.6417 14.512 13.4573 14.3063 13.9545 14.0516C14.5979 13.7185 18.4162 13.1405 23.6415 12.9479C23.6675 13.5748 23.6415 13.983 23.6415 14.3095ZM3.0002 29.5851C5.87607 26.2512 5.72984 24.3964 5.72984 24.3964C5.72984 24.3964 2.48352 21.2061 0.699502 21.2061C0.680004 21.2061 0.660507 21.2061 0.63776 21.2061C2.46402 20.491 4.50475 20.233 6.29202 20.0436L6.32776 20.3669C4.87845 20.5204 3.31541 20.7098 1.8271 21.1441C3.65661 21.9082 5.84682 24.047 5.95731 24.158C6.01255 24.2135 6.0483 24.2854 6.0548 24.367C6.0613 24.4389 6.15553 26.0095 4.06931 28.7786C6.14254 28.0569 8.75194 27.7467 9.65857 27.6553L9.63908 27.4039C9.74631 27.3875 9.85355 27.3712 9.96078 27.3549L10.0095 27.9492C10.0095 27.9492 5.43738 28.3182 3.0002 29.5786V29.5851ZM50.9346 42.2745C46.2098 54.8823 35.4667 64.2606 32.9645 66.321C30.4623 64.2606 19.7225 54.8921 14.9944 42.2745C13.0739 37.1544 12.0178 31.6685 11.4361 27.1524C11.7675 27.1067 12.099 27.0675 12.4305 27.0251C12.4954 27.0153 12.5572 27.0087 12.6222 26.9989C13.0641 31.3648 14.0162 37.2817 16.057 42.7317C20.4926 54.5558 30.5793 63.0556 32.5583 64.6393L32.7598 64.7994L32.9613 64.9594L33.1627 64.7994L33.3642 64.6393C35.3432 63.0556 45.4299 54.5525 49.8655 42.7284C51.9128 37.2752 52.8616 31.3452 53.3036 26.9761C53.3686 26.9826 53.4303 26.9924 53.4953 27.0022C53.8268 27.0447 54.1615 27.0871 54.4929 27.1296C53.9145 31.6489 52.8551 37.1413 50.9314 42.2745H50.9346ZM28.4606 52.4104C28.4606 52.701 28.4541 53.6512 27.2745 53.6512H26.2151C26.1762 53.6512 26.1567 53.6218 26.1567 53.5892V49.4258C26.1567 49.3866 26.1794 49.3572 26.2184 49.3572H27.2778C28.0187 49.3572 28.4411 49.9123 28.4411 50.3891C28.4411 50.732 28.4346 51.261 27.8594 51.4373V51.4503C28.2169 51.581 28.4574 51.9663 28.4574 52.4136L28.4606 52.4104ZM40.2435 56.0285C37.0395 59.7967 34.0791 62.3634 32.9645 63.2875C31.8499 62.3666 28.8895 59.7967 25.6855 56.0285H40.2435ZM29.7929 50.9083H30.2446C30.2674 50.9083 30.2836 50.9246 30.2836 50.9475V51.9891C30.2836 52.0185 30.2609 52.0414 30.2381 52.0414H29.7767C29.7539 52.0414 29.7377 52.0577 29.7377 52.0871V52.4234C29.7377 52.4463 29.7539 52.4626 29.7734 52.4626H30.758C30.797 52.4626 30.8198 52.492 30.8198 52.5181V53.5827C30.8198 53.6153 30.7905 53.6447 30.758 53.6447H28.7173C28.6848 53.6447 28.6556 53.6088 28.6556 53.5696V49.4258C28.6556 49.3899 28.6913 49.3507 28.7303 49.3507H30.7515C30.784 49.3507 30.81 49.3801 30.81 49.4127V50.4446C30.81 50.4805 30.7808 50.5034 30.7483 50.5034H29.7962C29.7734 50.5034 29.7572 50.5197 29.7572 50.5426V50.8626C29.7572 50.8854 29.7799 50.9018 29.7962 50.9018L29.7929 50.9083ZM33.5754 52.5704C33.5754 52.639 33.6047 52.7075 33.7282 52.7598C33.7574 52.7761 33.7802 52.8186 33.7802 52.8414C33.7802 53.6186 33.2115 53.6643 33.023 53.6643C32.6136 53.6643 32.3406 53.3769 32.3406 52.8414V51.9598C32.3406 51.7769 32.2593 51.6855 32.1976 51.6855C32.1619 51.6855 32.1586 51.7148 32.1586 51.754V53.5859C32.1586 53.6186 32.1294 53.6545 32.0904 53.6545H31.1155C31.0765 53.6545 31.0473 53.6251 31.0473 53.5794V49.4291C31.0473 49.3899 31.0765 49.3605 31.109 49.3605H32.3796C32.88 49.3605 33.4779 49.7491 33.4779 50.4479C33.4779 50.7581 33.4227 51.323 32.88 51.4046V51.4177C33.5754 51.6169 33.5754 51.9891 33.5754 52.5737V52.5704ZM35.0572 52.4659H36.0321C36.0711 52.4659 36.0938 52.4953 36.0938 52.5214V53.5859C36.0938 53.6186 36.0646 53.648 36.0321 53.648H33.9914C33.9556 53.648 33.9296 53.612 33.9296 53.5729V49.4323C33.9296 49.3964 33.9654 49.3507 34.0044 49.3507H34.9662C35.002 49.3507 35.0247 49.3801 35.0247 49.4127V52.4169C35.0247 52.4398 35.041 52.4561 35.0605 52.4561L35.0572 52.4659ZM36.2986 53.5663V49.416C36.2986 49.3866 36.3213 49.3572 36.3506 49.3572H37.3254C37.3644 49.3572 37.3937 49.3801 37.3937 49.416V53.5794C37.3937 53.612 37.3644 53.6545 37.3254 53.6545H36.3733C36.3343 53.6545 36.2986 53.6153 36.2986 53.5696V53.5663ZM37.6211 53.5696V49.4291C37.6211 49.3899 37.6504 49.354 37.6829 49.354H38.6448C38.6838 49.354 38.713 49.3768 38.726 49.4225L39.0672 50.7091C39.0802 50.7548 39.0965 50.7777 39.1062 50.7777C39.1224 50.7777 39.1387 50.7548 39.1387 50.7026V49.4258C39.1387 49.3866 39.1679 49.3507 39.2069 49.3507H40.0616C40.1071 49.3507 40.1363 49.3899 40.1363 49.4323V53.5729C40.1363 53.612 40.1136 53.648 40.0746 53.648H39.0087C38.986 53.648 38.9502 53.6251 38.947 53.5892L38.6968 52.5573C38.6838 52.4985 38.661 52.4757 38.6448 52.4757C38.6285 52.4757 38.6155 52.4985 38.6155 52.5573V53.5696C38.6155 53.6088 38.5798 53.6447 38.5408 53.6447H37.6731C37.6406 53.6447 37.6179 53.6088 37.6179 53.5631L37.6211 53.5696ZM19.5795 47.2674C18.6664 45.5955 17.893 43.9138 17.2756 42.2713C15.2771 36.9552 14.3477 31.0905 13.9155 26.8357C20.0182 26.1173 26.4264 25.7548 33.0457 25.7548C39.6651 25.7548 45.9595 26.114 52.0103 26.8193C51.5781 31.0774 50.6487 36.9487 48.6502 42.2713C48.0328 43.917 47.2594 45.5987 46.3462 47.2706H19.5795V47.2674ZM33.0457 25.0985C23.9307 25.0985 15.3193 25.8005 7.68608 27.0447L6.7762 18.4599C14.6337 17.1211 23.5667 16.3635 33.0457 16.3635C42.5247 16.3635 51.4578 17.1211 59.3153 18.4599L58.4054 27.0447C50.7722 25.8005 42.1608 25.0985 33.0457 25.0985ZM65.2328 21.2061C64.0629 21.2061 62.2626 22.5808 61.161 23.5245C60.5859 24.0176 60.2024 24.3964 60.2024 24.3964C60.2024 24.3964 60.0529 26.2512 62.9321 29.5851C60.4981 28.3247 55.9227 27.9557 55.9227 27.9557L55.9715 27.3353C56.0787 27.3516 56.186 27.3679 56.2932 27.3843L56.2704 27.6586C57.1803 27.75 59.7897 28.0602 61.8597 28.7819C59.7735 26.0128 59.8677 24.4421 59.8742 24.3703C59.8807 24.2919 59.9132 24.2168 59.9717 24.1646C60.0822 24.0535 62.2724 21.918 64.1019 21.1506C62.6688 20.7326 61.1643 20.54 59.7605 20.3897L59.7962 20.0665C61.5445 20.2526 63.517 20.5171 65.288 21.2094C65.2685 21.2094 65.249 21.2094 65.2295 21.2094L65.2328 21.2061Z" fill="black"/>
<path d="M27.2127 51.8716C27.19 51.8716 27.177 51.8879 27.177 51.9173V52.7532C27.177 52.7761 27.19 52.7924 27.216 52.7924C27.307 52.7924 27.3882 52.7239 27.3882 52.6259V52.0251C27.3882 51.9271 27.3037 51.8716 27.2127 51.8716Z" fill="black"/>
<path d="M27.2193 51.0125C27.3005 51.0125 27.385 50.9602 27.385 50.8459V50.3528C27.385 50.2484 27.2875 50.2026 27.2193 50.2026C27.1965 50.2026 27.1803 50.2157 27.1803 50.2386V50.97C27.1803 50.9929 27.1965 51.0092 27.2193 51.0092V51.0125Z" fill="black"/>
<path d="M32.2042 50.5591C32.1749 50.5591 32.1587 50.5754 32.1587 50.6113V51.1371C32.1587 51.1762 32.1717 51.1893 32.1977 51.1893C32.3342 51.1893 32.3342 51.0293 32.3342 50.7648C32.3342 50.6342 32.2529 50.5591 32.2042 50.5591Z" fill="black"/>
<path d="M31.7784 60.9819C32.4218 60.9819 32.8638 60.4987 32.8638 59.8292V58.2619C32.8638 57.6088 32.4283 57.1255 31.7784 57.1255C31.1285 57.1255 30.7061 57.6088 30.7061 58.2619V59.8292C30.7061 60.4954 31.1317 60.9819 31.7784 60.9819ZM31.7004 58.2782C31.7004 58.2161 31.7329 58.1802 31.7849 58.1802C31.8369 58.1802 31.8694 58.2161 31.8694 58.2847V59.8129C31.8694 59.8815 31.8337 59.9174 31.7849 59.9174C31.7329 59.9174 31.7004 59.8815 31.7004 59.8129V58.2814V58.2782Z" fill="black"/>
<path d="M33.4293 59.039C33.2051 59.1631 33.0101 59.3982 33.0101 59.8521C33.0101 60.5836 33.4813 60.9819 34.0922 60.9819C34.7032 60.9819 35.1873 60.5803 35.1873 59.8521C35.1873 59.4047 34.9241 59.1272 34.7162 59.039C34.6739 59.0227 34.6479 59.0064 34.6479 58.9966C34.6479 58.9868 34.6674 58.9704 34.7032 58.9541C34.9046 58.8594 35.1386 58.5688 35.1386 58.141C35.1386 57.5141 34.7097 57.1255 34.0922 57.1255C33.4748 57.1255 33.0491 57.5075 33.0491 58.1116C33.0491 58.5557 33.1954 58.8104 33.4326 58.9411C33.4846 58.9672 33.5008 58.977 33.5008 58.9868C33.5008 58.9933 33.4846 59.0064 33.4293 59.039ZM34.011 58.2161C34.011 58.1541 34.0532 58.1182 34.0922 58.1182C34.1312 58.1182 34.18 58.1606 34.18 58.2161V58.5394C34.18 58.5819 34.1377 58.6015 34.0922 58.6015C34.0402 58.6015 34.011 58.5819 34.011 58.5394V58.2161ZM34.011 59.4505C34.011 59.3884 34.0532 59.3525 34.0922 59.3525C34.1312 59.3525 34.18 59.3949 34.18 59.4505V59.7999C34.18 59.8619 34.1377 59.9044 34.0987 59.9044C34.0532 59.9044 34.011 59.8619 34.011 59.7999V59.4505Z" fill="black"/>
</svg>
