<?xml version="1.0" encoding="UTF-8" standalone="no"?>
<!-- Created with Inkscape (http://www.inkscape.org/) -->

<svg
   version="1.1"
   id="svg2"
   width="396.85068"
   height="561.26001"
   viewBox="0 0 396.85068 561.26001"
   sodipodi:docname="LogoCKB.svg"
   inkscape:version="1.2.1 (9c6d41e410, 2022-07-14)"
   xmlns:inkscape="http://www.inkscape.org/namespaces/inkscape"
   xmlns:sodipodi="http://sodipodi.sourceforge.net/DTD/sodipodi-0.dtd"
   xmlns="http://www.w3.org/2000/svg"
   xmlns:svg="http://www.w3.org/2000/svg">
  <defs
     id="defs6">
    <clipPath
       clipPathUnits="userSpaceOnUse"
       id="clipPath18">
      <path
         d="M 0,420.945 H 297.638 V 0 H 0 Z"
         id="path16" />
    </clipPath>
  </defs>
  <sodipodi:namedview
     id="namedview4"
     pagecolor="#ffffff"
     bordercolor="#666666"
     borderopacity="1.0"
     inkscape:showpageshadow="2"
     inkscape:pageopacity="0.0"
     inkscape:pagecheckerboard="0"
     inkscape:deskcolor="#d1d1d1"
     showgrid="false"
     inkscape:zoom="0.42048248"
     inkscape:cx="197.39229"
     inkscape:cy="281.81911"
     inkscape:window-width="3840"
     inkscape:window-height="2066"
     inkscape:window-x="-11"
     inkscape:window-y="-11"
     inkscape:window-maximized="1"
     inkscape:current-layer="g10">
    <inkscape:page
       x="0"
       y="0"
       id="page8"
       width="396.85068"
       height="561.26001" />
  </sodipodi:namedview>
  <g
     id="g10"
     inkscape:groupmode="layer"
     inkscape:label="Page 1"
     transform="matrix(1.3333333,0,0,-1.3333333,0,561.26)">
    <g
       id="g12">
      <g
         id="g14"
         clip-path="url(#clipPath18)">
        <g
           id="g20"
           transform="translate(153.5762,113.3584)">
          <path
             d="m 0,0 c -6.35,5.129 -41.168,34.56 -56.234,74.574 -11.529,30.57 -12.988,65.397 -13.172,74.379 H 69.404 C 69.226,139.979 67.783,105.189 56.234,74.576 41.171,34.562 6.352,5.129 0,0"
             style="fill:#ffffff;fill-opacity:1;fill-rule:nonzero;stroke:none"
             id="path22" />
        </g>
        <g
           id="g24"
           transform="translate(221.957,261.3105)">
          <path
             d="m 0,0 h -136.761 c 0.269,-10.317 2.002,-43.647 13.081,-73.022 14.548,-38.641 47.603,-67.334 55.3,-73.642 7.698,6.312 40.763,35.025 55.298,73.64 C -1.993,-43.624 -0.267,-10.311 0,0 m 2.04,2 c -0.055,-4.251 -0.75,-42.587 -13.25,-75.729 -15.916,-42.281 -53.838,-72.867 -57.17,-75.505 -3.334,2.638 -41.253,33.224 -57.171,75.505 -12.5,33.142 -13.195,71.478 -13.25,75.729 L 2.04,2"
             style="fill:#231f20;fill-opacity:1;fill-rule:nonzero;stroke:none"
             id="path26" />
        </g>
        <g
           id="g28"
           transform="translate(88.9058,257.1367)">
          <path
             d="m 0,0 c 0.051,-3.904 0.689,-39.11 12.168,-69.545 14.62,-38.829 49.442,-66.918 52.503,-69.342 3.061,2.424 37.885,30.513 52.502,69.342 11.48,30.435 12.118,65.641 12.168,69.545 z"
             style="fill:#ffffff;fill-opacity:1;fill-rule:nonzero;stroke:none"
             id="path30" />
        </g>
        <g
           id="g32"
           transform="translate(112.0894,172.4961)">
          <path
             d="m 0,0 h 82.973 c 2.879,5.214 5.32,10.472 7.26,15.63 9.973,26.429 11.32,57.223 11.499,64.399 H -18.759 C -18.58,72.853 -17.233,42.052 -7.26,15.628 -5.326,10.486 -2.886,5.229 0,0 m 18.006,-25.836 c 10.468,-12.393 20.24,-20.726 23.481,-23.372 3.241,2.646 13.012,10.979 23.479,23.372 z m 23.481,-27.212 -0.311,0.248 -0.621,0.492 c -6.069,4.838 -37.021,30.799 -50.623,66.88 -10.666,28.299 -11.63,60.723 -11.716,66.937 l -0.014,1.015 -0.009,0.507 h 0.508 125.571 0.506 l -0.007,-0.507 -0.012,-1.015 C 104.671,75.287 103.688,42.817 93.042,14.572 79.141,-22.297 46.137,-49.345 42.42,-52.308 L 41.796,-52.8 Z"
             style="fill:#93191e;fill-opacity:1;fill-rule:nonzero;stroke:none"
             id="path34" />
        </g>
        <g
           id="g36"
           transform="translate(131.1753,146.1621)">
          <path
             d="M 0,0 H 44.802 C 34.938,-11.542 25.833,-19.402 22.401,-22.227 18.969,-19.402 9.863,-11.541 0,0 M -37.331,105.863 H 82.132 C 81.902,97.852 80.399,67.893 70.679,42.142 68.784,37.099 66.4,31.951 63.59,26.833 h -82.379 c -2.81,5.119 -5.194,10.267 -7.088,15.305 -9.723,25.758 -11.224,55.715 -11.454,63.725 m 123.53,4.001 h -1.013 -125.57 -1.013 l 0.013,-1.012 0.013,-1.014 c 0.088,-6.235 1.067,-38.765 11.749,-67.109 13.654,-36.211 44.694,-62.243 50.778,-67.093 l 0.622,-0.494 0.621,-0.494 0.622,0.493 0.623,0.493 c 6.087,4.853 37.129,30.886 50.779,67.095 10.679,28.333 11.661,60.872 11.75,67.107 l 0.013,1.016 z M 22.401,-23.518 C 25.358,-21.127 35.88,-12.262 46.957,1 H -2.154 C 8.921,-12.262 19.444,-21.127 22.401,-23.518 m -41.78,49.351 h 83.56 c 2.805,5.057 5.342,10.391 7.434,15.955 10.218,27.074 11.4,58.29 11.543,65.075 H -38.356 c 0.142,-6.785 1.323,-38.001 11.543,-65.077 2.092,-5.564 4.629,-10.896 7.434,-15.953 m 104.565,83.031 -0.013,-1.013 C 85.12,104.07 84.527,70.372 73.488,41.082 59.382,3.665 26,-23.208 23.023,-25.582 l -0.623,-0.493 -0.621,0.493 c -2.978,2.374 -36.357,29.247 -50.465,66.664 -11.039,29.29 -11.632,62.988 -11.685,66.769 l -0.013,1.013 h 125.57"
             style="fill:#93191e;fill-opacity:1;fill-rule:nonzero;stroke:none"
             id="path38" />
        </g>
        <g
           id="g40"
           transform="translate(106.6885,261.96)">
          <path
             d="m 0,0 -21.672,0.646 0.444,1.339 0.04,0.124 0.008,0.129 0.962,15.553 v 0.836 l -0.002,0.458 -0.346,0.299 -1.915,1.64 12.615,4.044 14.899,-4.647 0.141,-0.044 0.145,-0.002 11.461,-0.148 0.849,-0.011 0.149,0.833 0.608,3.4 0.052,0.297 -0.119,0.275 -0.369,0.856 v 0.004 l 0.28,2.66 0.044,0.408 -0.257,0.322 -1.684,2.106 h 0.002 l 1.465,0.798 0.314,0.173 0.133,0.332 0.191,0.474 h 0.645 l -0.07,1.067 -0.071,1.062 -0.021,0.296 -0.178,0.239 -0.795,1.055 h 0.002 l 19.388,0.154 0.992,0.008 v 0.971 h 0.807 v 0.645 h 0.689 l 0.045,0.988 c 0.02,0.439 0.156,0.892 0.317,1.049 l 0.192,0.189 0.07,0.262 c 0.079,0.286 0.175,0.89 0.146,1.23 l -0.017,0.209 -0.122,0.219 c -0.025,0.045 -0.073,0.144 -0.123,0.256 -0.149,0.324 -0.313,0.687 -0.421,1.01 -0.197,0.596 0.144,0.961 0.157,0.976 0.129,0.131 0.229,0.147 0.293,0.147 0.162,0 0.36,-0.121 0.604,-0.366 0.437,-0.437 0.614,-0.683 1.01,-1.277 l 0.172,-0.264 0.172,-0.259 0.359,-0.23 c 0.044,-0.017 0.091,-0.044 0.137,-0.077 l 0.589,-0.442 0.618,0.461 c 0.509,0.372 0.469,0.987 0.439,1.483 -0.051,0.799 0.393,1.094 0.85,1.328 l 0.549,0.281 0.013,0.704 -0.002,0.183 c 0,0.386 0.125,0.657 0.406,0.867 0.044,0.033 0.086,0.056 0.119,0.072 l 1.118,0.594 -0.836,0.949 c -0.035,0.042 -0.059,0.076 -0.063,0.098 l -0.068,0.28 -0.259,0.255 c -0.096,0.096 -0.173,0.172 -0.218,0.238 -0.11,0.166 0.116,0.614 0.218,0.797 l 0.404,0.729 -0.641,0.529 c -0.06,0.047 -0.119,0.102 -0.178,0.16 -0.406,0.407 -0.535,1.066 -0.535,1.073 v 0.003 c 0.415,-0.205 0.896,-0.435 1.24,-0.587 l 0.725,-0.319 0.52,0.688 c 0.174,0.237 0.303,0.416 0.406,0.492 0.034,0.025 0.08,0.053 0.135,0.053 0.164,0 0.264,-0.268 0.264,-0.459 0,-0.096 -0.194,-0.393 -0.419,-0.739 -0.085,-0.129 -0.203,-0.309 -0.295,-0.461 l -0.312,-0.52 0.349,-0.575 c 0.137,-0.224 0.243,-0.399 0.338,-0.593 0.055,-0.108 0.061,-0.212 0.02,-0.315 -0.026,-0.067 -0.071,-0.135 -0.139,-0.207 l -0.444,-0.476 0.256,-0.6 0.177,-0.481 0.558,-0.231 0.145,-0.037 c 0.183,-0.045 0.39,-0.095 0.504,-0.209 0.189,-0.189 0.523,-1.095 0.538,-1.722 l 0.01,-0.401 0.282,-0.281 c 0.17,-0.17 0.224,-0.247 0.245,-0.351 0.025,-0.127 0.034,-0.311 0.039,-0.524 0.013,-0.332 0.03,-0.684 0.091,-0.969 l 0.103,-0.473 0.432,-0.214 c 0.053,-0.026 0.092,-0.052 0.123,-0.083 l 0.488,-0.511 0.645,0.289 c 0.048,0.024 0.1,0.041 0.154,0.061 l 0.116,0.033 0.589,0.142 0.147,0.59 c 0.065,0.254 0.164,0.621 0.301,0.852 0.201,0.33 1.137,1.338 1.415,1.546 l 0.026,0.02 0.117,0.008 c 0.035,-0.002 0.079,-0.215 0.089,-0.281 0.047,-0.295 -0.012,-0.447 -0.04,-0.498 l -0.14,-0.262 0.026,-0.297 c 0.025,-0.279 0.094,-0.729 0.129,-0.951 0.033,-0.203 0.054,-0.371 0.059,-0.449 V 43.014 L 54.654,42.973 54.806,41.9 c 0.033,-0.245 0.041,-0.421 0.024,-0.56 l -0.054,-0.419 0.266,-0.33 c 0.044,-0.054 0.108,-0.144 0.172,-0.272 0.075,-0.147 0.088,-0.269 0.05,-0.421 l -0.318,-1.247 h 1.011 v -0.212 -1 h 1 20.185 l -0.714,-1.638 -0.096,-0.22 0.015,-0.243 0.108,-1.701 0.041,-0.645 0.606,-0.226 1.981,-0.745 -1.929,-2.817 -0.175,-0.255 v -0.308 -1.334 -0.781 l 0.65,-0.164 -0.002,-0.002 -0.436,-0.436 -0.374,-0.375 0.102,-0.521 0.712,-3.68 0.155,-0.809 h 0.826 9.208 0.16 l 0.152,0.05 15.208,4.962 13.104,-4.203 -1.574,-1.18 -0.369,-0.277 -0.029,-0.461 -0.133,-2.125 0.471,-14.688 0.016,-0.512 0.428,-0.286 1.512,-1.01 -24.909,-0.324 -5.98,0.322 -12.612,0.164 -1.135,0.485 -0.317,21.635 -0.015,1.018 -1.019,-0.033 -3.33,-0.107 -0.981,-0.033 0.014,-0.982 0.303,-20.444 0.007,-0.406 0.286,-0.287 0.847,-0.846 h -6.63 l 0.576,0.695 0.231,0.277 v 0.362 20.498 0.972 l -0.973,0.028 -3.971,0.105 -1.042,0.028 0.015,-1.042 0.303,-20.72 0.008,-0.556 0.137,-0.081 -0.112,-0.357 -4.553,0.276 0.701,0.507 0.429,0.307 -0.012,0.527 -0.448,20.146 -0.023,0.995 -0.994,-0.018 -7.557,-0.128 -0.991,-0.017 0.008,-0.992 0.151,-20.687 0.002,-0.315 0.183,-0.257 0.622,-0.875 0.002,-0.003 -5.657,0.487 0.406,0.956 0.077,0.181 0.002,0.197 0.306,20.396 0.016,1.075 L 38.063,23.875 34.396,23.666 33.477,23.613 33.455,22.688 33.001,1.819 32.992,1.461 33.217,1.178 33.634,0.651 33.638,0.646 h -6.145 l 0.585,0.702 0.224,0.27 0.009,0.351 0.452,20.84 0.025,1.129 -1.125,-0.113 -2.83,-0.284 -0.9,-0.092 V 22.545 1.941 L 23.773,0.646 8.954,0.969 8.89,0.971 8.825,0.963 Z"
             style="fill:#93191e;fill-opacity:1;fill-rule:nonzero;stroke:none"
             id="path42" />
        </g>
        <g
           id="g44"
           transform="translate(85.4712,280.583)">
          <path
             d="m 0,0 0.002,-0.771 -0.962,-15.552 -0.444,-1.337 -0.423,-1.276 0.791,-0.023 0.581,0.982 1.501,1.706 0.952,15.376 0.004,0.065 v 0.064 L 2,0.006 1.998,0.922 1.302,1.518 0.747,1.995 11.355,5.396 25.953,0.844 26.231,0.756 26.523,0.752 37.984,0.604 39.68,0.581 l 0.298,1.67 0.608,3.399 0.107,0.592 -0.238,0.551 -0.266,0.617 0.254,2.403 0.086,0.816 -0.513,0.642 -0.938,1.174 0.416,0.229 0.631,0.344 0.206,0.512 h 1.038 l -0.142,2.133 -0.071,1.064 -0.035,0.539 17.442,0.138 1.984,0.016 v 0.963 h 0.807 v 0.668 l 0.641,0.012 0.09,1.904 c 0.009,0.176 0.051,0.361 0.085,0.449 l 0.315,0.311 0.143,0.513 c 0.089,0.319 0.197,0.934 0.191,1.414 l 0.107,-0.17 0.547,-0.223 1.174,-0.836 1.195,0.886 c 0.94,0.695 0.871,1.768 0.835,2.341 -0.012,0.202 -0.012,0.213 0.312,0.381 l 1.107,0.571 v 1.218 c 0,0.045 -0.002,0.091 -0.003,0.094 l -0.002,0.162 c 0,0.035 0.003,0.06 0.003,0.071 l 0.895,0.476 0.683,-0.187 0.122,-0.033 0.037,-0.009 0.015,-0.003 c 0.011,-0.003 0.024,-0.006 0.035,-0.01 0.114,-0.26 0.237,-0.711 0.243,-0.973 l 0.02,-0.793 0.548,-0.554 c 0.004,-0.067 0.006,-0.143 0.01,-0.223 0.013,-0.395 0.033,-0.777 0.11,-1.139 l 0.204,-0.953 0.788,-0.385 0.897,-0.935 1.286,0.575 c 0.018,0.009 0.039,0.015 0.052,0.019 l 0.047,0.015 0.929,0.225 0.018,-0.121 c 0.03,-0.217 0.022,-0.291 0.021,-0.299 l -0.103,-0.85 0.518,-0.638 -0.594,-2.325 h 1.299 v -1.213 h 2 18.659 l -0.104,-0.238 -0.192,-0.441 0.03,-0.483 0.107,-1.702 0.082,-1.292 1.211,-0.454 0.787,-0.296 -1.207,-1.764 -0.349,-0.511 V 10.016 8.684 7.502 l -0.244,-0.244 0.201,-1.041 0.711,-3.68 0.313,-1.621 h 1.651 9.209 0.318 l 0.302,0.099 14.901,4.862 10.952,-3.513 -0.024,-0.018 -0.739,-0.554 -0.058,-0.923 -0.133,-2.125 -0.006,-0.095 0.003,-0.094 0.473,-14.592 0.026,-0.815 2.929,-0.961 0.253,-0.998 2.984,0.039 -2.681,1.79 -1.512,1.009 -0.473,14.592 0.133,2.126 1.574,1.18 1.549,1.161 -1.844,0.592 -13.103,4.203 -0.307,0.099 -0.309,-0.101 -15.208,-4.963 H 99.83 l -0.711,3.681 0.433,0.435 1.246,1.251 -1.6,0.401 v 1.332 l 1.927,2.818 0.72,1.052 -1.192,0.448 -1.983,0.744 -0.107,1.703 0.713,1.638 0.609,1.397 H 98.36 78.174 v 0.213 1 h -0.723 c 0.087,0.34 0.075,0.718 -0.122,1.112 -0.096,0.193 -0.198,0.338 -0.29,0.453 0.033,0.264 0.013,0.543 -0.026,0.822 l 0.556,0.033 v 1 c 0,0.076 -0.027,0.303 -0.07,0.589 -0.034,0.205 -0.098,0.62 -0.121,0.879 0.16,0.299 0.216,0.688 0.145,1.126 -0.132,0.83 -0.702,1.124 -1.15,1.124 l -0.405,-0.028 -0.265,-0.198 c -0.37,-0.276 -1.396,-1.377 -1.673,-1.836 -0.188,-0.312 -0.312,-0.714 -0.413,-1.123 -0.061,-0.015 -0.12,-0.033 -0.185,-0.054 -0.091,-0.03 -0.179,-0.063 -0.262,-0.1 -0.134,0.141 -0.279,0.231 -0.402,0.291 -0.047,0.219 -0.06,0.555 -0.068,0.794 -0.01,0.282 -0.027,0.528 -0.058,0.679 -0.079,0.406 -0.315,0.663 -0.518,0.868 -0.019,0.742 -0.379,1.951 -0.834,2.405 -0.311,0.309 -0.709,0.406 -0.973,0.471 -0.039,0.011 -0.076,0.019 -0.113,0.029 -0.011,0.006 -0.024,0.012 -0.034,0.019 -0.014,0.04 -0.031,0.081 -0.049,0.124 0.138,0.15 0.258,0.322 0.337,0.523 0.146,0.369 0.125,0.77 -0.053,1.125 -0.111,0.223 -0.231,0.424 -0.34,0.604 -0.025,0.044 -0.053,0.086 -0.075,0.125 0.085,0.14 0.194,0.308 0.274,0.429 0.387,0.595 0.582,0.893 0.582,1.286 0,0.716 -0.472,1.457 -1.263,1.457 -0.263,0 -0.52,-0.088 -0.736,-0.252 -0.218,-0.164 -0.386,-0.393 -0.563,-0.637 -0.024,-0.031 -0.053,-0.068 -0.082,-0.107 -0.333,0.146 -0.802,0.371 -1.201,0.567 l -1.825,0.915 0.397,-2.002 c 0.031,-0.164 0.222,-1.001 0.812,-1.592 0.082,-0.081 0.166,-0.156 0.25,-0.224 -0.346,-0.621 -0.548,-1.28 -0.177,-1.837 0.076,-0.113 0.195,-0.245 0.328,-0.378 0.025,-0.025 0.052,-0.049 0.077,-0.076 0.052,-0.216 0.163,-0.386 0.284,-0.523 -0.07,-0.038 -0.158,-0.087 -0.249,-0.155 -0.535,-0.401 -0.807,-0.965 -0.807,-1.678 l 0.002,-0.182 c 0,-0.025 0.003,-0.05 0.003,-0.074 -0.007,-0.004 -0.015,-0.008 -0.023,-0.011 -0.406,-0.209 -1.485,-0.772 -1.392,-2.282 0.029,-0.463 -0.007,-0.595 -0.028,-0.611 l -0.022,-0.027 c -0.113,0.085 -0.234,0.153 -0.356,0.203 -0.021,0.033 -0.046,0.07 -0.073,0.112 l -0.176,0.267 c -0.419,0.631 -0.639,0.935 -1.135,1.431 -0.283,0.284 -0.726,0.659 -1.31,0.659 -0.259,0 -0.641,-0.077 -1.018,-0.456 -0.355,-0.373 -0.67,-1.119 -0.381,-1.986 0.119,-0.357 0.3,-0.758 0.455,-1.098 0.088,-0.19 0.166,-0.351 0.181,-0.362 0.013,-0.171 -0.05,-0.647 -0.116,-0.884 -0.553,-0.545 -0.608,-1.582 -0.614,-1.714 V 21.029 H 59.354 V 20.383 H 58.547 V 19.404 L 39.159,19.25 37.176,19.236 38.367,17.649 39.161,16.594 39.232,15.53 H 38.978 L 38.728,14.904 38.537,14.43 37.073,13.631 36.025,13.061 36.77,12.129 38.454,10.022 38.171,7.359 38.144,7.099 38.249,6.858 38.618,6.002 38.009,2.604 26.548,2.752 11.649,7.399 11.347,7.494 11.046,7.397 -1.568,3.354 -3.272,2.809 -1.914,1.643 Z"
             style="fill:#ffffff;fill-opacity:1;fill-rule:nonzero;stroke:none"
             id="path46" />
        </g>
        <g
           id="g48"
           transform="translate(150.5459,302.7471)">
          <path
             d="M 0,0 C -0.075,0.113 -0.172,0.205 -0.266,0.205 -0.34,0.205 -0.412,0.148 -0.471,0 -0.571,-0.25 -0.672,-1.511 -0.716,-2.135 H 0.449 C 0.432,-2.049 0.416,-1.949 0.403,-1.815 0.336,-1.076 0.135,-0.202 0,0"
             style="fill:#ffffff;fill-opacity:1;fill-rule:nonzero;stroke:none"
             id="path50" />
        </g>
        <g
           id="g52"
           transform="translate(152.2021,300.6123)">
          <path
             d="M 0,0 H 0.303 C 0.268,0.065 0.26,0.16 0.276,0.27 0.193,0.176 0.1,0.085 0,0"
             style="fill:#ffffff;fill-opacity:1;fill-rule:nonzero;stroke:none"
             id="path54" />
        </g>
        <g
           id="g56"
           transform="translate(147.752,300.6123)">
          <path
             d="M 0,0 C -0.022,0.229 0.481,0.637 0.777,0.991 1.113,1.396 0.575,1.73 0.307,1.73 0.038,1.73 -0.298,1.127 -0.163,0.723 -0.075,0.455 -0.133,0.17 -0.183,0 Z"
             style="fill:#ffffff;fill-opacity:1;fill-rule:nonzero;stroke:none"
             id="path58" />
        </g>
        <g
           id="g60"
           transform="translate(83.521,264.4463)">
          <path
             d="m 0,0 -0.402,-1.208 -0.85,-2.551 2.18,-0.065 0.986,1.971 -0.419,0.013 0.485,1.456 0.97,15.689 v 1.293 l -2.263,1.94 12.614,4.044 15.04,-4.689 12.454,-0.163 0.809,4.528 -0.486,1.133 0.324,3.072 -1.941,2.427 1.779,0.969 0.324,0.809 h 0.646 l -0.162,2.427 -0.97,1.293 20.378,0.161 v 0.972 h 0.808 v 0.645 h 1.512 c -0.168,0.136 -0.415,0.33 -0.623,0.455 -0.336,0.201 -0.067,1.478 0.202,1.612 0.269,0.134 0.427,1.457 0.358,1.726 -0.066,0.27 -0.47,1.009 -0.671,1.613 -0.203,0.606 0.156,0.985 0.156,0.985 0.088,0.087 0.179,0.144 0.292,0.144 0.149,0 0.339,-0.101 0.604,-0.368 0.426,-0.425 0.606,-0.672 1.008,-1.277 0.404,-0.604 0.404,-0.672 0.672,-0.74 0.269,-0.066 0.605,-0.536 0.605,-0.805 0,-0.179 0.18,-0.3 0.34,-0.3 0.079,0 0.155,0.03 0.199,0.098 0.134,0.202 0.134,0.739 0.335,1.007 0.203,0.27 0.404,0.337 0.336,1.413 -0.067,1.075 0.765,1.228 1.11,1.478 0.37,0.269 0.303,0.606 0.303,1.008 0,0.404 0.133,0.674 0.403,0.875 0.268,0.201 0.402,0.066 0.738,0.739 0.337,0.672 -0.402,0.739 -0.402,1.009 0,0.267 -0.404,0.536 -0.538,0.739 -0.134,0.201 0.202,0.806 0.47,1.21 0.269,0.402 -0.268,0.605 -0.671,1.007 -0.404,0.404 -0.539,1.076 -0.539,1.076 0,0 1.479,-0.739 1.815,-0.807 0.012,-0.002 0.023,-0.002 0.035,-0.002 0.334,0 0.781,0.883 1.041,1.078 0.051,0.039 0.098,0.054 0.139,0.054 0.175,0 0.263,-0.295 0.263,-0.457 0,-0.203 -0.94,-1.413 -0.94,-1.681 0,-0.268 0.336,-0.672 0.604,-1.21 0.27,-0.537 -0.805,-0.941 -0.805,-0.941 0,0 0.537,-0.538 0.537,-0.805 0,-0.27 0.268,-0.337 0.471,-0.471 0.202,-0.136 0.672,-0.136 0.874,-0.337 0.201,-0.201 0.538,-1.143 0.538,-1.748 0,-0.604 0.469,-0.672 0.537,-1.008 0.067,-0.336 0,-1.21 0.202,-1.748 0.201,-0.537 0.537,-0.267 0.672,-0.672 0.107,-0.32 0.044,-0.769 0.149,-0.769 0.028,0 0.066,0.029 0.12,0.097 0.269,0.337 0.537,0.538 0.941,0.672 0.403,0.135 0.673,0.068 0.739,0.337 0.067,0.269 0.201,0.941 0.403,1.277 0.203,0.335 1.143,1.344 1.412,1.545 0.026,0.02 0.049,0.029 0.072,0.029 0.207,0 0.244,-0.774 0.062,-0.834 -0.201,-0.068 0.135,-1.682 0.135,-1.883 0,-0.048 -0.019,-0.065 -0.051,-0.065 -0.046,0 -0.119,0.036 -0.203,0.071 -0.085,0.035 -0.182,0.07 -0.274,0.07 -0.027,0 -0.052,-0.002 -0.077,-0.009 -0.269,-0.067 0.201,-1.344 0.067,-1.882 -0.134,-0.538 0.134,-0.404 0.403,-0.941 0.414,-0.826 -0.772,-1.053 -0.96,-1.682 0.137,0.008 1.701,0.03 1.701,0.018 v -0.645 l 0.566,-0.567 h 20.619 l -0.809,-1.859 0.163,-2.588 2.587,-0.971 -2.103,-3.073 v -2.426 l 0.647,-0.161 -0.808,-0.81 0.97,-5.012 h 10.189 l 15.363,5.012 13.102,-4.204 -1.942,-1.456 -0.162,-2.588 0.487,-15.202 1.939,-1.293 -1.108,-0.014 c 0.728,0.009 1.023,-1.978 2.003,-1.872 0.303,1.39 -0.737,2.602 -0.955,3.928 -0.099,0.604 0.044,1.35 0.034,1.983 -0.027,1.642 -0.105,3.286 -0.157,4.928 -0.081,2.503 -0.161,5.007 -0.241,7.511 l 0.099,1.572 1.203,0.903 3.096,2.322 -3.685,1.183 -13.101,4.204 -0.617,0.197 -0.615,-0.2 -15.061,-4.914 h -8.221 l -0.455,2.35 0.058,0.059 2.498,2.5 -2.56,0.637 v 0.244 l 1.754,2.562 1.441,2.106 -2.389,0.896 -1.375,0.517 -0.051,0.814 0.616,1.417 1.217,2.798 H 100.31 81.125 v 1.212 h -0.743 c -0.047,0.188 -0.117,0.375 -0.21,0.561 -0.055,0.109 -0.111,0.209 -0.167,0.297 -10e-4,0.059 -0.002,0.118 -0.005,0.175 0.325,0.364 0.519,0.849 0.519,1.387 0,0.213 -0.029,0.401 -0.084,0.744 -0.02,0.131 -0.058,0.368 -0.084,0.571 0.15,0.425 0.194,0.915 0.11,1.437 -0.217,1.357 -1.231,1.965 -2.139,1.965 -0.457,0 -0.896,-0.147 -1.269,-0.426 -0.358,-0.269 -1.091,-1.025 -1.57,-1.622 -0.117,0.332 -0.29,0.585 -0.441,0.766 -0.107,0.877 -0.48,2.073 -1.091,2.684 -0.166,0.166 -0.343,0.294 -0.517,0.394 0.138,0.549 0.075,1.122 -0.184,1.641 -0.045,0.089 -0.09,0.175 -0.137,0.258 0.4,0.617 0.684,1.083 0.684,1.738 0,1.378 -0.995,2.457 -2.264,2.457 -0.481,0 -0.945,-0.158 -1.342,-0.457 -0.125,-0.092 -0.234,-0.195 -0.334,-0.301 -0.152,0.073 -0.309,0.149 -0.459,0.224 0,0 -1.969,1.165 -2.719,0.353 -0.75,-0.813 -0.137,-2.533 -0.137,-2.533 0.053,-0.264 0.258,-1.106 0.846,-1.833 -0.23,-0.652 -0.305,-1.437 0.192,-2.179 0.056,-0.086 0.115,-0.163 0.174,-0.234 -0.339,-0.394 -0.633,-0.946 -0.699,-1.702 -0.495,-0.34 -0.861,-0.746 -1.099,-1.215 -0.121,0.137 -0.253,0.278 -0.409,0.433 -0.232,0.233 -0.95,0.952 -2.018,0.952 -0.446,0 -1.102,-0.127 -1.742,-0.769 -0.547,-0.577 -1.032,-1.706 -0.602,-2.993 0.141,-0.425 0.336,-0.851 0.492,-1.193 0.028,-0.06 0.055,-0.117 0.078,-0.17 C 61.749,39.512 61.74,39.442 61.728,39.377 61.438,39 61.269,38.559 61.171,38.166 H 60.304 V 37.521 H 59.496 V 36.533 L 41.102,36.388 37.141,36.356 39.518,33.188 40.131,32.371 39.747,31.412 39.69,31.271 38.543,30.646 36.45,29.504 37.94,27.641 39.367,25.855 39.129,23.6 39.075,23.082 39.28,22.604 39.53,22.021 39.125,19.752 28.659,19.889 13.896,24.491 13.293,24.68 12.691,24.486 0.076,20.443 -3.333,19.35 -0.615,17.02 0.95,15.678 v -0.311 z"
             style="fill:#231f20;fill-opacity:1;fill-rule:nonzero;stroke:none"
             id="path62" />
        </g>
        <g
           id="g64"
           transform="translate(155.9912,301.5371)">
          <path
             d="M 0,0 -0.047,-0.925 H 0.36 L 0.268,0 Z"
             style="fill:#ffffff;fill-opacity:1;fill-rule:nonzero;stroke:none"
             id="path66" />
        </g>
        <g
           id="g68"
           transform="translate(159.3867,301.4854)">
          <path
             d="M 0,0 -0.082,-0.873 H 0.382 C 0.354,-0.855 0.329,-0.841 0.3,-0.822 0.082,-0.686 0.011,-0.351 0,0"
             style="fill:#ffffff;fill-opacity:1;fill-rule:nonzero;stroke:none"
             id="path70" />
        </g>
        <g
           id="g72"
           transform="translate(153.4365,300.999)">
          <path
             d="m 0,0 c 0,-0.202 -0.048,-0.317 -0.123,-0.387 h 0.88 l 0.05,0.991 C 0.807,0.604 0,0.604 0,0"
             style="fill:#ffffff;fill-opacity:1;fill-rule:nonzero;stroke:none"
             id="path74" />
        </g>
        <g
           id="g76"
           transform="translate(158.6123,302.7471)">
          <path
             d="m 0,0 c 0,0.088 -0.065,0.121 -0.161,0.121 -0.269,0 -0.78,-0.256 -0.78,-0.256 l 0.175,-2 H 0 Z"
             style="fill:#ffffff;fill-opacity:1;fill-rule:nonzero;stroke:none"
             id="path78" />
        </g>
        <g
           id="g80"
           transform="translate(154.9814,301.7393)">
          <path
             d="m 0,0 -0.051,-1.127 h 0.61 l 0.046,0.991 z"
             style="fill:#ffffff;fill-opacity:1;fill-rule:nonzero;stroke:none"
             id="path82" />
        </g>
        <g
           id="g84"
           transform="translate(93.8042,255.833)">
          <path
             d="m 0,0 c 0,0 -0.221,15.121 4.417,15.666 5.666,0.668 13.083,2.001 26.666,2.418 0,1 0.084,2.25 0,4.166 C 15,21.666 3.249,19.895 1.271,18.875 -0.75,17.834 -4.5,17.084 -4.083,0.25 -3.667,-16.584 0,0 0,0"
             style="fill:#ffffff;fill-opacity:1;fill-rule:nonzero;stroke:none"
             id="path86" />
        </g>
        <g
           id="g88"
           transform="translate(213.8584,255.833)">
          <path
             d="m 0,0 c 0,0 0.221,15.121 -4.416,15.666 -5.667,0.668 -13.084,2.001 -26.667,2.418 0,1 -0.083,2.25 0,4.166 C -15,21.666 -3.248,19.895 -1.271,18.875 0.75,17.834 4.5,17.084 4.084,0.25 3.667,-16.584 0,0 0,0"
             style="fill:#ffffff;fill-opacity:1;fill-rule:nonzero;stroke:none"
             id="path90" />
        </g>
        <g
           id="g92"
           transform="translate(63.166,228.5107)">
          <path
             d="m 0,0 c 7.427,9.192 7.115,14.334 7.098,14.56 -0.01,0.121 -0.063,0.234 -0.149,0.318 -0.37,0.361 -8.254,8.022 -13.943,9.619 5.57,1.836 11.554,2.454 16.9,3.004 2.704,0.279 5.272,0.543 7.365,0.948 L 19.229,4.08 C 16.864,3.858 6.899,2.799 0,0"
             style="fill:#93191e;fill-opacity:1;fill-rule:nonzero;stroke:none"
             id="path94" />
        </g>
        <g
           id="g96"
           transform="translate(79.9824,256.3672)">
          <path
             d="m 0,0 c -2.005,-0.352 -4.376,-0.597 -6.862,-0.853 -4.864,-0.501 -10.261,-1.058 -15.368,-2.542 5.629,-2.343 12.369,-8.888 12.713,-9.225 0.172,-0.169 0.278,-0.395 0.297,-0.635 0.018,-0.223 0.313,-5.03 -6.109,-13.512 6.375,2.21 14.407,3.161 17.204,3.44 z m 0.907,1.194 2.044,-25.425 c 0,0 -14.075,-1.135 -21.566,-4.995 8.853,10.215 8.399,15.891 8.399,15.891 0,0 -9.988,9.765 -15.479,9.766 -0.062,0 -0.124,-0.002 -0.185,-0.004 9.308,3.632 20.431,3.404 26.787,4.767"
             style="fill:#ffffff;fill-opacity:1;fill-rule:nonzero;stroke:none"
             id="path98" />
        </g>
        <g
           id="g100"
           transform="translate(80.8896,259.5615)">
          <path
             d="m 0,0 c -0.14,0 -0.28,-0.015 -0.419,-0.044 -2.054,-0.441 -4.651,-0.709 -7.658,-1.019 -5.81,-0.599 -13.04,-1.345 -19.437,-3.841 -0.911,-0.356 -1.431,-1.317 -1.231,-2.274 0.195,-0.929 1.015,-1.59 1.957,-1.59 0.028,0 0.056,0.001 0.083,0.002 l 0.103,0.002 c 3.205,0 9.645,-5.012 13.422,-8.565 -0.248,-1.687 -1.505,-6.456 -7.854,-13.781 -0.628,-0.724 -0.653,-1.792 -0.061,-2.546 0.39,-0.496 0.976,-0.764 1.574,-0.764 0.31,0 0.624,0.072 0.915,0.222 7.043,3.629 20.674,4.768 20.811,4.779 1.1,0.089 1.92,1.053 1.832,2.153 L 1.994,-1.84 C 1.947,-1.266 1.656,-0.739 1.194,-0.396 0.846,-0.136 0.426,0 0,0 m 0,-2 2.043,-25.426 c 0,0 -14.074,-1.135 -21.565,-4.994 8.853,10.215 8.398,15.891 8.398,15.891 0,0 -9.987,9.765 -15.478,9.765 -0.063,0 -0.124,-10e-4 -0.185,-0.004 C -17.479,-3.136 -6.356,-3.363 0,-2"
             style="fill:#231f20;fill-opacity:1;fill-rule:nonzero;stroke:none"
             id="path102" />
        </g>
        <g
           id="g104"
           transform="translate(244.001,228.5078)">
          <path
             d="m 0,0 c -6.9,2.8 -16.868,3.862 -19.234,4.081 l 1.958,24.372 c 2.094,-0.405 4.664,-0.669 7.371,-0.95 C -4.564,26.951 1.421,26.335 6.986,24.498 1.3,22.901 -6.582,15.244 -6.952,14.882 -7.038,14.797 -7.092,14.684 -7.101,14.563 -7.119,14.336 -7.432,9.195 0,0"
             style="fill:#93191e;fill-opacity:1;fill-rule:nonzero;stroke:none"
             id="path106" />
        </g>
        <g
           id="g108"
           transform="translate(227.1807,256.3672)">
          <path
             d="m 0,0 -1.875,-23.327 c 2.796,-0.279 10.829,-1.23 17.204,-3.44 -6.422,8.482 -6.127,13.289 -6.109,13.512 0.019,0.241 0.125,0.466 0.298,0.635 0.344,0.337 7.083,6.881 12.712,9.225 C 17.123,-1.911 11.726,-1.354 6.862,-0.853 4.376,-0.596 2.006,-0.352 0,0 m -0.907,1.194 c 6.356,-1.363 17.479,-1.135 26.787,-4.767 -0.062,0.002 -0.123,0.004 -0.185,0.004 -5.491,0 -15.478,-9.766 -15.478,-9.766 0,0 -0.455,-5.676 8.398,-15.891 -7.491,3.86 -21.566,4.995 -21.566,4.995 l 2.044,25.425"
             style="fill:#ffffff;fill-opacity:1;fill-rule:nonzero;stroke:none"
             id="path110" />
        </g>
        <g
           id="g112"
           transform="translate(226.2734,259.5615)">
          <path
             d="m 0,0 c -0.427,0 -0.846,-0.136 -1.193,-0.396 -0.463,-0.343 -0.754,-0.87 -0.8,-1.444 l -2.044,-25.426 c -0.089,-1.1 0.731,-2.064 1.832,-2.153 0.137,-0.011 13.768,-1.15 20.811,-4.779 0.291,-0.15 0.605,-0.222 0.915,-0.222 0.598,0 1.184,0.268 1.574,0.764 0.593,0.754 0.567,1.822 -0.061,2.546 -6.349,7.325 -7.606,12.094 -7.853,13.781 3.776,3.553 10.216,8.565 13.421,8.565 l 0.102,-0.002 c 0.028,-10e-4 0.057,-0.002 0.084,-0.002 0.942,0 1.762,0.661 1.956,1.59 0.201,0.957 -0.319,1.918 -1.23,2.274 C 21.116,-2.408 13.887,-1.662 8.077,-1.063 5.07,-0.753 2.473,-0.485 0.419,-0.044 0.28,-0.015 0.14,0 0,0 m 0,-2 c 6.356,-1.363 17.479,-1.136 26.787,-4.768 -0.061,0.003 -0.123,0.004 -0.185,0.004 -5.491,0 -15.478,-9.765 -15.478,-9.765 0,0 -0.455,-5.676 8.398,-15.891 -7.491,3.859 -21.566,4.994 -21.566,4.994 L 0,-2"
             style="fill:#231f20;fill-opacity:1;fill-rule:nonzero;stroke:none"
             id="path114" />
        </g>
        <g
           id="g116"
           transform="translate(231.4316,235.5039)">
          <path
             d="m 0,0 c -24.243,3.903 -50.347,5.882 -77.6,5.882 -27.254,0 -53.358,-1.979 -77.602,-5.882 l -2.688,25.298 c 24.64,4.143 52.389,6.336 80.29,6.336 27.901,0 55.651,-2.193 80.29,-6.336 z"
             style="fill:#93191e;fill-opacity:1;fill-rule:nonzero;stroke:none"
             id="path118" />
        </g>
        <g
           id="g120"
           transform="translate(153.8311,266.6377)">
          <path
             d="m 0,0 c -27.704,0 -55.252,-2.161 -79.745,-6.254 l 2.585,-24.305 c 24.127,3.854 50.08,5.807 77.16,5.807 27.08,0 53.033,-1.953 77.16,-5.807 l 2.586,24.305 C 55.254,-2.161 27.705,0 0,0 m 0,1 c 29.166,0 56.658,-2.322 80.84,-6.424 l -2.797,-26.289 c -23.494,3.814 -49.994,5.961 -78.043,5.961 -28.048,0 -54.549,-2.147 -78.042,-5.961 l -2.796,26.289 C -56.657,-1.322 -29.166,1 0,1"
             style="fill:#ffffff;fill-opacity:1;fill-rule:nonzero;stroke:none"
             id="path122" />
        </g>
        <g
           id="g124"
           transform="translate(153.8311,269.6377)">
          <path
             d="m 0,0 c -28.219,0 -56.288,-2.23 -81.173,-6.452 -1.041,-0.177 -1.766,-1.133 -1.654,-2.183 l 2.796,-26.289 c 0.058,-0.547 0.338,-1.045 0.775,-1.379 0.351,-0.267 0.778,-0.41 1.214,-0.41 0.106,0 0.213,0.008 0.32,0.025 24.262,3.939 50.412,5.936 77.722,5.936 27.311,0 53.46,-1.997 77.723,-5.936 0.106,-0.017 0.214,-0.025 0.32,-0.025 0.436,0 0.862,0.143 1.214,0.41 0.436,0.334 0.717,0.832 0.774,1.379 l 2.798,26.289 c 0.111,1.05 -0.613,2.006 -1.655,2.183 C 56.289,-2.23 28.22,0 0,0 m 0,-2 c 29.166,0 56.658,-2.322 80.84,-6.424 l -2.797,-26.289 c -23.494,3.814 -49.994,5.961 -78.043,5.961 -28.048,0 -54.549,-2.147 -78.042,-5.961 l -2.796,26.289 C -56.657,-4.322 -29.166,-2 0,-2"
             style="fill:#231f20;fill-opacity:1;fill-rule:nonzero;stroke:none"
             id="path126" />
        </g>
        <g
           id="g128"
           transform="translate(79.2412,249.8232)">
          <path
             d="M 0,0 C -0.467,3.278 0.958,5.435 3.692,5.8 6.607,6.19 8.427,4.136 8.753,1.538 8.814,1.051 8.82,0.997 8.642,0.975 7.185,0.74 6.457,0.621 5.001,0.376 4.824,0.353 4.628,0.475 4.599,0.69 4.539,1.145 4.508,1.371 4.448,1.826 4.414,2.079 4.242,2.147 4.083,2.126 3.924,2.104 3.784,1.958 3.811,1.759 c 0.302,-2.242 0.453,-3.364 0.754,-5.607 0.025,-0.18 0.179,-0.287 0.356,-0.263 0.196,0.026 0.293,0.185 0.269,0.365 -0.097,0.729 -0.145,1.094 -0.242,1.823 -0.015,0.108 0.041,0.278 0.201,0.281 1.495,0.148 2.243,0.221 3.738,0.358 0.098,0.012 0.165,-0.054 0.175,-0.127 C 9.607,-5.761 7.869,-7.498 5.418,-7.826 2.714,-8.188 0.877,-6.158 0.511,-3.582 0.307,-2.149 0.204,-1.433 0,0"
             style="fill:#ffffff;fill-opacity:1;fill-rule:nonzero;stroke:none"
             id="path130" />
        </g>
        <g
           id="g132"
           transform="translate(93.3594,249.9746)">
          <path
             d="M 0,0 C -0.069,0.249 -0.128,0.405 -0.187,0.398 -0.246,0.392 -0.271,0.262 -0.277,-0.032 -0.3,-0.73 -0.312,-1.081 -0.334,-1.779 c -0.01,-0.093 0.041,-0.178 0.139,-0.166 0.629,0.073 0.688,0.081 0.65,0.24 C 0.273,-1.023 0.183,-0.682 0,0 M 0.974,7.014 C 1.113,7.029 1.224,6.931 1.258,6.807 2.931,1.757 3.753,-0.769 5.374,-5.829 5.434,-6.022 5.357,-6.233 5.143,-6.256 3.879,-6.391 3.25,-6.459 1.986,-6.602 1.87,-6.615 1.744,-6.556 1.712,-6.45 1.433,-5.383 1.292,-4.851 1.012,-3.784 0.982,-3.696 0.897,-3.65 0.799,-3.661 0.375,-3.71 0.164,-3.735 -0.26,-3.784 c -0.077,-0.009 -0.148,-0.091 -0.155,-0.201 -0.024,-1.08 -0.036,-1.619 -0.059,-2.699 -0.004,-0.129 -0.132,-0.218 -0.23,-0.23 -1.286,-0.152 -1.928,-0.231 -3.213,-0.391 -0.175,-0.022 -0.29,0.093 -0.273,0.277 0.392,5.337 0.604,8.005 1.05,13.343 0.009,0.093 0.093,0.232 0.213,0.246 1.559,0.187 2.341,0.278 3.901,0.453"
             style="fill:#ffffff;fill-opacity:1;fill-rule:nonzero;stroke:none"
             id="path134" />
        </g>
        <g
           id="g136"
           transform="translate(97.7803,257.125)">
          <path
             d="M 0,0 C -0.013,0.127 0.076,0.245 0.196,0.258 1.549,0.4 2.226,0.471 3.58,0.604 3.72,0.618 3.827,0.556 3.881,0.415 c 0.64,-1.583 0.958,-2.374 1.591,-3.958 0.053,-0.142 0.121,-0.208 0.16,-0.205 0.059,0.006 0.113,0.084 0.097,0.248 -0.154,1.615 -0.231,2.422 -0.385,4.038 -0.012,0.127 0.078,0.247 0.218,0.26 1.201,0.114 1.801,0.169 3.003,0.276 0.16,0.014 0.272,-0.104 0.284,-0.231 0.465,-5.24 0.697,-7.86 1.164,-13.1 0.011,-0.127 -0.056,-0.243 -0.193,-0.255 -1.461,-0.13 -2.192,-0.199 -3.652,-0.34 -0.077,-0.007 -0.201,0.055 -0.231,0.162 -0.47,1.27 -0.706,1.905 -1.18,3.174 C 4.7,-9.338 4.613,-9.273 4.554,-9.279 4.496,-9.285 4.465,-9.362 4.483,-9.544 4.61,-10.825 4.673,-11.466 4.8,-12.748 4.813,-12.875 4.705,-12.994 4.568,-13.007 3.382,-13.125 2.79,-13.187 1.604,-13.312 1.487,-13.324 1.397,-13.223 1.382,-13.078 0.829,-7.846 0.553,-5.232 0,0"
             style="fill:#ffffff;fill-opacity:1;fill-rule:nonzero;stroke:none"
             id="path138" />
        </g>
        <g
           id="g140"
           transform="translate(107.4307,258.0571)">
          <path
             d="M 0,0 C -0.011,0.127 0.08,0.245 0.2,0.255 1.555,0.374 2.232,0.43 3.588,0.54 3.728,0.551 3.834,0.485 3.886,0.343 4.498,-1.25 4.803,-2.047 5.407,-3.643 5.458,-3.785 5.523,-3.853 5.562,-3.85 5.622,-3.845 5.676,-3.768 5.663,-3.604 5.538,-1.986 5.475,-1.178 5.35,0.44 5.34,0.567 5.434,0.685 5.573,0.696 6.776,0.789 7.377,0.833 8.581,0.919 8.741,0.93 8.851,0.811 8.859,0.683 c 0.371,-5.248 0.558,-7.872 0.93,-13.121 0.008,-0.127 -0.064,-0.241 -0.201,-0.251 -1.462,-0.104 -2.191,-0.158 -3.652,-0.272 -0.079,-0.007 -0.203,0.058 -0.231,0.166 -0.447,1.278 -0.671,1.917 -1.122,3.194 -0.054,0.179 -0.14,0.245 -0.198,0.24 -0.059,-0.005 -0.091,-0.08 -0.076,-0.262 0.103,-1.284 0.156,-1.925 0.26,-3.209 0.01,-0.127 -0.1,-0.246 -0.236,-0.257 -1.188,-0.097 -1.782,-0.147 -2.97,-0.25 -0.117,-0.011 -0.205,0.09 -0.217,0.236 C 0.687,-7.862 0.458,-5.241 0,0"
             style="fill:#ffffff;fill-opacity:1;fill-rule:nonzero;stroke:none"
             id="path142" />
        </g>
        <g
           id="g144"
           transform="translate(122.6152,254.9941)">
          <path
             d="M 0,0 C -0.119,-0.007 -0.201,0.043 -0.25,0.187 -0.396,0.615 -0.608,0.822 -0.887,0.805 -1.086,0.793 -1.177,0.641 -1.166,0.459 -1.13,-0.122 -0.153,-0.722 1.08,-1.394 2.413,-2.12 3.456,-3.377 3.527,-4.72 3.656,-7.155 2.194,-9.179 -0.368,-9.335 c -2.972,-0.182 -4.48,1.714 -4.681,4.618 -0.006,0.089 0.066,0.186 0.224,0.197 1.086,0.126 1.631,0.187 2.718,0.308 0.138,0.009 0.222,-0.06 0.251,-0.221 0.128,-0.716 0.509,-1.481 0.981,-1.452 0.275,0.017 0.443,0.193 0.418,0.61 -0.026,0.435 -1.181,1.167 -2.569,2.06 -1.39,0.893 -2.141,2.209 -2.226,3.443 C -5.38,2.08 -3.995,4.205 -1.306,4.37 1.383,4.535 3.15,2.711 3.266,0.548 3.272,0.422 3.198,0.308 3.039,0.299 1.823,0.183 1.215,0.124 0,0"
             style="fill:#ffffff;fill-opacity:1;fill-rule:nonzero;stroke:none"
             id="path146" />
        </g>
        <g
           id="g148"
           transform="translate(129.7007,246.1138)">
          <path
             d="m 0,0 c -0.137,-0.006 -0.278,0.098 -0.285,0.244 -0.18,3.794 -0.27,5.691 -0.449,9.485 -0.006,0.127 -0.13,0.214 -0.27,0.208 -0.798,-0.039 -1.197,-0.06 -1.995,-0.101 -0.119,-0.006 -0.266,0.133 -0.272,0.241 -0.067,1.294 -0.101,1.942 -0.168,3.236 -0.006,0.109 0.05,0.185 0.17,0.191 3.437,0.179 5.156,0.252 8.594,0.375 0.14,0.005 0.263,-0.064 0.269,-0.21 l 0.112,-3.2 C 5.711,10.324 5.594,10.211 5.435,10.206 4.637,10.177 4.24,10.163 3.442,10.131 3.302,10.126 3.206,10.029 3.212,9.865 3.363,6.077 3.44,4.183 3.591,0.395 3.596,0.268 3.481,0.153 3.325,0.147 1.994,0.093 1.331,0.063 0,0"
             style="fill:#ffffff;fill-opacity:1;fill-rule:nonzero;stroke:none"
             id="path150" />
        </g>
        <g
           id="g152"
           transform="translate(139.4551,253.2705)">
          <path
             d="m 0,0 c -0.047,0.254 -0.091,0.416 -0.15,0.415 -0.059,-0.002 -0.096,-0.13 -0.127,-0.423 -0.084,-0.694 -0.125,-1.041 -0.207,-1.735 -0.017,-0.092 0.025,-0.181 0.123,-0.178 0.632,0.018 0.691,0.02 0.666,0.182 C 0.184,-1.043 0.123,-0.695 0,0 M 1.578,6.903 C 1.718,6.906 1.822,6.798 1.846,6.671 3.07,1.495 3.667,-1.093 4.839,-6.275 4.882,-6.474 4.79,-6.676 4.574,-6.681 3.306,-6.706 2.671,-6.719 1.402,-6.751 1.285,-6.754 1.165,-6.684 1.143,-6.575 0.958,-5.488 0.865,-4.946 0.679,-3.859 0.657,-3.769 0.576,-3.715 0.478,-3.718 0.052,-3.729 -0.161,-3.735 -0.586,-3.747 -0.664,-3.75 -0.739,-3.825 -0.756,-3.935 -0.874,-5.008 -0.934,-5.545 -1.051,-6.619 -1.066,-6.748 -1.2,-6.824 -1.298,-6.827 c -1.292,-0.039 -1.938,-0.061 -3.23,-0.109 -0.176,-0.006 -0.28,0.118 -0.247,0.3 0.854,5.282 1.296,7.923 2.203,13.202 0.017,0.092 0.112,0.222 0.232,0.226 1.567,0.05 2.351,0.073 3.918,0.111"
             style="fill:#ffffff;fill-opacity:1;fill-rule:nonzero;stroke:none"
             id="path154" />
        </g>
        <g
           id="g156"
           transform="translate(145.9487,246.624)">
          <path
             d="M 0,0 C -0.137,-0.002 -0.276,0.104 -0.278,0.25 -0.34,4.048 -0.372,5.946 -0.433,9.744 -0.435,9.872 -0.555,9.963 -0.695,9.961 -1.493,9.948 -1.891,9.94 -2.689,9.924 c -0.119,-0.003 -0.262,0.139 -0.265,0.247 -0.027,1.296 -0.041,1.945 -0.068,3.24 -0.002,0.11 0.057,0.182 0.177,0.185 3.439,0.071 5.159,0.092 8.598,0.108 0.14,0 0.262,-0.072 0.263,-0.218 0.005,-1.281 0.005,-1.921 0.01,-3.201 C 6.027,10.14 5.909,10.029 5.75,10.028 4.952,10.024 4.551,10.022 3.753,10.016 3.615,10.015 3.515,9.921 3.517,9.757 3.549,5.967 3.568,4.072 3.602,0.281 3.603,0.154 3.485,0.044 3.33,0.042 1.998,0.03 1.332,0.021 0,0"
             style="fill:#ffffff;fill-opacity:1;fill-rule:nonzero;stroke:none"
             id="path158" />
        </g>
        <g
           id="g160"
           transform="translate(155.3516,246.688)">
          <path
             d="m 0,0 c -0.138,0 -0.276,0.109 -0.276,0.255 0.005,3.798 0.011,5.698 0.018,9.495 0,0.128 -0.12,0.22 -0.26,0.22 -0.797,10e-4 -1.197,10e-4 -1.995,-0.001 -0.12,0 -0.258,0.146 -0.258,0.254 -0.004,1.295 -0.006,1.943 -0.01,3.238 0,0.11 0.057,0.183 0.178,0.183 3.439,0.009 5.16,-10e-4 8.598,-0.047 C 6.136,13.595 6.256,13.521 6.254,13.375 6.235,12.095 6.229,11.455 6.211,10.174 6.209,10.029 6.086,9.922 5.926,9.924 5.128,9.935 4.73,9.938 3.933,9.946 3.793,9.947 3.692,9.856 3.69,9.692 3.654,5.902 3.638,4.007 3.604,0.216 3.603,0.089 3.483,-0.02 3.326,-0.018 1.995,-0.006 1.331,-0.003 0,0"
             style="fill:#ffffff;fill-opacity:1;fill-rule:nonzero;stroke:none"
             id="path162" />
        </g>
        <g
           id="g164"
           transform="translate(162.3115,260.0352)">
          <path
             d="M 0,0 C 0.002,0.109 0.125,0.234 0.266,0.232 3.118,0.188 4.545,0.156 7.397,0.073 7.517,0.07 7.593,-0.023 7.59,-0.133 7.551,-1.442 7.533,-2.097 7.495,-3.406 7.492,-3.516 7.387,-3.585 7.269,-3.582 5.936,-3.543 5.271,-3.526 3.938,-3.496 3.858,-3.494 3.796,-3.547 3.794,-3.62 3.785,-4.027 3.781,-4.231 3.772,-4.639 3.771,-4.711 3.85,-4.768 3.909,-4.77 4.538,-4.784 4.854,-4.792 5.482,-4.808 5.563,-4.81 5.622,-4.866 5.62,-4.938 5.586,-6.262 5.568,-6.925 5.534,-8.249 5.532,-8.34 5.449,-8.41 5.37,-8.408 4.729,-8.391 4.408,-8.385 3.768,-8.37 3.688,-8.368 3.626,-8.42 3.624,-8.512 3.614,-8.941 3.611,-9.156 3.602,-9.585 3.6,-9.658 3.658,-9.712 3.718,-9.714 c 1.365,-0.031 2.046,-0.048 3.41,-0.088 0.137,-0.004 0.216,-0.096 0.213,-0.187 -0.04,-1.353 -0.063,-2.031 -0.102,-3.384 -0.003,-0.109 -0.1,-0.197 -0.217,-0.194 -2.802,0.082 -4.208,0.113 -7.011,0.157 -0.118,0.002 -0.211,0.113 -0.209,0.24 C -0.119,-7.902 -0.081,-5.268 0,0"
             style="fill:#ffffff;fill-opacity:1;fill-rule:nonzero;stroke:none"
             id="path166" />
        </g>
        <g
           id="g168"
           transform="translate(174.4512,254.2876)">
          <path
             d="M 0,0 C -0.005,-0.126 0.034,-0.164 0.134,-0.167 0.611,-0.186 0.631,0.321 0.664,1.157 0.681,1.576 0.41,1.823 0.23,1.83 0.131,1.834 0.068,1.781 0.064,1.671 0.039,1.002 0.025,0.669 0,0 M 1,5.624 C 2.767,5.554 4.819,4.222 4.715,2.005 4.669,1.022 4.383,-0.766 2.486,-0.938 c -0.001,-0.015 10e-4,-0.021 0,-0.036 2.393,-0.74 2.333,-1.928 2.245,-3.782 -0.01,-0.219 0.123,-0.426 0.504,-0.625 0.093,-0.049 0.171,-0.19 0.167,-0.262 -0.12,-2.471 -2.088,-2.526 -2.732,-2.498 -1.409,0.062 -2.311,1.009 -2.243,2.718 0.044,1.12 0.066,1.678 0.11,2.798 0.024,0.582 -0.243,0.884 -0.462,0.892 -0.119,0.004 -0.14,-0.086 -0.145,-0.212 -0.089,-2.327 -0.136,-3.49 -0.225,-5.817 -0.004,-0.109 -0.105,-0.216 -0.243,-0.211 -1.338,0.051 -2.006,0.075 -3.345,0.117 -0.138,0.004 -0.233,0.097 -0.228,0.243 0.162,5.274 0.242,7.91 0.407,13.184 C -3.7,5.698 -3.6,5.787 -3.479,5.783 -1.688,5.727 -0.791,5.695 1,5.624"
             style="fill:#ffffff;fill-opacity:1;fill-rule:nonzero;stroke:none"
             id="path170" />
        </g>
        <g
           id="g172"
           transform="translate(188.3027,249.3481)">
          <path
             d="m 0,0 c -0.014,0.091 -0.048,0.129 -0.086,0.132 -0.039,0.002 -0.062,-0.05 -0.068,-0.14 -0.091,-1.401 -0.137,-2.102 -0.228,-3.504 -0.007,-0.109 -0.132,-0.23 -0.267,-0.221 -1.308,0.084 -1.959,0.124 -3.267,0.2 -0.117,0.007 -0.23,0.141 -0.221,0.287 0.302,5.267 0.45,7.9 0.755,13.167 0.005,0.091 0.093,0.178 0.192,0.172 1.366,-0.079 2.048,-0.12 3.414,-0.208 C 0.383,9.875 0.478,9.797 0.471,9.688 0.389,8.424 0.349,7.791 0.267,6.527 0.262,6.454 0.28,6.399 0.32,6.396 0.358,6.394 0.4,6.426 0.446,6.514 0.841,7.765 1.037,8.391 1.436,9.641 1.481,9.729 1.565,9.797 1.666,9.791 3.079,9.696 3.785,9.647 5.197,9.543 5.277,9.537 5.335,9.478 5.328,9.387 5.325,9.351 5.321,9.314 5.299,9.279 4.103,6.951 3.513,5.787 2.34,3.453 2.295,3.383 2.267,3.257 2.264,3.22 2.261,3.184 2.273,3.075 2.289,3.019 3.142,0.254 3.561,-1.129 4.387,-3.897 4.418,-4.009 4.374,-4.078 4.258,-4.07 c -1.44,0.106 -2.16,0.156 -3.6,0.252 -0.077,0.005 -0.13,0.065 -0.143,0.157 C 0.313,-2.196 0.206,-1.465 0,0"
             style="fill:#ffffff;fill-opacity:1;fill-rule:nonzero;stroke:none"
             id="path174" />
        </g>
        <g
           id="g176"
           transform="translate(197.7715,258.5596)">
          <path
             d="m 0,0 c 0.12,-0.01 0.216,-0.091 0.205,-0.219 -0.303,-3.684 -0.454,-5.524 -0.756,-9.208 -0.019,-0.237 0.07,-0.409 0.306,-0.429 0.235,-0.019 0.347,0.135 0.365,0.354 0.308,3.698 0.458,5.548 0.767,9.247 0.008,0.091 0.116,0.173 0.236,0.163 1.356,-0.113 2.032,-0.173 3.387,-0.295 0.1,-0.009 0.218,-0.075 0.206,-0.202 -0.353,-3.885 -0.528,-5.825 -0.88,-9.709 -0.174,-1.921 -1.816,-3.56 -4.394,-3.348 -2.598,0.215 -3.932,2.117 -3.79,4.022 0.29,3.882 0.436,5.824 0.728,9.706 0.01,0.127 0.094,0.194 0.215,0.185 C -2.042,0.164 -1.362,0.111 0,0"
             style="fill:#ffffff;fill-opacity:1;fill-rule:nonzero;stroke:none"
             id="path178" />
        </g>
        <g
           id="g180"
           transform="translate(206.6543,252.0752)">
          <path
             d="M 0,0 C -0.013,-0.125 0.021,-0.166 0.121,-0.176 0.598,-0.223 0.648,0.284 0.732,1.115 0.774,1.533 0.518,1.794 0.338,1.813 0.238,1.822 0.174,1.773 0.163,1.665 0.097,0.999 0.066,0.666 0,0 M 1.339,5.553 C 3.101,5.375 5.068,3.919 4.83,1.713 4.725,0.735 4.332,-1.03 2.428,-1.087 2.426,-1.102 2.426,-1.109 2.424,-1.124 4.77,-2.008 4.638,-3.189 4.438,-5.034 4.414,-5.252 4.534,-5.466 4.902,-5.688 4.992,-5.743 5.058,-5.89 5.05,-5.961 4.779,-8.421 2.813,-8.354 2.17,-8.286 c -1.404,0.147 -2.247,1.146 -2.076,2.848 0.112,1.115 0.168,1.671 0.28,2.786 0.059,0.579 -0.191,0.897 -0.409,0.919 -0.117,0.011 -0.147,-0.077 -0.159,-0.203 -0.23,-2.316 -0.345,-3.476 -0.575,-5.793 -0.01,-0.109 -0.118,-0.209 -0.254,-0.196 -1.335,0.132 -2.002,0.197 -3.338,0.321 -0.137,0.012 -0.228,0.111 -0.214,0.257 0.482,5.253 0.723,7.88 1.208,13.133 0.012,0.127 0.12,0.208 0.24,0.196 1.787,-0.165 2.68,-0.249 4.466,-0.429"
             style="fill:#ffffff;fill-opacity:1;fill-rule:nonzero;stroke:none"
             id="path182" />
        </g>
        <g
           id="g184"
           transform="translate(216.248,250.8154)">
          <path
             d="m 0,0 c 0.009,-0.093 0.064,-0.155 0.084,-0.157 0.04,-0.005 0.104,0.042 0.115,0.133 0.597,2.2 0.901,3.3 1.505,5.5 C 1.76,5.598 1.851,5.697 1.969,5.683 3.344,5.518 4.031,5.433 5.406,5.259 5.526,5.244 5.593,5.124 5.557,5 3.781,-0.093 2.907,-2.639 1.186,-7.744 1.15,-7.869 1.045,-7.949 0.908,-7.933 c -1.519,0.184 -2.282,0.275 -3.803,0.448 -0.117,0.013 -0.199,0.15 -0.209,0.243 C -3.561,-1.866 -3.8,0.822 -4.31,6.199 -4.319,6.292 -4.271,6.396 -4.15,6.383 -2.718,6.228 -2.002,6.146 -0.57,5.981 -0.45,5.968 -0.355,5.902 -0.351,5.773 -0.205,3.464 -0.137,2.309 0,0"
             style="fill:#ffffff;fill-opacity:1;fill-rule:nonzero;stroke:none"
             id="path186" />
        </g>
        <g
           id="g188"
           transform="translate(222.208,255.7642)">
          <path
             d="M 0,0 C 0.014,0.108 0.146,0.22 0.287,0.202 3.124,-0.162 4.542,-0.354 7.376,-0.755 7.494,-0.772 7.563,-0.873 7.547,-0.981 7.362,-2.277 7.27,-2.926 7.085,-4.222 7.069,-4.331 6.959,-4.389 6.842,-4.372 5.518,-4.184 4.855,-4.092 3.53,-3.913 3.452,-3.902 3.387,-3.949 3.377,-4.021 3.322,-4.425 3.295,-4.627 3.24,-5.031 3.23,-5.103 3.302,-5.168 3.361,-5.176 3.986,-5.261 4.299,-5.304 4.924,-5.39 5.003,-5.401 5.055,-5.463 5.045,-5.536 4.862,-6.847 4.774,-7.503 4.592,-8.814 4.579,-8.905 4.487,-8.966 4.408,-8.955 3.771,-8.867 3.455,-8.823 2.818,-8.737 2.741,-8.727 2.675,-8.772 2.662,-8.862 2.604,-9.288 2.574,-9.5 2.517,-9.926 c -0.01,-0.072 0.043,-0.134 0.101,-0.141 1.357,-0.184 2.032,-0.277 3.388,-0.469 0.136,-0.019 0.203,-0.122 0.19,-0.212 -0.19,-1.34 -0.286,-2.009 -0.476,-3.349 -0.016,-0.108 -0.127,-0.185 -0.242,-0.168 -2.785,0.395 -4.175,0.582 -6.963,0.939 -0.118,0.015 -0.203,0.137 -0.186,0.263 C -1.003,-7.836 -0.669,-5.226 0,0"
             style="fill:#ffffff;fill-opacity:1;fill-rule:nonzero;stroke:none"
             id="path190" />
        </g>
        <text
           xml:space="preserve"
           transform="matrix(1,0,0,-1,132.2808,153.4414)"
           style="font-variant:normal;font-weight:bold;font-stretch:normal;font-size:17.5312px;font-family:'Poplar Std';-inkscape-font-specification:PoplarStd;writing-mode:lr-tb;fill:#ffffff;fill-opacity:1;fill-rule:nonzero;stroke:none"
           id="text194"><tspan
             x="0 7.6786656 15.04177 23.912558 31.205536 35.272774"
             y="0"
             sodipodi:role="line"
             id="tspan192">BERLIN</tspan></text>
        <text
           xml:space="preserve"
           transform="matrix(1,0,0,-1,146.3789,130.9893)"
           style="font-variant:normal;font-weight:bold;font-stretch:normal;font-size:15.9578px;font-family:'Poplar Std';-inkscape-font-specification:PoplarStd;writing-mode:lr-tb;fill:#93191e;fill-opacity:1;fill-rule:nonzero;stroke:none"
           id="text198"><tspan
             x="0 7.1171789"
             y="0"
             sodipodi:role="line"
             id="tspan196">08</tspan></text>
        <g
           id="g200"
           transform="translate(116.3682,192.6738)">
          <path
             d="m 0,0 c -0.032,3.598 2.534,6.262 6.306,6.187 1.084,-0.032 4.511,-0.55 4.992,2.152 0.435,2.399 -3.584,4.667 -5.012,6.093 -2.074,2.057 -4.076,4.548 -4.724,7.431 -0.649,2.834 -0.319,6.375 2.345,9.268 2.645,2.892 6.34,2.646 6.34,2.646 l 0.151,-0.416 c 0,0 -3.179,-2.002 -2.53,-5.449 0.457,-2.471 2.758,-2.971 6.148,-6.126 2.668,-2.5 3.809,-3.944 4.417,-6.803 v -0.02 C 18.948,12.53 18.033,10.416 17.087,9.084 16.931,8.852 16.777,8.664 16.606,8.473 15.538,7.216 12.913,6.262 12.398,6.096 11.865,5.925 11.255,5.618 11.255,5.618 c 0,0 2.17,-1.851 6.264,-2.422 h 0.023 c 0.359,-0.055 0.717,-0.093 1.1,-0.115 1.148,-0.072 2.114,-0.054 2.935,0.115 h 0.019 c 1.239,0.27 2.207,0.839 3.104,1.906 0.7,0.835 0.835,2.551 0.228,3.982 -0.018,0.019 -0.018,0.037 -0.037,0.055 -0.649,1.465 -1.963,3.141 -2.401,5.465 -0.015,0.11 -0.039,0.248 -0.057,0.359 -0.095,1.108 0.288,2.227 0.782,3.034 0.566,0.873 3.501,3.557 3.501,3.557 0,0 -2.097,-0.019 -4.15,1.257 -1.238,0.78 -3.313,2.306 -3.846,2.646 -0.554,0.345 -1.37,0.767 -2.036,0.936 -0.667,0.169 -1.279,-0.082 -1.41,-0.063 -0.137,0.019 -0.398,0.273 -0.398,0.273 0,0 1.35,1.046 2.342,1.842 1.006,0.799 1.843,1.527 3.332,2.745 1.809,1.446 2.814,1.577 2.814,1.577 0,0 0.552,0.063 1.773,-1.071 0.989,-0.93 2.113,-2.754 3.997,-3.689 2.157,-1.045 4.345,-0.801 4.345,-0.801 l 0.054,-0.741 c 0,0 -3.064,-1.467 -3.674,-3.748 -0.687,-2.514 0.077,-4.554 0.591,-5.62 0.363,-0.701 0.724,-1.405 1.045,-2.134 0.626,-1.419 1.028,-2.87 0.626,-4.472 C 31.992,9.96 31.875,9.502 31.723,9.084 31.189,7.542 30.45,6.632 28.656,5.142 28.067,4.663 27.004,3.979 25.822,3.196 c -1.599,-1.063 -3.41,-2.317 -4.38,-3.52 -1.691,-2.056 -1.867,-4.268 -1.867,-4.268 0,0 -0.971,-0.284 -2.264,-0.074 -2.65,0.377 -3.56,1.007 -6.531,2.854 C 8.134,-0.172 6.114,1.313 3.258,1.389 1.161,1.426 0.346,0.016 0.346,0.016 Z m 35.117,-8.532 0.531,-0.037 c 0,0 0.401,1.406 1.978,3.177 1.733,1.926 3.03,1.792 3.713,3.66 0.476,1.333 0.651,3.578 0.667,4.341 v 0.587 c 0,1.139 -0.016,3.636 -0.056,5.888 -0.016,2.395 -0.057,4.551 -0.057,4.551 l 2.437,0.358 c 0.992,0.153 2.531,0.457 2.531,0.457 0,0 0,0.264 -0.017,0.438 0,0.025 -0.021,0.056 -0.021,0.075 -0.014,0.176 -0.072,0.345 -0.072,0.345 0,0 -2.991,-0.138 -4.896,0.437 -1.488,0.457 -4,1.643 -4.609,4.499 -0.169,0.719 0.248,2.601 1.733,2.223 1.792,-0.457 3.392,-3.196 3.392,-3.196 0,0 0.529,2.223 0.857,3.086 0.324,0.876 1.122,2.584 1.122,2.584 0,0 -0.647,0.913 -2.535,1.867 -2.092,1.048 -4.417,1.487 -4.417,1.487 0,0 -0.057,-1.89 -1.294,-3.694 -1.217,-1.827 -3.331,-2.931 -3.331,-2.931 0,0 0.855,-1.558 1.237,-2.722 0.648,-1.964 0.687,-3.846 0.687,-3.846 0,0 -0.48,-0.064 -0.839,-0.064 -0.362,0 -1.049,0.116 -1.049,0.116 0,0 0.018,-0.075 0.018,-0.191 0.02,-0.15 0.038,-0.4 0.058,-0.648 0.037,-0.397 0.135,-0.947 0.135,-0.947 0,0 0.628,-0.024 0.893,-0.024 0.288,0 1.012,-0.019 1.012,-0.019 0,0 0.016,-2.172 0.036,-4.241 z M 66.552,3.196 c 0.606,0.557 1.579,3.05 1.388,5.888 -0.059,0.76 -0.211,1.545 -0.456,2.339 -0.589,1.81 -1.22,2.912 -1.865,3.54 -0.648,0.667 -1.314,0.857 -1.922,0.88 -1.563,0.037 -2.135,-0.723 -2.135,-0.723 0,0 0,-0.059 0.02,-0.157 C 61.6,14.626 61.638,13.788 61.6,12.912 61.562,11.801 61.086,10.204 60.133,9.084 60.114,9.063 60.096,9.046 60.077,9.002 59.068,7.882 57.297,7.363 55.982,6.987 L 53.471,6.284 c 0,0 1.767,-1.774 5.291,-3.088 1.066,-0.393 2.285,-0.741 3.658,-1.008 1.846,-0.324 3.256,0.227 4.132,1.008 m -22.472,0 c 0.44,0.958 1.145,1.906 2.288,2.478 2.532,1.295 7.272,0.36 7.786,2.912 0.037,0.172 0.057,0.325 0.057,0.498 -0.057,2.418 -3.75,5.082 -4.607,5.879 -0.019,0.02 -0.019,0.02 -0.037,0.044 -0.86,0.813 -4.819,3.788 -3.981,10.566 1.165,9.477 9.789,8.45 9.789,8.45 l 0.133,-0.433 c 0,0 -2.457,-0.839 -3.26,-2.857 -1.08,-2.783 2.857,-6.073 2.857,-6.073 0,0 2.689,2.914 5.905,4.682 3.199,1.773 8.188,4.608 11.349,-1.998 2.797,-5.85 0.077,-7.998 -1.734,-8.877 -0.76,-0.376 -1.293,-0.645 -1.293,-0.645 2.34,-0.134 5.005,-0.801 6.376,-2.859 0.968,-1.444 1.411,-3.461 1.278,-5.692 V 9.084 C 76.758,6.394 75.391,4.323 73.594,3.196 73.459,3.103 73.33,3.027 73.177,2.949 71.14,1.864 66.552,1.22 64.991,-0.08 c -2.648,-2.206 -2.648,-5.121 -2.648,-5.121 0,0 -3.905,-0.092 -6.665,1.181 -3.942,1.812 -5.125,4.551 -8.19,5.371 C 44.634,2.114 43.76,0.132 43.76,0.132 l -0.385,0.172 c 0,0 0.02,1.429 0.705,2.892 m 12.058,20.869 c 0,0 -0.156,-0.169 -0.156,-0.337 0,-0.175 0.174,-0.332 0.174,-0.332 0,0 1.141,-1.351 2.413,-2.812 1.49,-1.714 2.632,-3.731 2.632,-3.731 0,0 0.933,0 2.133,0.398 2.607,0.872 2.57,3.333 1.045,5.982 -1.045,1.825 -2.645,2.774 -3.9,2.68 -2.669,-0.186 -4.341,-1.848 -4.341,-1.848"
             style="fill:#93191e;fill-opacity:1;fill-rule:nonzero;stroke:none"
             id="path202" />
        </g>
      </g>
    </g>
  </g>
</svg>
