<?xml version="1.0" encoding="UTF-8"?>
<svg width="1091.3" height="151.84" version="1.2" viewBox="0 0 818.47 113.88" xmlns="http://www.w3.org/2000/svg" xmlns:cc="http://creativecommons.org/ns#" xmlns:dc="http://purl.org/dc/elements/1.1/" xmlns:rdf="http://www.w3.org/1999/02/22-rdf-syntax-ns#" xmlns:xlink="http://www.w3.org/1999/xlink">
 <metadata>
  <rdf:RDF>
   <cc:Work rdf:about="">
    <dc:format>image/svg+xml</dc:format>
    <dc:type rdf:resource="http://purl.org/dc/dcmitype/StillImage"/>
    <dc:title/>
   </cc:Work>
  </rdf:RDF>
 </metadata>
 <g transform="matrix(2.9274 0 0 2.9274 -54.263 -1165.4)" stroke-width=".3416">
  <path d="m31.613 407.16h-4.1445v21.754h4.1445c7.1133 0 11.004-4.0938 11.004-11.105 0-6.707-3.9414-10.648-11.004-10.648m-0.40625 28.609h-11.363v-35.312h11.363c12.129 0 19.191 6.3984 19.191 17.352 0 11.309-7.0625 17.961-19.191 17.961"/>
  <path d="m77.883 407.16h-14.281v9.625h12.898v6.5h-12.898v12.484h-7.625v-35.312h21.906z"/>
  <path d="m95.633 420.88h-4.1445v8.4453h4.1953c3.8398 0 5.7852-1.5391 5.7852-4.25s-1.9961-4.1953-5.8359-4.1953m-0.46094-14.023h-3.6836v8.1875h3.6836c3.3789 0 5.2227-1.5859 5.2227-4.1953 0-2.6641-1.7422-3.9922-5.2227-3.9922m0.97266 28.918h-12.285v-35.316h11.516c8.293 0 12.438 3.5312 12.438 9.1602 0 4.5547-2.457 7.168-5.6797 8.1367v0.10547c3.6836 0.66406 6.9102 3.5312 6.9102 8.1875 0 5.8867-4.3516 9.7266-12.898 9.7266"/>
  <path d="m126.39 421.13h-13.309v-6.0391h13.309z"/>
  <path d="m144.18 407.05h-3.582v11.414h3.6328c4.3008 0 6.6016-2.1484 6.6016-5.7344 0-3.5312-2.3555-5.6797-6.6524-5.6797m-0.15234 17.863h-3.4297v10.852h-7.6289v-35.316h11.211c9.2656 0 14.281 4.4024 14.281 12.027 0 7.4726-5.2734 12.438-14.434 12.438"/>
  <path d="m170.61 418.01c0 7.0625 4.3008 11.566 10.543 11.566 6.2461 0 10.441-4.5039 10.441-11.566 0-7.0117-4.1953-11.516-10.441-11.516-6.2422 0-10.543 4.5039-10.543 11.516m28.766 0.0508c0 10.953-7.4727 18.477-18.273 18.477-10.902 0-18.219-7.4219-18.219-18.477 0-10.797 7.5234-18.375 18.219-18.375 10.801 0 18.273 7.4727 18.273 18.375"/>
  <path d="m216.21 421.69-3.6328 4.4531v9.625h-7.625v-35.316h7.625v16.02l12.793-16.02h9.0586l-13 16.02 13.922 19.297h-9.5703z"/>
  <path d="m250.44 422.77h7.9844l-3.9414-10.75h-0.10156zm10.234 6.0898h-12.488l-2.5586 6.9102h-7.9844l12.949-32.195-1.332-3.1211h8.0859l14.18 35.316h-8.293z"/>
  <path d="m284.74 428.91h12.898v6.8555h-20.523v-35.312h7.625z"/>
 </g>
</svg>
